<?xml version="1.0" encoding="utf-8" standalone="no"?>
<!DOCTYPE svg PUBLIC "-//W3C//DTD SVG 1.1//EN"
  "http://www.w3.org/Graphics/SVG/1.1/DTD/svg11.dtd">
<svg xmlns:xlink="http://www.w3.org/1999/xlink" width="958.110236pt" height="518.740157pt" viewBox="0 0 958.110236 518.740157" xmlns="http://www.w3.org/2000/svg" version="1.1">
 <metadata>
  <rdf:RDF xmlns:dc="http://purl.org/dc/elements/1.1/" xmlns:cc="http://creativecommons.org/ns#" xmlns:rdf="http://www.w3.org/1999/02/22-rdf-syntax-ns#">
   <cc:Work>
    <dc:type rdf:resource="http://purl.org/dc/dcmitype/StillImage"/>
    <dc:date>2023-03-22T17:15:28.532205</dc:date>
    <dc:format>image/svg+xml</dc:format>
    <dc:creator>
     <cc:Agent>
      <dc:title>Matplotlib v3.5.2, https://matplotlib.org/</dc:title>
     </cc:Agent>
    </dc:creator>
   </cc:Work>
  </rdf:RDF>
 </metadata>
 <defs>
  <style type="text/css">*{stroke-linejoin: round; stroke-linecap: butt}</style>
 </defs>
 <g id="figure_1">
  <g id="patch_1">
   <path d="M 0 518.740157 
L 958.110236 518.740157 
L 958.110236 0 
L 0 0 
L 0 518.740157 
z
" style="fill: none"/>
  </g>
  <g id="axes_1">
   <g id="patch_2">
    <path d="M 119.76378 461.67874 
L 637.143307 461.67874 
L 637.143307 62.248819 
L 119.76378 62.248819 
L 119.76378 461.67874 
z
" style="fill: none"/>
   </g>
   <g id="PathCollection_1">
    <path d="M 156.71946 449.855713 
L 172.931041 445.333398 
L 156.71946 450.317364 
L 119.76378 461.67874 
L 119.76378 459.878694 
z
" clip-path="url(#p3013d9d5b5)" style="fill: #342339"/>
   </g>
   <g id="PathCollection_2">
    <path d="M 156.71946 447.434061 
L 193.675141 436.74662 
L 230.630821 426.067308 
L 267.586502 415.434053 
L 304.542182 404.853102 
L 305.463769 404.588534 
L 304.542182 404.87186 
L 267.586502 416.233236 
L 230.630821 427.594612 
L 193.675141 438.955988 
L 172.931041 445.333398 
L 156.71946 449.855713 
L 119.76378 459.878694 
L 119.76378 457.936934 
z
" clip-path="url(#p3013d9d5b5)" style="fill: #3d253a"/>
   </g>
   <g id="PathCollection_3">
    <path d="M 156.71946 445.012409 
L 193.675141 433.824432 
L 230.630821 422.636521 
L 267.586502 411.491493 
L 304.542182 400.396429 
L 341.497863 389.357837 
L 378.453543 378.370544 
L 415.409224 367.426174 
L 452.364904 356.528044 
L 489.320585 345.670771 
L 526.276265 334.849978 
L 563.231946 324.064828 
L 600.187627 313.314864 
L 637.143307 302.600079 
L 637.143307 302.619475 
L 600.187627 313.980851 
L 563.231946 325.342227 
L 526.276265 336.703603 
L 489.320585 348.064979 
L 452.364904 359.426355 
L 415.409224 370.787731 
L 378.453543 382.149107 
L 341.497863 393.510484 
L 305.463769 404.588534 
L 304.542182 404.853102 
L 267.586502 415.434053 
L 230.630821 426.067308 
L 193.675141 436.74662 
L 156.71946 447.434061 
L 119.76378 457.936934 
L 119.76378 455.995174 
z
" clip-path="url(#p3013d9d5b5)" style="fill: #532a3c"/>
   </g>
   <g id="PathCollection_4">
    <path d="M 156.71946 442.590757 
L 193.675141 430.902244 
L 230.630821 419.205735 
L 267.586502 407.548932 
L 304.542182 395.939755 
L 341.497863 384.387205 
L 378.453543 372.885405 
L 415.409224 361.420224 
L 452.364904 350.007151 
L 489.320585 338.640187 
L 526.276265 327.311151 
L 563.231946 316.020246 
L 600.187627 304.765831 
L 637.143307 293.544614 
L 637.143307 302.600079 
L 600.187627 313.314864 
L 563.231946 324.064828 
L 526.276265 334.849978 
L 489.320585 345.670771 
L 452.364904 356.528044 
L 415.409224 367.426174 
L 378.453543 378.370544 
L 341.497863 389.357837 
L 304.542182 400.396429 
L 267.586502 411.491493 
L 230.630821 422.636521 
L 193.675141 433.824432 
L 156.71946 445.012409 
L 119.76378 455.995174 
L 119.76378 454.053414 
z
" clip-path="url(#p3013d9d5b5)" style="fill: #672f3e"/>
   </g>
   <g id="PathCollection_5">
    <path d="M 156.71946 440.169105 
L 193.675141 427.980057 
L 230.630821 415.774948 
L 267.586502 403.606372 
L 304.542182 391.483081 
L 341.497863 379.416572 
L 378.453543 367.400266 
L 415.409224 355.414274 
L 452.364904 343.486257 
L 489.320585 331.609602 
L 526.276265 319.772324 
L 563.231946 307.975664 
L 569.060022 306.130376 
L 600.187627 295.994083 
L 637.143307 284.062347 
L 637.143307 286.594764 
L 637.143307 293.544614 
L 600.187627 304.765831 
L 563.231946 316.020246 
L 526.276265 327.311151 
L 489.320585 338.640187 
L 452.364904 350.007151 
L 415.409224 361.420224 
L 378.453543 372.885405 
L 341.497863 384.387205 
L 304.542182 395.939755 
L 267.586502 407.548932 
L 230.630821 419.205735 
L 193.675141 430.902244 
L 156.71946 442.590757 
L 119.76378 454.053414 
L 119.76378 452.111655 
z
" clip-path="url(#p3013d9d5b5)" style="fill: #7d353f"/>
   </g>
   <g id="PathCollection_6">
    <path d="M 156.71946 437.747453 
L 193.675141 425.057869 
L 230.630821 412.344162 
L 267.586502 399.663811 
L 304.542182 387.026407 
L 341.497863 374.44594 
L 378.453543 361.915127 
L 400.48873 354.499712 
L 415.409224 349.065279 
L 452.364904 335.997471 
L 489.320585 323.160726 
L 526.276265 310.476344 
L 563.231946 297.931519 
L 600.187627 285.505993 
L 637.143307 273.171363 
L 637.143307 284.062347 
L 600.187627 295.994083 
L 569.060022 306.130376 
L 563.231946 307.975664 
L 526.276265 319.772324 
L 489.320585 331.609602 
L 452.364904 343.486257 
L 415.409224 355.414274 
L 378.453543 367.400266 
L 341.497863 379.416572 
L 304.542182 391.483081 
L 267.586502 403.606372 
L 230.630821 415.774948 
L 193.675141 427.980057 
L 156.71946 440.169105 
L 119.76378 452.111655 
L 119.76378 450.169895 
z
" clip-path="url(#p3013d9d5b5)" style="fill: #973a42"/>
   </g>
   <g id="PathCollection_7">
    <path d="M 156.71946 435.325801 
L 193.675141 422.135681 
L 230.630821 408.913375 
L 267.586502 395.721251 
L 304.542182 382.569733 
L 313.251903 379.531183 
L 341.497863 368.316566 
L 378.453543 354.235692 
L 415.409224 340.516203 
L 452.364904 327.094108 
L 489.320585 313.880043 
L 526.276265 300.791619 
L 534.663631 297.87489 
L 563.231946 287.31485 
L 600.187627 273.943507 
L 637.143307 260.776515 
L 637.143307 270.570054 
L 637.143307 273.171363 
L 600.187627 285.505993 
L 563.231946 297.931519 
L 526.276265 310.476344 
L 489.320585 323.160726 
L 452.364904 335.997471 
L 415.409224 349.065279 
L 400.48873 354.499712 
L 378.453543 361.915127 
L 341.497863 374.44594 
L 304.542182 387.026407 
L 267.586502 399.663811 
L 230.630821 412.344162 
L 193.675141 425.057869 
L 156.71946 437.747453 
L 119.76378 450.169895 
L 119.76378 448.228135 
z
" clip-path="url(#p3013d9d5b5)" style="fill: #b54145"/>
   </g>
   <g id="PathCollection_8">
    <path d="M 156.71946 432.904149 
L 193.675141 419.213493 
L 230.630821 405.482589 
L 258.38095 395.275688 
L 267.586502 391.003776 
L 304.542182 375.285859 
L 341.497863 360.393864 
L 378.453543 346.010382 
L 415.409224 331.967126 
L 437.568192 323.745141 
L 452.364904 317.679163 
L 489.320585 303.090177 
L 526.276265 288.885855 
L 563.231946 275.023015 
L 582.054776 268.094146 
L 600.187627 260.955789 
L 637.143307 246.839674 
L 637.143307 254.545343 
L 637.143307 260.776515 
L 600.187627 273.943507 
L 563.231946 287.31485 
L 534.663631 297.87489 
L 526.276265 300.791619 
L 489.320585 313.880043 
L 452.364904 327.094108 
L 415.409224 340.516203 
L 378.453543 354.235692 
L 341.497863 368.316566 
L 313.251903 379.531183 
L 304.542182 382.569733 
L 267.586502 395.721251 
L 230.630821 408.913375 
L 193.675141 422.135681 
L 156.71946 435.325801 
L 119.76378 448.228135 
L 119.76378 446.286375 
z
" clip-path="url(#p3013d9d5b5)" style="fill: #d14847"/>
   </g>
   <g id="PathCollection_9">
    <path d="M 156.71946 430.482497 
L 193.675141 416.291305 
L 219.836369 406.335553 
L 230.630821 400.643011 
L 267.586502 383.49038 
L 304.542182 367.612677 
L 341.497863 352.471161 
L 365.705446 342.892357 
L 378.453543 337.08804 
L 415.409224 321.185058 
L 452.364904 305.950132 
L 489.320585 291.194827 
L 491.395526 290.391424 
L 526.276265 275.68027 
L 563.231946 260.665518 
L 595.695165 247.865137 
L 600.187627 245.961872 
L 637.143307 230.844886 
L 637.143307 238.520633 
L 637.143307 246.839674 
L 600.187627 260.955789 
L 582.054776 268.094146 
L 563.231946 275.023015 
L 526.276265 288.885855 
L 489.320585 303.090177 
L 452.364904 317.679163 
L 437.568192 323.745141 
L 415.409224 331.967126 
L 378.453543 346.010382 
L 341.497863 360.393864 
L 304.542182 375.285859 
L 267.586502 391.003776 
L 258.38095 395.275688 
L 230.630821 405.482589 
L 193.675141 419.213493 
L 156.71946 432.904149 
L 119.76378 446.286375 
L 119.76378 444.344615 
z
" clip-path="url(#p3013d9d5b5)" style="fill: #f04f4a"/>
   </g>
   <g id="PathCollection_10">
    <path d="M 156.71946 428.060845 
L 190.059309 414.879692 
L 193.675141 412.57291 
L 230.630821 393.138414 
L 267.586502 375.976985 
L 304.542182 359.939495 
L 309.685917 357.818283 
L 341.497863 342.299909 
L 378.453543 325.511217 
L 415.409224 309.572345 
L 418.34187 308.358676 
L 452.364904 292.632569 
L 489.320585 276.419646 
L 512.719957 266.571937 
L 526.276265 260.33504 
L 563.231946 244.096876 
L 593.085919 231.525704 
L 600.187627 228.30909 
L 637.143307 212.239438 
L 637.143307 222.495923 
L 637.143307 230.844886 
L 600.187627 245.961872 
L 595.695165 247.865137 
L 563.231946 260.665518 
L 526.276265 275.68027 
L 491.395526 290.391424 
L 489.320585 291.194827 
L 452.364904 305.950132 
L 415.409224 321.185058 
L 378.453543 337.08804 
L 365.705446 342.892357 
L 341.497863 352.471161 
L 304.542182 367.612677 
L 267.586502 383.49038 
L 230.630821 400.643011 
L 219.836369 406.335553 
L 193.675141 416.291305 
L 156.71946 430.482497 
L 119.76378 444.344615 
L 119.76378 442.402855 
z
" clip-path="url(#p3013d9d5b5)" style="fill: #f35943"/>
   </g>
   <g id="PathCollection_11">
    <path d="M 156.71946 425.639193 
L 167.723536 421.288652 
L 193.675141 404.732377 
L 230.630821 385.633818 
L 264.704675 369.803152 
L 267.586502 368.09185 
L 304.542182 348.477357 
L 341.497863 330.661035 
L 357.914575 323.220526 
L 378.453543 312.466385 
L 415.409224 294.517856 
L 441.363337 282.659321 
L 452.364904 277.050205 
L 489.320585 259.273246 
L 515.227839 247.483105 
L 526.276265 241.998371 
L 563.231946 224.606466 
L 580.269328 216.962157 
L 600.187627 207.379529 
L 637.143307 190.497971 
L 637.143307 206.471212 
L 637.143307 212.239438 
L 600.187627 228.30909 
L 593.085919 231.525704 
L 563.231946 244.096876 
L 526.276265 260.33504 
L 512.719957 266.571937 
L 489.320585 276.419646 
L 452.364904 292.632569 
L 418.34187 308.358676 
L 415.409224 309.572345 
L 378.453543 325.511217 
L 341.497863 342.299909 
L 309.685917 357.818283 
L 304.542182 359.939495 
L 267.586502 375.976985 
L 230.630821 393.138414 
L 193.675141 412.57291 
L 190.059309 414.879692 
L 156.71946 428.060845 
L 119.76378 442.402855 
L 119.76378 440.461095 
z
" clip-path="url(#p3013d9d5b5)" style="fill: #f5653b"/>
   </g>
   <g id="PathCollection_12">
    <path d="M 148.546418 426.791276 
L 156.71946 419.817447 
L 193.675141 396.891844 
L 227.383977 379.746934 
L 230.630821 377.532232 
L 267.586502 355.693196 
L 304.542182 336.604326 
L 305.639377 336.077401 
L 341.497863 315.78071 
L 378.453543 296.876277 
L 378.585951 296.812512 
L 415.409224 276.799785 
L 445.352954 261.804311 
L 452.364904 257.915387 
L 489.320585 238.698226 
L 505.588481 230.737747 
L 526.276265 219.767683 
L 559.646828 203.153133 
L 563.231946 201.240249 
L 600.187627 182.536926 
L 608.519064 178.528468 
L 637.143307 163.9769 
L 637.143307 174.421792 
L 637.143307 190.446502 
L 637.143307 190.497971 
L 600.187627 207.379529 
L 580.269328 216.962157 
L 563.231946 224.606466 
L 526.276265 241.998371 
L 515.227839 247.483105 
L 489.320585 259.273246 
L 452.364904 277.050205 
L 441.363337 282.659321 
L 415.409224 294.517856 
L 378.453543 312.466385 
L 357.914575 323.220526 
L 341.497863 330.661035 
L 304.542182 348.477357 
L 267.586502 368.09185 
L 264.704675 369.803152 
L 230.630821 385.633818 
L 193.675141 404.732377 
L 167.723536 421.288652 
L 156.71946 425.639193 
L 119.76378 440.461095 
L 119.76378 438.519335 
z
" clip-path="url(#p3013d9d5b5)" style="fill: #f77033"/>
   </g>
   <g id="PathCollection_13">
    <path d="M 132.436634 431.413768 
L 156.71946 410.693909 
L 193.675141 389.051311 
L 195.008656 388.373062 
L 230.630821 364.074868 
L 260.351368 347.215804 
L 267.586502 342.193173 
L 304.542182 319.526893 
L 323.130429 309.314986 
L 341.497863 297.675749 
L 378.453543 276.574337 
L 381.693377 274.851658 
L 415.409224 254.872883 
L 436.229687 243.531634 
L 452.364904 233.918225 
L 486.251925 215.187254 
L 489.320585 213.360237 
L 526.276265 192.659892 
L 532.340061 189.457755 
L 563.231946 172.140226 
L 574.651602 166.081873 
L 600.187627 151.850637 
L 613.488241 144.796483 
L 637.143307 131.714335 
L 637.143307 142.372371 
L 637.143307 158.397081 
L 637.143307 163.9769 
L 608.519064 178.528468 
L 600.187627 182.536926 
L 563.231946 201.240249 
L 559.646828 203.153133 
L 526.276265 219.767683 
L 505.588481 230.737747 
L 489.320585 238.698226 
L 452.364904 257.915387 
L 445.352954 261.804311 
L 415.409224 276.799785 
L 378.585951 296.812512 
L 378.453543 296.876277 
L 341.497863 315.78071 
L 305.639377 336.077401 
L 304.542182 336.604326 
L 267.586502 355.693196 
L 230.630821 377.532232 
L 227.383977 379.746934 
L 193.675141 396.891844 
L 156.71946 419.817447 
L 148.546418 426.791276 
L 119.76378 438.519335 
L 119.76378 436.577575 
z
" clip-path="url(#p3013d9d5b5)" style="fill: #f87b2b"/>
   </g>
   <g id="PathCollection_14">
    <path d="M 119.76378 435.050079 
L 119.76378 432.08192 
L 156.71946 401.570371 
L 166.14617 396.063225 
L 193.675141 373.71305 
L 219.155963 357.347648 
L 230.630821 348.268229 
L 267.586502 323.418844 
L 271.827493 320.881258 
L 304.542182 298.09966 
L 322.638203 286.95531 
L 341.497863 273.898719 
L 370.740355 255.611763 
L 378.453543 250.311429 
L 415.409224 227.066602 
L 416.032778 226.700665 
L 452.364904 203.683895 
L 458.538316 200.045979 
L 489.320585 180.669507 
L 498.094854 175.496285 
L 526.276265 157.936413 
L 534.92318 152.847633 
L 563.231946 135.520262 
L 569.430106 131.898924 
L 600.187627 113.351725 
L 601.657145 112.50487 
L 631.507252 94.529267 
L 637.143307 91.089142 
L 637.143307 94.29824 
L 637.143307 110.32295 
L 637.143307 126.34766 
L 637.143307 131.714335 
L 613.488241 144.796483 
L 600.187627 151.850637 
L 574.651602 166.081873 
L 563.231946 172.140226 
L 532.340061 189.457755 
L 526.276265 192.659892 
L 489.320585 213.360237 
L 486.251925 215.187254 
L 452.364904 233.918225 
L 436.229687 243.531634 
L 415.409224 254.872883 
L 381.693377 274.851658 
L 378.453543 276.574337 
L 341.497863 297.675749 
L 323.130429 309.314986 
L 304.542182 319.526893 
L 267.586502 342.193173 
L 260.351368 347.215804 
L 230.630821 364.074868 
L 195.008656 388.373062 
L 193.675141 389.051311 
L 156.71946 410.693909 
L 132.436634 431.413768 
L 119.76378 436.577575 
z
" clip-path="url(#p3013d9d5b5)" style="fill: #fa8921"/>
   </g>
   <g id="PathCollection_15">
    <path d="M 138.631898 403.394168 
L 156.71946 384.823291 
L 179.817336 367.022825 
L 193.675141 354.223193 
L 222.793781 331.935932 
L 230.630821 325.08855 
L 265.497889 298.666502 
L 267.586502 296.912846 
L 304.542182 269.040033 
L 307.003627 267.368607 
L 341.497863 241.686965 
L 346.868957 238.041041 
L 378.453543 214.987409 
L 384.950297 210.603541 
L 415.409224 188.758846 
L 421.084588 184.966467 
L 452.364904 162.977144 
L 455.339838 161.003134 
L 487.795174 138.591518 
L 489.320585 137.501308 
L 518.322814 117.628806 
L 526.276265 112.061327 
L 547.235435 97.983653 
L 563.231946 87.067792 
L 574.621183 79.554951 
L 600.187627 62.517097 
L 600.600759 62.248819 
L 637.143307 62.248819 
L 637.143307 78.273529 
L 637.143307 91.089142 
L 631.507252 94.529267 
L 601.657145 112.50487 
L 600.187627 113.351725 
L 569.430106 131.898924 
L 563.231946 135.520262 
L 534.92318 152.847633 
L 526.276265 157.936413 
L 498.094854 175.496285 
L 489.320585 180.669507 
L 458.538316 200.045979 
L 452.364904 203.683895 
L 416.032778 226.700665 
L 415.409224 227.066602 
L 378.453543 250.311429 
L 370.740355 255.611763 
L 341.497863 273.898719 
L 322.638203 286.95531 
L 304.542182 298.09966 
L 271.827493 320.881258 
L 267.586502 323.418844 
L 230.630821 348.268229 
L 219.155963 357.347648 
L 193.675141 373.71305 
L 166.14617 396.063225 
L 156.71946 401.570371 
L 119.76378 432.08192 
L 119.76378 418.16939 
z
" clip-path="url(#p3013d9d5b5)" style="fill: #fc9518"/>
   </g>
   <g id="PathCollection_16">
    <path d="M 119.76378 408.421417 
L 119.76378 400.090847 
L 142.567646 376.184237 
L 156.71946 358.748806 
L 173.800423 342.981508 
L 193.675141 322.607634 
L 207.515263 310.55033 
L 230.630821 288.691598 
L 241.687151 279.41685 
L 267.586502 256.191193 
L 275.499839 249.743005 
L 304.542182 224.749579 
L 308.553339 221.564097 
L 340.563766 194.868353 
L 341.497863 194.056877 
L 371.288977 169.616455 
L 378.453543 163.602785 
L 400.838944 145.720363 
L 415.409224 133.89067 
L 429.246136 123.105818 
L 452.364904 104.897612 
L 456.569825 101.700127 
L 482.524093 81.442527 
L 489.320585 76.091512 
L 507.294573 62.248819 
L 526.276265 62.248819 
L 563.231946 62.248819 
L 600.187627 62.248819 
L 600.600759 62.248819 
L 600.187627 62.517097 
L 574.621183 79.554951 
L 563.231946 87.067792 
L 547.235435 97.983653 
L 526.276265 112.061327 
L 518.322814 117.628806 
L 489.320585 137.501308 
L 487.795174 138.591518 
L 455.339838 161.003134 
L 452.364904 162.977144 
L 421.084588 184.966467 
L 415.409224 188.758846 
L 384.950297 210.603541 
L 378.453543 214.987409 
L 346.868957 238.041041 
L 341.497863 241.686965 
L 307.003627 267.368607 
L 304.542182 269.040033 
L 267.586502 296.912846 
L 265.497889 298.666502 
L 230.630821 325.08855 
L 222.793781 331.935932 
L 193.675141 354.223193 
L 179.817336 367.022825 
L 156.71946 384.823291 
L 138.631898 403.394168 
L 119.76378 418.16939 
z
" clip-path="url(#p3013d9d5b5)" style="fill: #fea30e"/>
   </g>
   <g id="PathCollection_17">
    <path d="M 119.76378 381.792756 
L 119.76378 368.941399 
L 133.083447 352.161169 
L 153.035098 321.716311 
L 156.71946 314.34844 
L 176.184173 291.499495 
L 193.675141 269.238455 
L 200.564677 262.029673 
L 226.553794 233.328447 
L 230.630821 228.540237 
L 252.678409 205.675878 
L 267.586502 189.883725 
L 278.59545 179.115455 
L 304.329914 153.632365 
L 304.542182 153.413192 
L 329.320857 129.249873 
L 341.497863 117.387315 
L 353.766538 105.914136 
L 377.740746 83.590114 
L 378.453543 82.907284 
L 400.629894 62.248819 
L 415.409224 62.248819 
L 452.364904 62.248819 
L 489.320585 62.248819 
L 507.294573 62.248819 
L 489.320585 76.091512 
L 482.524093 81.442527 
L 456.569825 101.700127 
L 452.364904 104.897612 
L 429.246136 123.105818 
L 415.409224 133.89067 
L 400.838944 145.720363 
L 378.453543 163.602785 
L 371.288977 169.616455 
L 341.497863 194.056877 
L 340.563766 194.868353 
L 308.553339 221.564097 
L 304.542182 224.749579 
L 275.499839 249.743005 
L 267.586502 256.191193 
L 241.687151 279.41685 
L 230.630821 288.691598 
L 207.515263 310.55033 
L 193.675141 322.607634 
L 173.800423 342.981508 
L 156.71946 358.748806 
L 142.567646 376.184237 
L 119.76378 400.090847 
z
" clip-path="url(#p3013d9d5b5)" style="fill: #feb21a"/>
   </g>
   <g id="PathCollection_18">
    <path d="M 119.76378 355.164094 
L 119.76378 328.535433 
L 119.76378 328.297324 
L 137.462836 298.642013 
L 149.607123 270.384877 
L 156.71946 244.321185 
L 157.472023 243.239504 
L 175.169914 215.207329 
L 190.033786 188.191032 
L 193.675141 180.588573 
L 207.340758 161.583729 
L 224.805764 135.67614 
L 230.630821 126.325222 
L 242.98687 110.455105 
L 261.376036 85.975067 
L 267.586502 77.287101 
L 279.954738 62.248819 
L 304.542182 62.248819 
L 341.497863 62.248819 
L 378.453543 62.248819 
L 400.629894 62.248819 
L 378.453543 82.907284 
L 377.740746 83.590114 
L 353.766538 105.914136 
L 341.497863 117.387315 
L 329.320857 129.249873 
L 304.542182 153.413192 
L 304.329914 153.632365 
L 278.59545 179.115455 
L 267.586502 189.883725 
L 252.678409 205.675878 
L 230.630821 228.540237 
L 226.553794 233.328447 
L 200.564677 262.029673 
L 193.675141 269.238455 
L 176.184173 291.499495 
L 156.71946 314.34844 
L 153.035098 321.716311 
L 133.083447 352.161169 
L 119.76378 368.941399 
z
" clip-path="url(#p3013d9d5b5)" style="fill: #fbc65a"/>
   </g>
   <g id="PathCollection_19">
    <path d="M 119.76378 301.906772 
L 119.76378 287.404007 
L 126.896492 274.108602 
L 128.679476 267.574725 
L 156.71946 243.347473 
L 156.71946 217.476237 
L 156.71946 191.605001 
L 156.71946 165.733764 
L 156.71946 152.920407 
L 163.281759 139.459035 
L 174.629741 113.257131 
L 183.881855 87.563348 
L 191.21474 62.248819 
L 193.675141 62.248819 
L 230.630821 62.248819 
L 267.586502 62.248819 
L 279.954738 62.248819 
L 267.586502 77.287101 
L 261.376036 85.975067 
L 242.98687 110.455105 
L 230.630821 126.325222 
L 224.805764 135.67614 
L 207.340758 161.583729 
L 193.675141 180.588573 
L 190.033786 188.191032 
L 175.169914 215.207329 
L 157.472023 243.239504 
L 156.71946 244.321185 
L 149.607123 270.384877 
L 137.462836 298.642013 
L 119.76378 328.297324 
z
" clip-path="url(#p3013d9d5b5)" style="fill: #f8d995"/>
   </g>
   <g id="PathCollection_20">
    <path d="M 119.76378 275.27811 
L 128.679476 267.574725 
L 126.896492 274.108602 
L 119.76378 287.404007 
z
" clip-path="url(#p3013d9d5b5)" style="fill: #f4edd5"/>
    <path d="M 156.71946 139.862528 
L 156.71946 113.991292 
L 156.71946 88.120055 
L 156.71946 62.248819 
L 191.21474 62.248819 
L 183.881855 87.563348 
L 174.629741 113.257131 
L 163.281759 139.459035 
L 156.71946 152.920407 
z
" clip-path="url(#p3013d9d5b5)" style="fill: #f4edd5"/>
   </g>
   <g id="matplotlib.axis_1">
    <g id="xtick_1">
     <g id="line2d_1">
      <defs>
       <path id="m4ca82d173e" d="M 0 0 
L 0 4 
" style="stroke: #0d7685"/>
      </defs>
      <g>
       <use xlink:href="#m4ca82d173e" x="223.239685" y="461.67874" style="fill: #0d7685; stroke: #0d7685"/>
      </g>
     </g>
     <g id="text_1">
      <!-- 2 -->
      <g style="fill: #f3f6f0" transform="translate(216.012498 487.744365)scale(0.26 -0.26)">
       <defs>
        <path id="HelveticaNeue-32" d="M 282 2931 
L 826 2931 
Q 819 3136 867 3337 
Q 915 3539 1024 3699 
Q 1133 3859 1302 3958 
Q 1472 4058 1709 4058 
Q 1888 4058 2048 4000 
Q 2208 3942 2326 3833 
Q 2445 3725 2515 3574 
Q 2586 3424 2586 3238 
Q 2586 3002 2512 2822 
Q 2438 2643 2294 2489 
Q 2150 2336 1932 2185 
Q 1715 2035 1427 1856 
Q 1190 1715 972 1555 
Q 755 1395 582 1184 
Q 410 973 298 688 
Q 186 403 154 0 
L 3117 0 
L 3117 480 
L 787 480 
Q 826 691 950 854 
Q 1075 1018 1251 1158 
Q 1427 1299 1638 1424 
Q 1850 1549 2061 1677 
Q 2272 1811 2470 1958 
Q 2669 2106 2822 2288 
Q 2976 2470 3069 2700 
Q 3162 2931 3162 3232 
Q 3162 3552 3050 3795 
Q 2938 4038 2746 4201 
Q 2554 4365 2294 4451 
Q 2035 4538 1741 4538 
Q 1382 4538 1100 4416 
Q 819 4294 630 4080 
Q 442 3866 352 3571 
Q 262 3277 282 2931 
z
" transform="scale(0.015625)"/>
       </defs>
       <use xlink:href="#HelveticaNeue-32"/>
      </g>
     </g>
    </g>
    <g id="xtick_2">
     <g id="line2d_2">
      <g>
       <use xlink:href="#m4ca82d173e" x="361.207559" y="461.67874" style="fill: #0d7685; stroke: #0d7685"/>
      </g>
     </g>
     <g id="text_2">
      <!-- 4 -->
      <g style="fill: #f3f6f0" transform="translate(353.980372 487.744365)scale(0.26 -0.26)">
       <defs>
        <path id="HelveticaNeue-34" d="M 2170 1542 
L 646 1542 
L 2157 3763 
L 2170 3763 
L 2170 1542 
z
M 2682 1542 
L 2682 4538 
L 2246 4538 
L 179 1587 
L 179 1062 
L 2170 1062 
L 2170 0 
L 2682 0 
L 2682 1062 
L 3296 1062 
L 3296 1542 
L 2682 1542 
z
" transform="scale(0.015625)"/>
       </defs>
       <use xlink:href="#HelveticaNeue-34"/>
      </g>
     </g>
    </g>
    <g id="xtick_3">
     <g id="line2d_3">
      <g>
       <use xlink:href="#m4ca82d173e" x="499.175433" y="461.67874" style="fill: #0d7685; stroke: #0d7685"/>
      </g>
     </g>
     <g id="text_3">
      <!-- 6 -->
      <g style="fill: #f3f6f0" transform="translate(491.948246 487.744365)scale(0.26 -0.26)">
       <defs>
        <path id="HelveticaNeue-36" d="M 2650 3379 
L 3194 3379 
Q 3142 3942 2809 4240 
Q 2477 4538 1914 4538 
Q 1427 4538 1107 4333 
Q 787 4128 595 3789 
Q 403 3450 323 3011 
Q 243 2573 243 2106 
Q 243 1747 297 1363 
Q 352 979 518 659 
Q 685 339 992 134 
Q 1299 -70 1805 -70 
Q 2234 -70 2525 74 
Q 2816 218 2992 438 
Q 3168 659 3245 928 
Q 3322 1197 3322 1446 
Q 3322 1760 3226 2029 
Q 3130 2298 2954 2496 
Q 2778 2694 2518 2806 
Q 2259 2918 1933 2918 
Q 1562 2918 1277 2777 
Q 992 2637 800 2323 
L 787 2336 
Q 794 2598 838 2899 
Q 883 3200 1001 3459 
Q 1120 3718 1331 3888 
Q 1542 4058 1888 4058 
Q 2214 4058 2412 3872 
Q 2611 3686 2650 3379 
z
M 1830 2438 
Q 2061 2438 2233 2355 
Q 2406 2272 2521 2134 
Q 2637 1997 2691 1808 
Q 2746 1619 2746 1408 
Q 2746 1210 2685 1027 
Q 2624 845 2509 704 
Q 2394 563 2224 483 
Q 2054 403 1830 403 
Q 1606 403 1430 483 
Q 1254 563 1136 697 
Q 1018 832 954 1017 
Q 890 1203 890 1414 
Q 890 1626 950 1814 
Q 1011 2003 1132 2140 
Q 1254 2278 1427 2358 
Q 1600 2438 1830 2438 
z
" transform="scale(0.015625)"/>
       </defs>
       <use xlink:href="#HelveticaNeue-36"/>
      </g>
     </g>
    </g>
    <g id="xtick_4">
     <g id="line2d_4">
      <g>
       <use xlink:href="#m4ca82d173e" x="637.143307" y="461.67874" style="fill: #0d7685; stroke: #0d7685"/>
      </g>
     </g>
     <g id="text_4">
      <!-- 8 -->
      <g style="fill: #f3f6f0" transform="translate(629.91612 487.744365)scale(0.26 -0.26)">
       <defs>
        <path id="HelveticaNeue-38" d="M 992 3360 
Q 992 3533 1056 3661 
Q 1120 3789 1225 3878 
Q 1331 3968 1478 4013 
Q 1626 4058 1786 4058 
Q 2118 4058 2332 3882 
Q 2547 3706 2547 3360 
Q 2547 3014 2336 2822 
Q 2125 2630 1798 2630 
Q 1632 2630 1485 2675 
Q 1338 2720 1229 2809 
Q 1120 2899 1056 3036 
Q 992 3174 992 3360 
z
M 416 3379 
Q 416 3072 589 2813 
Q 762 2554 1050 2438 
Q 666 2304 461 2006 
Q 256 1709 256 1306 
Q 256 960 374 701 
Q 493 442 701 269 
Q 909 96 1190 13 
Q 1472 -70 1798 -70 
Q 2112 -70 2387 19 
Q 2662 109 2864 285 
Q 3066 461 3184 717 
Q 3302 973 3302 1306 
Q 3302 1728 3104 2019 
Q 2906 2310 2496 2438 
Q 2784 2566 2953 2819 
Q 3123 3072 3123 3379 
Q 3123 3597 3046 3805 
Q 2970 4013 2806 4176 
Q 2643 4339 2380 4438 
Q 2118 4538 1747 4538 
Q 1485 4538 1245 4461 
Q 1005 4384 819 4237 
Q 634 4090 525 3875 
Q 416 3661 416 3379 
z
M 832 1280 
Q 832 1478 905 1638 
Q 979 1798 1110 1913 
Q 1242 2029 1418 2089 
Q 1594 2150 1792 2150 
Q 1984 2150 2153 2083 
Q 2323 2016 2451 1901 
Q 2579 1786 2652 1629 
Q 2726 1472 2726 1286 
Q 2726 1094 2659 934 
Q 2592 774 2467 656 
Q 2342 538 2172 470 
Q 2003 403 1798 403 
Q 1376 403 1104 636 
Q 832 870 832 1280 
z
" transform="scale(0.015625)"/>
       </defs>
       <use xlink:href="#HelveticaNeue-38"/>
      </g>
     </g>
    </g>
    <g id="text_5">
     <!-- Mass $[M_{\odot}$] -->
     <g style="fill: #f3f6f0" transform="translate(315.793543 516.627178)scale(0.26 -0.26)">
      <defs>
       <path id="HelveticaNeue-4d" d="M 512 4570 
L 512 0 
L 1088 0 
L 1088 3802 
L 1101 3802 
L 2528 0 
L 3046 0 
L 4474 3802 
L 4486 3802 
L 4486 0 
L 5062 0 
L 5062 4570 
L 4230 4570 
L 2784 730 
L 1344 4570 
L 512 4570 
z
" transform="scale(0.015625)"/>
       <path id="HelveticaNeue-61" d="M 3341 13 
Q 3200 -70 2950 -70 
Q 2739 -70 2614 48 
Q 2490 166 2490 435 
Q 2266 166 1968 48 
Q 1670 -70 1325 -70 
Q 1101 -70 899 -19 
Q 698 32 550 141 
Q 403 250 316 426 
Q 230 602 230 851 
Q 230 1133 326 1312 
Q 422 1491 579 1603 
Q 736 1715 937 1772 
Q 1139 1830 1350 1869 
Q 1574 1914 1776 1936 
Q 1978 1958 2131 2000 
Q 2285 2042 2374 2122 
Q 2464 2202 2464 2355 
Q 2464 2534 2397 2643 
Q 2330 2752 2224 2809 
Q 2118 2867 1987 2886 
Q 1856 2906 1728 2906 
Q 1382 2906 1152 2774 
Q 922 2643 902 2278 
L 358 2278 
Q 371 2586 486 2797 
Q 602 3008 794 3139 
Q 986 3270 1232 3328 
Q 1478 3386 1760 3386 
Q 1984 3386 2205 3354 
Q 2426 3322 2605 3222 
Q 2784 3123 2893 2944 
Q 3002 2765 3002 2477 
L 3002 774 
Q 3002 582 3024 492 
Q 3046 403 3174 403 
Q 3245 403 3341 435 
L 3341 13 
z
M 2458 1709 
Q 2355 1632 2188 1597 
Q 2022 1562 1840 1539 
Q 1658 1517 1472 1488 
Q 1286 1459 1139 1395 
Q 992 1331 899 1212 
Q 806 1094 806 890 
Q 806 755 860 662 
Q 915 570 1001 512 
Q 1088 454 1203 428 
Q 1318 403 1446 403 
Q 1715 403 1907 476 
Q 2099 550 2220 662 
Q 2342 774 2400 905 
Q 2458 1037 2458 1152 
L 2458 1709 
z
" transform="scale(0.015625)"/>
       <path id="HelveticaNeue-73" d="M 742 1043 
L 198 1043 
Q 211 736 326 521 
Q 442 307 634 176 
Q 826 45 1075 -12 
Q 1325 -70 1600 -70 
Q 1850 -70 2102 -22 
Q 2355 26 2556 147 
Q 2758 269 2883 467 
Q 3008 666 3008 966 
Q 3008 1203 2915 1363 
Q 2822 1523 2672 1628 
Q 2522 1734 2326 1798 
Q 2131 1862 1926 1907 
Q 1734 1952 1542 1993 
Q 1350 2035 1196 2096 
Q 1043 2157 944 2249 
Q 845 2342 845 2483 
Q 845 2611 909 2691 
Q 973 2771 1075 2819 
Q 1178 2867 1302 2886 
Q 1427 2906 1549 2906 
Q 1683 2906 1814 2877 
Q 1946 2848 2054 2784 
Q 2163 2720 2233 2614 
Q 2304 2509 2317 2349 
L 2861 2349 
Q 2842 2650 2733 2851 
Q 2624 3053 2441 3171 
Q 2259 3290 2022 3338 
Q 1786 3386 1504 3386 
Q 1286 3386 1065 3331 
Q 845 3277 669 3165 
Q 493 3053 381 2873 
Q 269 2694 269 2445 
Q 269 2125 429 1945 
Q 589 1766 829 1667 
Q 1069 1568 1350 1513 
Q 1632 1459 1872 1392 
Q 2112 1325 2272 1216 
Q 2432 1107 2432 896 
Q 2432 742 2355 643 
Q 2278 544 2160 493 
Q 2042 442 1901 422 
Q 1760 403 1632 403 
Q 1466 403 1309 435 
Q 1152 467 1027 540 
Q 902 614 825 739 
Q 749 864 742 1043 
z
" transform="scale(0.015625)"/>
       <path id="HelveticaNeue-20" transform="scale(0.015625)"/>
       <path id="DejaVuSans-5b" d="M 550 4863 
L 1875 4863 
L 1875 4416 
L 1125 4416 
L 1125 -397 
L 1875 -397 
L 1875 -844 
L 550 -844 
L 550 4863 
z
" transform="scale(0.015625)"/>
       <path id="DejaVuSans-Oblique-4d" d="M 1081 4666 
L 2028 4666 
L 2572 1522 
L 4378 4666 
L 5350 4666 
L 4441 0 
L 3828 0 
L 4622 4091 
L 2791 897 
L 2175 897 
L 1581 4103 
L 788 0 
L 172 0 
L 1081 4666 
z
" transform="scale(0.015625)"/>
       <path id="DejaVuSans-2299" d="M 2350 2403 
L 3013 2403 
L 3013 1609 
L 2350 1609 
L 2350 2403 
z
M 3306 3522 
Q 3016 3644 2681 3644 
Q 2347 3644 2056 3522 
Q 1769 3400 1531 3163 
Q 1291 2922 1172 2634 
Q 1053 2347 1053 2006 
Q 1053 1675 1172 1387 
Q 1291 1100 1531 859 
Q 1769 622 2056 500 
Q 2347 378 2681 378 
Q 3016 378 3306 500 
Q 3594 622 3831 859 
Q 4072 1100 4190 1387 
Q 4309 1675 4309 2006 
Q 4309 2347 4190 2634 
Q 4072 2922 3831 3163 
Q 3594 3400 3306 3522 
z
M 1878 3956 
Q 2250 4113 2681 4113 
Q 3113 4113 3484 3956 
Q 3856 3800 4163 3494 
Q 4472 3184 4625 2813 
Q 4778 2444 4778 2006 
Q 4778 1578 4625 1206 
Q 4472 838 4163 528 
Q 3856 222 3484 65 
Q 3113 -91 2681 -91 
Q 2250 -91 1878 65 
Q 1506 222 1200 528 
Q 891 838 738 1206 
Q 584 1578 584 2006 
Q 584 2444 738 2813 
Q 891 3184 1200 3494 
Q 1506 3800 1878 3956 
z
" transform="scale(0.015625)"/>
       <path id="HelveticaNeue-5d" d="M 0 -826 
L 0 -1261 
L 1197 -1261 
L 1197 4678 
L 0 4678 
L 0 4243 
L 685 4243 
L 685 -826 
L 0 -826 
z
" transform="scale(0.015625)"/>
      </defs>
      <use xlink:href="#HelveticaNeue-4d" transform="translate(0 0.015625)"/>
      <use xlink:href="#HelveticaNeue-61" transform="translate(87.099991 0.015625)"/>
      <use xlink:href="#HelveticaNeue-73" transform="translate(140.799988 0.015625)"/>
      <use xlink:href="#HelveticaNeue-73" transform="translate(190.799973 0.015625)"/>
      <use xlink:href="#HelveticaNeue-20" transform="translate(240.799957 0.015625)"/>
      <use xlink:href="#DejaVuSans-5b" transform="translate(268.599945 0.015625)"/>
      <use xlink:href="#DejaVuSans-Oblique-4d" transform="translate(307.613617 0.015625)"/>
      <use xlink:href="#DejaVuSans-2299" transform="translate(393.892914 -16.390625)scale(0.7)"/>
      <use xlink:href="#HelveticaNeue-5d" transform="translate(455.279633 0.015625)"/>
     </g>
    </g>
   </g>
   <g id="matplotlib.axis_2">
    <g id="ytick_1">
     <g id="line2d_5">
      <defs>
       <path id="me1aeecb854" d="M 0 0 
L -4 0 
" style="stroke: #0d7685"/>
      </defs>
      <g>
       <use xlink:href="#me1aeecb854" x="119.76378" y="369.774223" style="fill: #0d7685; stroke: #0d7685"/>
      </g>
     </g>
     <g id="text_6">
      <!-- 1 -->
      <g style="fill: #f3f6f0" transform="translate(97.809405 379.057036)scale(0.26 -0.26)">
       <defs>
        <path id="HelveticaNeue-31" d="M 2278 0 
L 2278 4538 
L 1862 4538 
Q 1818 4282 1696 4115 
Q 1574 3949 1398 3853 
Q 1222 3757 1004 3721 
Q 787 3686 557 3686 
L 557 3251 
L 1734 3251 
L 1734 0 
L 2278 0 
z
" transform="scale(0.015625)"/>
       </defs>
       <use xlink:href="#HelveticaNeue-31"/>
      </g>
     </g>
    </g>
    <g id="ytick_2">
     <g id="line2d_6">
      <g>
       <use xlink:href="#me1aeecb854" x="119.76378" y="267.265755" style="fill: #0d7685; stroke: #0d7685"/>
      </g>
     </g>
     <g id="text_7">
      <!-- 2 -->
      <g style="fill: #f3f6f0" transform="translate(97.809405 276.548568)scale(0.26 -0.26)">
       <use xlink:href="#HelveticaNeue-32"/>
      </g>
     </g>
    </g>
    <g id="ytick_3">
     <g id="line2d_7">
      <g>
       <use xlink:href="#me1aeecb854" x="119.76378" y="164.757287" style="fill: #0d7685; stroke: #0d7685"/>
      </g>
     </g>
     <g id="text_8">
      <!-- 3 -->
      <g style="fill: #f3f6f0" transform="translate(97.809405 174.040099)scale(0.26 -0.26)">
       <defs>
        <path id="HelveticaNeue-33" d="M 1395 2592 
L 1395 2131 
Q 1549 2150 1722 2150 
Q 1926 2150 2102 2096 
Q 2278 2042 2406 1930 
Q 2534 1818 2611 1654 
Q 2688 1491 2688 1280 
Q 2688 1075 2608 912 
Q 2528 749 2393 637 
Q 2259 525 2080 464 
Q 1901 403 1702 403 
Q 1235 403 992 681 
Q 749 960 736 1402 
L 192 1402 
Q 186 1050 291 774 
Q 397 499 595 310 
Q 794 122 1075 26 
Q 1357 -70 1702 -70 
Q 2022 -70 2307 16 
Q 2592 102 2803 275 
Q 3014 448 3139 707 
Q 3264 966 3264 1306 
Q 3264 1715 3062 2016 
Q 2861 2317 2445 2406 
L 2445 2419 
Q 2714 2541 2893 2777 
Q 3072 3014 3072 3322 
Q 3072 3635 2966 3865 
Q 2861 4096 2675 4243 
Q 2490 4390 2237 4464 
Q 1984 4538 1690 4538 
Q 1350 4538 1091 4429 
Q 832 4320 659 4128 
Q 486 3936 393 3667 
Q 301 3398 288 3072 
L 832 3072 
Q 832 3270 883 3449 
Q 934 3629 1040 3763 
Q 1146 3898 1309 3978 
Q 1472 4058 1690 4058 
Q 2035 4058 2265 3875 
Q 2496 3693 2496 3328 
Q 2496 3149 2425 3008 
Q 2355 2867 2236 2774 
Q 2118 2682 1961 2634 
Q 1805 2586 1632 2586 
L 1517 2586 
Q 1485 2586 1453 2586 
Q 1427 2586 1395 2592 
z
" transform="scale(0.015625)"/>
       </defs>
       <use xlink:href="#HelveticaNeue-33"/>
      </g>
     </g>
    </g>
    <g id="ytick_4">
     <g id="line2d_8">
      <g>
       <use xlink:href="#me1aeecb854" x="119.76378" y="62.248819" style="fill: #0d7685; stroke: #0d7685"/>
      </g>
     </g>
     <g id="text_9">
      <!-- 4 -->
      <g style="fill: #f3f6f0" transform="translate(97.809405 71.531631)scale(0.26 -0.26)">
       <use xlink:href="#HelveticaNeue-34"/>
      </g>
     </g>
    </g>
    <g id="text_10">
     <!-- Radius [AU] -->
     <g style="fill: #f3f6f0" transform="translate(88.686592 330.331592)rotate(-90)scale(0.26 -0.26)">
      <defs>
       <path id="HelveticaNeue-52" d="M 499 4570 
L 499 0 
L 1107 0 
L 1107 1952 
L 2592 1952 
Q 2816 1952 2950 1885 
Q 3085 1818 3168 1706 
Q 3251 1594 3289 1443 
Q 3328 1293 3354 1126 
Q 3386 960 3392 787 
Q 3398 614 3404 464 
Q 3411 314 3433 192 
Q 3456 70 3520 0 
L 4198 0 
Q 4102 115 4054 265 
Q 4006 416 3980 582 
Q 3955 749 3948 921 
Q 3942 1094 3930 1261 
Q 3910 1427 3875 1580 
Q 3840 1734 3766 1859 
Q 3693 1984 3568 2073 
Q 3443 2163 3245 2202 
L 3245 2214 
Q 3661 2330 3849 2643 
Q 4038 2957 4038 3373 
Q 4038 3930 3670 4250 
Q 3302 4570 2650 4570 
L 499 4570 
z
M 2374 2464 
L 1107 2464 
L 1107 4058 
L 2618 4058 
Q 3046 4058 3238 3840 
Q 3430 3622 3430 3277 
Q 3430 3027 3344 2870 
Q 3258 2714 3114 2621 
Q 2970 2528 2778 2496 
Q 2586 2464 2374 2464 
z
" transform="scale(0.015625)"/>
       <path id="HelveticaNeue-64" d="M 806 1626 
Q 806 1869 857 2099 
Q 909 2330 1024 2509 
Q 1139 2688 1331 2797 
Q 1523 2906 1798 2906 
Q 2080 2906 2278 2800 
Q 2477 2694 2601 2521 
Q 2726 2349 2784 2121 
Q 2842 1894 2842 1651 
Q 2842 1421 2787 1197 
Q 2733 973 2611 797 
Q 2490 621 2298 512 
Q 2106 403 1830 403 
Q 1568 403 1373 505 
Q 1178 608 1053 781 
Q 928 954 867 1174 
Q 806 1395 806 1626 
z
M 3366 0 
L 3366 4570 
L 2822 4570 
L 2822 2867 
L 2810 2867 
Q 2720 3014 2589 3113 
Q 2458 3213 2310 3273 
Q 2163 3334 2016 3360 
Q 1869 3386 1741 3386 
Q 1363 3386 1078 3248 
Q 794 3110 605 2876 
Q 416 2643 323 2329 
Q 230 2016 230 1664 
Q 230 1312 326 998 
Q 422 685 611 448 
Q 800 211 1085 70 
Q 1370 -70 1754 -70 
Q 2099 -70 2387 51 
Q 2675 173 2810 448 
L 2822 448 
L 2822 0 
L 3366 0 
z
" transform="scale(0.015625)"/>
       <path id="HelveticaNeue-69" d="M 986 3904 
L 986 4570 
L 442 4570 
L 442 3904 
L 986 3904 
z
M 442 3309 
L 442 0 
L 986 0 
L 986 3309 
L 442 3309 
z
" transform="scale(0.015625)"/>
       <path id="HelveticaNeue-75" d="M 3149 0 
L 3149 3309 
L 2605 3309 
L 2605 1440 
Q 2605 1216 2544 1027 
Q 2483 838 2361 697 
Q 2240 557 2057 480 
Q 1875 403 1626 403 
Q 1312 403 1133 582 
Q 954 762 954 1069 
L 954 3309 
L 410 3309 
L 410 1133 
Q 410 864 464 643 
Q 518 422 652 262 
Q 787 102 1004 16 
Q 1222 -70 1549 -70 
Q 1914 -70 2182 74 
Q 2451 218 2624 525 
L 2637 525 
L 2637 0 
L 3149 0 
z
" transform="scale(0.015625)"/>
       <path id="HelveticaNeue-5b" d="M 1658 4243 
L 1658 4678 
L 461 4678 
L 461 -1261 
L 1658 -1261 
L 1658 -826 
L 973 -826 
L 973 4243 
L 1658 4243 
z
" transform="scale(0.015625)"/>
       <path id="HelveticaNeue-41" d="M 1286 1888 
L 2061 4019 
L 2074 4019 
L 2835 1888 
L 1286 1888 
z
M 1741 4570 
L -38 0 
L 582 0 
L 1094 1376 
L 3027 1376 
L 3526 0 
L 4198 0 
L 2413 4570 
L 1741 4570 
z
" transform="scale(0.015625)"/>
       <path id="HelveticaNeue-55" d="M 4147 1651 
L 4147 4570 
L 3539 4570 
L 3539 1651 
Q 3539 1037 3235 720 
Q 2931 403 2349 403 
Q 1734 403 1408 720 
Q 1082 1037 1082 1651 
L 1082 4570 
L 474 4570 
L 474 1651 
Q 474 736 970 317 
Q 1466 -102 2349 -102 
Q 3213 -102 3680 336 
Q 4147 774 4147 1651 
z
" transform="scale(0.015625)"/>
      </defs>
      <use xlink:href="#HelveticaNeue-52"/>
      <use xlink:href="#HelveticaNeue-61" x="68.499985"/>
      <use xlink:href="#HelveticaNeue-64" x="122.199982"/>
      <use xlink:href="#HelveticaNeue-69" x="181.499969"/>
      <use xlink:href="#HelveticaNeue-75" x="203.699966"/>
      <use xlink:href="#HelveticaNeue-73" x="259.299957"/>
      <use xlink:href="#HelveticaNeue-20" x="309.299942"/>
      <use xlink:href="#HelveticaNeue-5b" x="337.09993"/>
      <use xlink:href="#HelveticaNeue-41" x="362.999924"/>
      <use xlink:href="#HelveticaNeue-55" x="427.799911"/>
      <use xlink:href="#HelveticaNeue-5d" x="499.999893"/>
     </g>
    </g>
   </g>
   <g id="PathCollection_21">
    <path d="M 119.76378 411.996435 
L 124.500367 407.159394 
L 146.180084 375.295772 
L 156.71946 356.141477 
L 165.73331 344.800242 
L 186.292096 314.900123 
L 193.675141 302.683488 
L 206.298995 285.944531 
L 225.951067 257.86722 
L 230.630821 250.517287 
L 245.417422 230.622111 
L 264.229948 204.255351 
L 267.586502 199.189251 
L 282.836628 178.68083 
L 300.820264 153.920093 
L 304.542182 148.496378 
L 318.474446 129.916781 
L 335.625985 106.657735 
L 341.497863 98.376462 
L 352.334775 84.110822 
L 368.648092 62.248819 
" clip-path="url(#p3013d9d5b5)" style="fill: none; stroke: #f3f6f0; stroke-width: 1.5"/>
   </g>
   <g id="patch_3">
    <path d="M 119.76378 461.67874 
L 119.76378 62.248819 
" style="fill: none; stroke: #0d7685; stroke-width: 2; stroke-linejoin: miter; stroke-linecap: square"/>
   </g>
   <g id="patch_4">
    <path d="M 637.143307 461.67874 
L 637.143307 62.248819 
" style="fill: none; stroke: #0d7685; stroke-width: 2; stroke-linejoin: miter; stroke-linecap: square"/>
   </g>
   <g id="patch_5">
    <path d="M 119.76378 461.67874 
L 637.143307 461.67874 
" style="fill: none; stroke: #0d7685; stroke-width: 2; stroke-linejoin: miter; stroke-linecap: square"/>
   </g>
   <g id="patch_6">
    <path d="M 119.76378 62.248819 
L 637.143307 62.248819 
" style="fill: none; stroke: #0d7685; stroke-width: 2; stroke-linejoin: miter; stroke-linecap: square"/>
   </g>
  </g>
  <g id="axes_2">
   <g id="patch_7">
    <path d="M 669.479528 442.658268 
L 689.451024 442.658268 
L 689.451024 62.248819 
L 669.479528 62.248819 
L 669.479528 442.658268 
z
" style="fill: none"/>
   </g>
   <g id="patch_8">
    <path clip-path="url(#pe530a01945)" style="fill: none"/>
   </g>
   <g id="patch_9">
    <path d="M 669.479528 442.658268 
L 679.465276 461.67874 
L 689.451024 442.658268 
" style="fill: #342339"/>
   </g>
   <g id="QuadMesh_1">
    <path d="M 669.479528 442.658268 
L 689.451024 442.658268 
L 689.451024 422.636718 
L 669.479528 422.636718 
L 669.479528 442.658268 
" clip-path="url(#pe530a01945)" style="fill: #3d253a"/>
    <path d="M 669.479528 422.636718 
L 689.451024 422.636718 
L 689.451024 402.615168 
L 669.479528 402.615168 
L 669.479528 422.636718 
" clip-path="url(#pe530a01945)" style="fill: #532a3c"/>
    <path d="M 669.479528 402.615168 
L 689.451024 402.615168 
L 689.451024 382.593618 
L 669.479528 382.593618 
L 669.479528 402.615168 
" clip-path="url(#pe530a01945)" style="fill: #672f3e"/>
    <path d="M 669.479528 382.593618 
L 689.451024 382.593618 
L 689.451024 362.572068 
L 669.479528 362.572068 
L 669.479528 382.593618 
" clip-path="url(#pe530a01945)" style="fill: #7d353f"/>
    <path d="M 669.479528 362.572068 
L 689.451024 362.572068 
L 689.451024 342.550518 
L 669.479528 342.550518 
L 669.479528 362.572068 
" clip-path="url(#pe530a01945)" style="fill: #973a42"/>
    <path d="M 669.479528 342.550518 
L 689.451024 342.550518 
L 689.451024 322.528968 
L 669.479528 322.528968 
L 669.479528 342.550518 
" clip-path="url(#pe530a01945)" style="fill: #b54145"/>
    <path d="M 669.479528 322.528968 
L 689.451024 322.528968 
L 689.451024 302.507418 
L 669.479528 302.507418 
L 669.479528 322.528968 
" clip-path="url(#pe530a01945)" style="fill: #d14847"/>
    <path d="M 669.479528 302.507418 
L 689.451024 302.507418 
L 689.451024 282.485868 
L 669.479528 282.485868 
L 669.479528 302.507418 
" clip-path="url(#pe530a01945)" style="fill: #f04f4a"/>
    <path d="M 669.479528 282.485868 
L 689.451024 282.485868 
L 689.451024 262.464318 
L 669.479528 262.464318 
L 669.479528 282.485868 
" clip-path="url(#pe530a01945)" style="fill: #f35943"/>
    <path d="M 669.479528 262.464318 
L 689.451024 262.464318 
L 689.451024 242.442768 
L 669.479528 242.442768 
L 669.479528 262.464318 
" clip-path="url(#pe530a01945)" style="fill: #f5653b"/>
    <path d="M 669.479528 242.442768 
L 689.451024 242.442768 
L 689.451024 222.421218 
L 669.479528 222.421218 
L 669.479528 242.442768 
" clip-path="url(#pe530a01945)" style="fill: #f77033"/>
    <path d="M 669.479528 222.421218 
L 689.451024 222.421218 
L 689.451024 202.399668 
L 669.479528 202.399668 
L 669.479528 222.421218 
" clip-path="url(#pe530a01945)" style="fill: #f87b2b"/>
    <path d="M 669.479528 202.399668 
L 689.451024 202.399668 
L 689.451024 182.378119 
L 669.479528 182.378119 
L 669.479528 202.399668 
" clip-path="url(#pe530a01945)" style="fill: #fa8921"/>
    <path d="M 669.479528 182.378119 
L 689.451024 182.378119 
L 689.451024 162.356569 
L 669.479528 162.356569 
L 669.479528 182.378119 
" clip-path="url(#pe530a01945)" style="fill: #fc9518"/>
    <path d="M 669.479528 162.356569 
L 689.451024 162.356569 
L 689.451024 142.335019 
L 669.479528 142.335019 
L 669.479528 162.356569 
" clip-path="url(#pe530a01945)" style="fill: #fea30e"/>
    <path d="M 669.479528 142.335019 
L 689.451024 142.335019 
L 689.451024 122.313469 
L 669.479528 122.313469 
L 669.479528 142.335019 
" clip-path="url(#pe530a01945)" style="fill: #feb21a"/>
    <path d="M 669.479528 122.313469 
L 689.451024 122.313469 
L 689.451024 102.291919 
L 669.479528 102.291919 
L 669.479528 122.313469 
" clip-path="url(#pe530a01945)" style="fill: #fbc65a"/>
    <path d="M 669.479528 102.291919 
L 689.451024 102.291919 
L 689.451024 82.270369 
L 669.479528 82.270369 
L 669.479528 102.291919 
" clip-path="url(#pe530a01945)" style="fill: #f8d995"/>
    <path d="M 669.479528 82.270369 
L 689.451024 82.270369 
L 689.451024 62.248819 
L 669.479528 62.248819 
L 669.479528 82.270369 
" clip-path="url(#pe530a01945)" style="fill: #f4edd5"/>
   </g>
   <g id="matplotlib.axis_3">
    <g id="ytick_5">
     <g id="line2d_9">
      <defs>
       <path id="mabb0e06e1b" d="M 0 0 
L 6 0 
"/>
      </defs>
      <g>
       <use xlink:href="#mabb0e06e1b" x="689.451024" y="82.270369" style="fill: #0d7685"/>
      </g>
     </g>
     <g id="text_11">
      <!-- −5 -->
      <g style="fill: #f3f6f0" transform="translate(698.951024 91.553181)scale(0.26 -0.26)">
       <defs>
        <path id="HelveticaNeue-2212" d="M 307 1837 
L 307 1402 
L 3533 1402 
L 3533 1837 
L 307 1837 
z
" transform="scale(0.015625)"/>
        <path id="HelveticaNeue-35" d="M 3008 3981 
L 3008 4461 
L 768 4461 
L 346 2106 
L 813 2080 
Q 973 2272 1181 2390 
Q 1389 2509 1658 2509 
Q 1888 2509 2077 2432 
Q 2266 2355 2400 2217 
Q 2534 2080 2608 1891 
Q 2682 1702 2682 1478 
Q 2682 1210 2605 1008 
Q 2528 806 2397 672 
Q 2266 538 2090 470 
Q 1914 403 1722 403 
Q 1517 403 1347 464 
Q 1178 525 1053 637 
Q 928 749 854 899 
Q 781 1050 768 1222 
L 224 1222 
Q 230 915 345 672 
Q 461 429 659 265 
Q 858 102 1117 16 
Q 1376 -70 1670 -70 
Q 2067 -70 2364 54 
Q 2662 179 2860 390 
Q 3059 602 3158 874 
Q 3258 1146 3258 1434 
Q 3258 1824 3142 2115 
Q 3027 2406 2828 2601 
Q 2630 2797 2361 2893 
Q 2093 2989 1792 2989 
Q 1562 2989 1328 2909 
Q 1094 2829 947 2662 
L 934 2675 
L 1178 3981 
L 3008 3981 
z
" transform="scale(0.015625)"/>
       </defs>
       <use xlink:href="#HelveticaNeue-2212"/>
       <use xlink:href="#HelveticaNeue-35" x="59.999985"/>
      </g>
     </g>
    </g>
    <g id="ytick_6">
     <g id="line2d_10">
      <g>
       <use xlink:href="#mabb0e06e1b" x="689.451024" y="122.313469" style="fill: #0d7685"/>
      </g>
     </g>
     <g id="text_12">
      <!-- −6 -->
      <g style="fill: #f3f6f0" transform="translate(698.951024 131.596281)scale(0.26 -0.26)">
       <use xlink:href="#HelveticaNeue-2212"/>
       <use xlink:href="#HelveticaNeue-36" x="59.999985"/>
      </g>
     </g>
    </g>
    <g id="ytick_7">
     <g id="line2d_11">
      <g>
       <use xlink:href="#mabb0e06e1b" x="689.451024" y="162.356569" style="fill: #0d7685"/>
      </g>
     </g>
     <g id="text_13">
      <!-- −7 -->
      <g style="fill: #f3f6f0" transform="translate(698.951024 171.639381)scale(0.26 -0.26)">
       <defs>
        <path id="HelveticaNeue-37" d="M 3258 3994 
L 3258 4461 
L 320 4461 
L 320 3949 
L 2701 3949 
Q 2342 3571 2032 3123 
Q 1722 2675 1485 2172 
Q 1248 1670 1097 1123 
Q 947 576 909 0 
L 1517 0 
Q 1549 531 1696 1094 
Q 1843 1658 2076 2189 
Q 2310 2720 2611 3187 
Q 2912 3654 3258 3994 
z
" transform="scale(0.015625)"/>
       </defs>
       <use xlink:href="#HelveticaNeue-2212"/>
       <use xlink:href="#HelveticaNeue-37" x="59.999985"/>
      </g>
     </g>
    </g>
    <g id="ytick_8">
     <g id="line2d_12">
      <g>
       <use xlink:href="#mabb0e06e1b" x="689.451024" y="202.399668" style="fill: #0d7685"/>
      </g>
     </g>
     <g id="text_14">
      <!-- −8 -->
      <g style="fill: #f3f6f0" transform="translate(698.951024 211.682481)scale(0.26 -0.26)">
       <use xlink:href="#HelveticaNeue-2212"/>
       <use xlink:href="#HelveticaNeue-38" x="59.999985"/>
      </g>
     </g>
    </g>
    <g id="ytick_9">
     <g id="line2d_13">
      <g>
       <use xlink:href="#mabb0e06e1b" x="689.451024" y="242.442768" style="fill: #0d7685"/>
      </g>
     </g>
     <g id="text_15">
      <!-- −9 -->
      <g style="fill: #f3f6f0" transform="translate(698.951024 251.725581)scale(0.26 -0.26)">
       <defs>
        <path id="HelveticaNeue-39" d="M 858 1094 
L 314 1094 
Q 365 506 742 218 
Q 1120 -70 1690 -70 
Q 2515 -70 2889 560 
Q 3264 1190 3264 2368 
Q 3264 3014 3139 3433 
Q 3014 3853 2803 4096 
Q 2592 4339 2310 4438 
Q 2029 4538 1709 4538 
Q 1382 4538 1107 4429 
Q 832 4320 633 4125 
Q 435 3930 326 3658 
Q 218 3386 218 3059 
Q 218 2726 310 2444 
Q 403 2163 585 1964 
Q 768 1766 1037 1654 
Q 1306 1542 1651 1542 
Q 1984 1542 2265 1712 
Q 2547 1882 2701 2170 
L 2714 2157 
Q 2688 1267 2438 835 
Q 2189 403 1690 403 
Q 1363 403 1126 582 
Q 890 762 858 1094 
z
M 2618 3021 
Q 2618 2822 2554 2640 
Q 2490 2458 2368 2320 
Q 2246 2182 2073 2102 
Q 1901 2022 1690 2022 
Q 1491 2022 1328 2102 
Q 1165 2182 1046 2316 
Q 928 2451 861 2624 
Q 794 2797 794 2982 
Q 794 3194 842 3386 
Q 890 3578 995 3728 
Q 1101 3878 1270 3968 
Q 1440 4058 1683 4058 
Q 1914 4058 2086 3974 
Q 2259 3891 2377 3747 
Q 2496 3603 2557 3417 
Q 2618 3232 2618 3021 
z
" transform="scale(0.015625)"/>
       </defs>
       <use xlink:href="#HelveticaNeue-2212"/>
       <use xlink:href="#HelveticaNeue-39" x="59.999985"/>
      </g>
     </g>
    </g>
    <g id="ytick_10">
     <g id="line2d_14">
      <g>
       <use xlink:href="#mabb0e06e1b" x="689.451024" y="282.485868" style="fill: #0d7685"/>
      </g>
     </g>
     <g id="text_16">
      <!-- −10 -->
      <g style="fill: #f3f6f0" transform="translate(698.951024 291.768681)scale(0.26 -0.26)">
       <defs>
        <path id="HelveticaNeue-30" d="M 845 2234 
Q 845 2400 848 2601 
Q 851 2803 880 3004 
Q 909 3206 963 3398 
Q 1018 3590 1123 3734 
Q 1229 3878 1389 3968 
Q 1549 4058 1779 4058 
Q 2010 4058 2170 3968 
Q 2330 3878 2435 3734 
Q 2541 3590 2595 3398 
Q 2650 3206 2678 3004 
Q 2707 2803 2710 2601 
Q 2714 2400 2714 2234 
Q 2714 1978 2698 1661 
Q 2682 1344 2595 1065 
Q 2509 787 2317 595 
Q 2125 403 1779 403 
Q 1434 403 1242 595 
Q 1050 787 963 1065 
Q 877 1344 861 1661 
Q 845 1978 845 2234 
z
M 269 2227 
Q 269 1978 281 1709 
Q 294 1440 345 1184 
Q 397 928 493 701 
Q 589 474 755 301 
Q 922 128 1174 29 
Q 1427 -70 1779 -70 
Q 2138 -70 2387 29 
Q 2637 128 2803 301 
Q 2970 474 3066 701 
Q 3162 928 3213 1184 
Q 3264 1440 3277 1709 
Q 3290 1978 3290 2227 
Q 3290 2477 3277 2745 
Q 3264 3014 3213 3270 
Q 3162 3526 3066 3756 
Q 2970 3987 2803 4160 
Q 2637 4333 2384 4435 
Q 2131 4538 1779 4538 
Q 1427 4538 1174 4435 
Q 922 4333 755 4160 
Q 589 3987 493 3756 
Q 397 3526 345 3270 
Q 294 3014 281 2745 
Q 269 2477 269 2227 
z
" transform="scale(0.015625)"/>
       </defs>
       <use xlink:href="#HelveticaNeue-2212"/>
       <use xlink:href="#HelveticaNeue-31" x="59.999985"/>
       <use xlink:href="#HelveticaNeue-30" x="115.599976"/>
      </g>
     </g>
    </g>
    <g id="ytick_11">
     <g id="line2d_15">
      <g>
       <use xlink:href="#mabb0e06e1b" x="689.451024" y="322.528968" style="fill: #0d7685"/>
      </g>
     </g>
     <g id="text_17">
      <!-- −11 -->
      <g style="fill: #f3f6f0" transform="translate(698.951024 331.811781)scale(0.26 -0.26)">
       <use xlink:href="#HelveticaNeue-2212"/>
       <use xlink:href="#HelveticaNeue-31" x="59.999985"/>
       <use xlink:href="#HelveticaNeue-31" x="115.599976"/>
      </g>
     </g>
    </g>
    <g id="ytick_12">
     <g id="line2d_16">
      <g>
       <use xlink:href="#mabb0e06e1b" x="689.451024" y="362.572068" style="fill: #0d7685"/>
      </g>
     </g>
     <g id="text_18">
      <!-- −12 -->
      <g style="fill: #f3f6f0" transform="translate(698.951024 371.85488)scale(0.26 -0.26)">
       <use xlink:href="#HelveticaNeue-2212"/>
       <use xlink:href="#HelveticaNeue-31" x="59.999985"/>
       <use xlink:href="#HelveticaNeue-32" x="115.599976"/>
      </g>
     </g>
    </g>
    <g id="ytick_13">
     <g id="line2d_17">
      <g>
       <use xlink:href="#mabb0e06e1b" x="689.451024" y="402.615168" style="fill: #0d7685"/>
      </g>
     </g>
     <g id="text_19">
      <!-- −13 -->
      <g style="fill: #f3f6f0" transform="translate(698.951024 411.89798)scale(0.26 -0.26)">
       <use xlink:href="#HelveticaNeue-2212"/>
       <use xlink:href="#HelveticaNeue-31" x="59.999985"/>
       <use xlink:href="#HelveticaNeue-33" x="115.599976"/>
      </g>
     </g>
    </g>
    <g id="ytick_14">
     <g id="line2d_18">
      <g>
       <use xlink:href="#mabb0e06e1b" x="689.451024" y="442.658268" style="fill: #0d7685"/>
      </g>
     </g>
     <g id="text_20">
      <!-- −14 -->
      <g style="fill: #f3f6f0" transform="translate(698.951024 451.94108)scale(0.26 -0.26)">
       <use xlink:href="#HelveticaNeue-2212"/>
       <use xlink:href="#HelveticaNeue-31" x="59.999985"/>
       <use xlink:href="#HelveticaNeue-34" x="115.599976"/>
      </g>
     </g>
    </g>
    <g id="text_21">
     <!-- $log(\dotM)$ $[M_{\odot}/yr]$ -->
     <g style="fill: #f3f6f0" transform="translate(775.019774 344.103543)rotate(-90)scale(0.26 -0.26)">
      <defs>
       <path id="DejaVuSans-Oblique-6c" d="M 1172 4863 
L 1747 4863 
L 800 0 
L 225 0 
L 1172 4863 
z
" transform="scale(0.015625)"/>
       <path id="DejaVuSans-Oblique-6f" d="M 1625 -91 
Q 1009 -91 651 289 
Q 294 669 294 1325 
Q 294 1706 417 2101 
Q 541 2497 738 2766 
Q 1047 3184 1428 3384 
Q 1809 3584 2291 3584 
Q 2888 3584 3255 3212 
Q 3622 2841 3622 2241 
Q 3622 1825 3500 1412 
Q 3378 1000 3181 728 
Q 2875 309 2494 109 
Q 2113 -91 1625 -91 
z
M 891 1344 
Q 891 869 1089 633 
Q 1288 397 1691 397 
Q 2269 397 2648 901 
Q 3028 1406 3028 2181 
Q 3028 2634 2825 2865 
Q 2622 3097 2228 3097 
Q 1903 3097 1650 2945 
Q 1397 2794 1197 2484 
Q 1050 2253 970 1956 
Q 891 1659 891 1344 
z
" transform="scale(0.015625)"/>
       <path id="DejaVuSans-Oblique-67" d="M 3816 3500 
L 3219 434 
Q 3047 -456 2561 -893 
Q 2075 -1331 1253 -1331 
Q 950 -1331 690 -1286 
Q 431 -1241 206 -1147 
L 313 -588 
Q 525 -725 762 -790 
Q 1000 -856 1269 -856 
Q 1816 -856 2167 -557 
Q 2519 -259 2631 300 
L 2681 563 
Q 2441 288 2122 144 
Q 1803 0 1434 0 
Q 903 0 598 351 
Q 294 703 294 1319 
Q 294 1803 478 2267 
Q 663 2731 997 3091 
Q 1219 3328 1514 3456 
Q 1809 3584 2131 3584 
Q 2484 3584 2746 3420 
Q 3009 3256 3138 2956 
L 3238 3500 
L 3816 3500 
z
M 2950 2216 
Q 2950 2641 2750 2872 
Q 2550 3103 2181 3103 
Q 1953 3103 1747 3012 
Q 1541 2922 1394 2759 
Q 1156 2491 1023 2127 
Q 891 1763 891 1375 
Q 891 944 1092 712 
Q 1294 481 1672 481 
Q 2219 481 2584 976 
Q 2950 1472 2950 2216 
z
" transform="scale(0.015625)"/>
       <path id="DejaVuSans-28" d="M 1984 4856 
Q 1566 4138 1362 3434 
Q 1159 2731 1159 2009 
Q 1159 1288 1364 580 
Q 1569 -128 1984 -844 
L 1484 -844 
Q 1016 -109 783 600 
Q 550 1309 550 2009 
Q 550 2706 781 3412 
Q 1013 4119 1484 4856 
L 1984 4856 
z
" transform="scale(0.015625)"/>
       <path id="DejaVuSans-307" d="M -1894 4863 
L -1319 4863 
L -1319 4134 
L -1894 4134 
L -1894 4863 
z
M -1600 3584 
L -1600 3584 
z
" transform="scale(0.015625)"/>
       <path id="DejaVuSans-29" d="M 513 4856 
L 1013 4856 
Q 1481 4119 1714 3412 
Q 1947 2706 1947 2009 
Q 1947 1309 1714 600 
Q 1481 -109 1013 -844 
L 513 -844 
Q 928 -128 1133 580 
Q 1338 1288 1338 2009 
Q 1338 2731 1133 3434 
Q 928 4138 513 4856 
z
" transform="scale(0.015625)"/>
       <path id="DejaVuSans-2f" d="M 1625 4666 
L 2156 4666 
L 531 -594 
L 0 -594 
L 1625 4666 
z
" transform="scale(0.015625)"/>
       <path id="DejaVuSans-Oblique-79" d="M 1588 -325 
Q 1188 -997 936 -1164 
Q 684 -1331 294 -1331 
L -159 -1331 
L -63 -850 
L 269 -850 
Q 509 -850 678 -719 
Q 847 -588 1056 -206 
L 1234 128 
L 459 3500 
L 1069 3500 
L 1650 819 
L 3256 3500 
L 3859 3500 
L 1588 -325 
z
" transform="scale(0.015625)"/>
       <path id="DejaVuSans-Oblique-72" d="M 2853 2969 
Q 2766 3016 2653 3041 
Q 2541 3066 2413 3066 
Q 1953 3066 1609 2717 
Q 1266 2369 1153 1784 
L 800 0 
L 225 0 
L 909 3500 
L 1484 3500 
L 1375 2956 
Q 1603 3259 1920 3421 
Q 2238 3584 2597 3584 
Q 2691 3584 2781 3573 
Q 2872 3563 2963 3538 
L 2853 2969 
z
" transform="scale(0.015625)"/>
       <path id="DejaVuSans-5d" d="M 1947 4863 
L 1947 -844 
L 622 -844 
L 622 -397 
L 1369 -397 
L 1369 4416 
L 622 4416 
L 622 4863 
L 1947 4863 
z
" transform="scale(0.015625)"/>
      </defs>
      <use xlink:href="#DejaVuSans-Oblique-6c" transform="translate(0 0.609375)"/>
      <use xlink:href="#DejaVuSans-Oblique-6f" transform="translate(27.783203 0.609375)"/>
      <use xlink:href="#DejaVuSans-Oblique-67" transform="translate(88.964844 0.609375)"/>
      <use xlink:href="#DejaVuSans-28" transform="translate(152.441406 0.609375)"/>
      <use xlink:href="#DejaVuSans-307" transform="translate(267.275391 30.015625)"/>
      <use xlink:href="#DejaVuSans-Oblique-4d" transform="translate(191.455078 0.609375)"/>
      <use xlink:href="#DejaVuSans-29" transform="translate(277.734375 0.609375)"/>
      <use xlink:href="#HelveticaNeue-20" transform="translate(316.748047 0.609375)"/>
      <use xlink:href="#DejaVuSans-5b" transform="translate(344.548035 0.609375)"/>
      <use xlink:href="#DejaVuSans-Oblique-4d" transform="translate(383.561707 0.609375)"/>
      <use xlink:href="#DejaVuSans-2299" transform="translate(469.841003 -15.796875)scale(0.7)"/>
      <use xlink:href="#DejaVuSans-2f" transform="translate(531.227722 0.609375)"/>
      <use xlink:href="#DejaVuSans-Oblique-79" transform="translate(564.919128 0.609375)"/>
      <use xlink:href="#DejaVuSans-Oblique-72" transform="translate(624.098816 0.609375)"/>
      <use xlink:href="#DejaVuSans-5d" transform="translate(665.212097 0.609375)"/>
     </g>
    </g>
   </g>
   <g id="LineCollection_1"/>
   <g id="patch_10">
    <path d="M 669.479528 442.658268 
L 679.465276 461.67874 
L 689.451024 442.658268 
L 689.451024 62.248819 
L 679.465276 62.248819 
L 669.479528 62.248819 
L 669.479528 442.658268 
z
" style="fill: none"/>
   </g>
  </g>
 </g>
 <defs>
  <clipPath id="p3013d9d5b5">
   <rect x="119.76378" y="62.248819" width="517.379528" height="399.429921"/>
  </clipPath>
  <clipPath id="pe530a01945">
   <rect x="669.479528" y="62.248819" width="19.971496" height="380.409449"/>
  </clipPath>
 </defs>
</svg>
