<?xml version="1.0" encoding="utf-8" standalone="no"?>
<!DOCTYPE svg PUBLIC "-//W3C//DTD SVG 1.1//EN"
  "http://www.w3.org/Graphics/SVG/1.1/DTD/svg11.dtd">
<svg xmlns:xlink="http://www.w3.org/1999/xlink" width="725.197557pt" height="483.261171pt" viewBox="0 0 725.197557 483.261171" xmlns="http://www.w3.org/2000/svg" version="1.1">
 <metadata>
  <rdf:RDF xmlns:dc="http://purl.org/dc/elements/1.1/" xmlns:cc="http://creativecommons.org/ns#" xmlns:rdf="http://www.w3.org/1999/02/22-rdf-syntax-ns#">
   <cc:Work>
    <dc:type rdf:resource="http://purl.org/dc/dcmitype/StillImage"/>
    <dc:date>2023-03-22T17:25:08.944236</dc:date>
    <dc:format>image/svg+xml</dc:format>
    <dc:creator>
     <cc:Agent>
      <dc:title>Matplotlib v3.5.2, https://matplotlib.org/</dc:title>
     </cc:Agent>
    </dc:creator>
   </cc:Work>
  </rdf:RDF>
 </metadata>
 <defs>
  <style type="text/css">*{stroke-linejoin: round; stroke-linecap: butt}</style>
 </defs>
 <g id="figure_1">
  <g id="patch_1">
   <path d="M -0 483.261171 
L 725.197557 483.261171 
L 725.197557 0 
L -0 0 
L -0 483.261171 
z
" style="fill: none"/>
  </g>
  <g id="axes_1">
   <g id="patch_2">
    <path d="M 57.281563 415.912734 
L 574.66109 415.912734 
L 574.66109 16.482812 
L 57.281563 16.482812 
L 57.281563 415.912734 
z
" style="fill: none"/>
   </g>
   <g id="PathCollection_1">
    <path d="M 94.237243 404.089706 
L 110.448824 399.567391 
L 94.237243 404.551358 
L 57.281563 415.912734 
L 57.281563 414.112688 
z
" clip-path="url(#p2b21ef8275)" style="fill: #342339"/>
   </g>
   <g id="PathCollection_2">
    <path d="M 94.237243 401.668054 
L 131.192924 390.980613 
L 168.148604 380.301301 
L 205.104285 369.668047 
L 242.059965 359.087096 
L 242.981552 358.822528 
L 242.059965 359.105853 
L 205.104285 370.467229 
L 168.148604 381.828605 
L 131.192924 393.189982 
L 110.448824 399.567391 
L 94.237243 404.089706 
L 57.281563 414.112688 
L 57.281563 412.170928 
z
" clip-path="url(#p2b21ef8275)" style="fill: #3d253a"/>
   </g>
   <g id="PathCollection_3">
    <path d="M 94.237243 399.246402 
L 131.192924 388.058426 
L 168.148604 376.870515 
L 205.104285 365.725486 
L 242.059965 354.630422 
L 279.015646 343.591831 
L 315.971326 332.604537 
L 352.927007 321.660167 
L 389.882687 310.762038 
L 426.838368 299.904765 
L 463.794048 289.083972 
L 500.749729 278.298822 
L 537.70541 267.548858 
L 574.66109 256.834072 
L 574.66109 256.853468 
L 537.70541 268.214844 
L 500.749729 279.57622 
L 463.794048 290.937597 
L 426.838368 302.298973 
L 389.882687 313.660349 
L 352.927007 325.021725 
L 315.971326 336.383101 
L 279.015646 347.744477 
L 242.981552 358.822528 
L 242.059965 359.087096 
L 205.104285 369.668047 
L 168.148604 380.301301 
L 131.192924 390.980613 
L 94.237243 401.668054 
L 57.281563 412.170928 
L 57.281563 410.229168 
z
" clip-path="url(#p2b21ef8275)" style="fill: #532a3c"/>
   </g>
   <g id="PathCollection_4">
    <path d="M 94.237243 396.82475 
L 131.192924 385.136238 
L 168.148604 373.439728 
L 205.104285 361.782926 
L 242.059965 350.173748 
L 279.015646 338.621198 
L 315.971326 327.119398 
L 352.927007 315.654217 
L 389.882687 304.241144 
L 426.838368 292.87418 
L 463.794048 281.545145 
L 500.749729 270.25424 
L 537.70541 258.999825 
L 574.66109 247.778608 
L 574.66109 256.834072 
L 537.70541 267.548858 
L 500.749729 278.298822 
L 463.794048 289.083972 
L 426.838368 299.904765 
L 389.882687 310.762038 
L 352.927007 321.660167 
L 315.971326 332.604537 
L 279.015646 343.591831 
L 242.059965 354.630422 
L 205.104285 365.725486 
L 168.148604 376.870515 
L 131.192924 388.058426 
L 94.237243 399.246402 
L 57.281563 410.229168 
L 57.281563 408.287408 
z
" clip-path="url(#p2b21ef8275)" style="fill: #672f3e"/>
   </g>
   <g id="PathCollection_5">
    <path d="M 94.237243 394.403099 
L 131.192924 382.21405 
L 168.148604 370.008942 
L 205.104285 357.840366 
L 242.059965 345.717075 
L 279.015646 333.650566 
L 315.971326 321.63426 
L 352.927007 309.648267 
L 389.882687 297.720251 
L 426.838368 285.843596 
L 463.794048 274.006318 
L 500.749729 262.209658 
L 506.577805 260.364369 
L 537.70541 250.228077 
L 574.66109 238.29634 
L 574.66109 240.828758 
L 574.66109 247.778608 
L 537.70541 258.999825 
L 500.749729 270.25424 
L 463.794048 281.545145 
L 426.838368 292.87418 
L 389.882687 304.241144 
L 352.927007 315.654217 
L 315.971326 327.119398 
L 279.015646 338.621198 
L 242.059965 350.173748 
L 205.104285 361.782926 
L 168.148604 373.439728 
L 131.192924 385.136238 
L 94.237243 396.82475 
L 57.281563 408.287408 
L 57.281563 406.345648 
z
" clip-path="url(#p2b21ef8275)" style="fill: #7d353f"/>
   </g>
   <g id="PathCollection_6">
    <path d="M 94.237243 391.981447 
L 131.192924 379.291862 
L 168.148604 366.578155 
L 205.104285 353.897805 
L 242.059965 341.260401 
L 279.015646 328.679934 
L 315.971326 316.149121 
L 338.006513 308.733705 
L 352.927007 303.299273 
L 389.882687 290.231464 
L 426.838368 277.394719 
L 463.794048 264.710337 
L 500.749729 252.165513 
L 537.70541 239.739986 
L 574.66109 227.405356 
L 574.66109 238.29634 
L 537.70541 250.228077 
L 506.577805 260.364369 
L 500.749729 262.209658 
L 463.794048 274.006318 
L 426.838368 285.843596 
L 389.882687 297.720251 
L 352.927007 309.648267 
L 315.971326 321.63426 
L 279.015646 333.650566 
L 242.059965 345.717075 
L 205.104285 357.840366 
L 168.148604 370.008942 
L 131.192924 382.21405 
L 94.237243 394.403099 
L 57.281563 406.345648 
L 57.281563 404.403888 
z
" clip-path="url(#p2b21ef8275)" style="fill: #973a42"/>
   </g>
   <g id="PathCollection_7">
    <path d="M 94.237243 389.559795 
L 131.192924 376.369675 
L 168.148604 363.147369 
L 205.104285 349.955245 
L 242.059965 336.803727 
L 250.769686 333.765176 
L 279.015646 322.55056 
L 315.971326 308.469686 
L 352.927007 294.750196 
L 389.882687 281.328102 
L 426.838368 268.114037 
L 463.794048 255.025613 
L 472.181414 252.108883 
L 500.749729 241.548844 
L 537.70541 228.177501 
L 574.66109 215.010509 
L 574.66109 224.804047 
L 574.66109 227.405356 
L 537.70541 239.739986 
L 500.749729 252.165513 
L 463.794048 264.710337 
L 426.838368 277.394719 
L 389.882687 290.231464 
L 352.927007 303.299273 
L 338.006513 308.733705 
L 315.971326 316.149121 
L 279.015646 328.679934 
L 242.059965 341.260401 
L 205.104285 353.897805 
L 168.148604 366.578155 
L 131.192924 379.291862 
L 94.237243 391.981447 
L 57.281563 404.403888 
L 57.281563 402.462128 
z
" clip-path="url(#p2b21ef8275)" style="fill: #b54145"/>
   </g>
   <g id="PathCollection_8">
    <path d="M 94.237243 387.138143 
L 131.192924 373.447487 
L 168.148604 359.716582 
L 195.898732 349.509681 
L 205.104285 345.237769 
L 242.059965 329.519852 
L 279.015646 314.627857 
L 315.971326 300.244376 
L 352.927007 286.20112 
L 375.085975 277.979135 
L 389.882687 271.913157 
L 426.838368 257.324171 
L 463.794048 243.119848 
L 500.749729 229.257009 
L 519.572559 222.32814 
L 537.70541 215.189783 
L 574.66109 201.073668 
L 574.66109 208.779337 
L 574.66109 215.010509 
L 537.70541 228.177501 
L 500.749729 241.548844 
L 472.181414 252.108883 
L 463.794048 255.025613 
L 426.838368 268.114037 
L 389.882687 281.328102 
L 352.927007 294.750196 
L 315.971326 308.469686 
L 279.015646 322.55056 
L 250.769686 333.765176 
L 242.059965 336.803727 
L 205.104285 349.955245 
L 168.148604 363.147369 
L 131.192924 376.369675 
L 94.237243 389.559795 
L 57.281563 402.462128 
L 57.281563 400.520368 
z
" clip-path="url(#p2b21ef8275)" style="fill: #d14847"/>
   </g>
   <g id="PathCollection_9">
    <path d="M 94.237243 384.716491 
L 131.192924 370.525299 
L 157.354152 360.569547 
L 168.148604 354.877004 
L 205.104285 337.724374 
L 242.059965 321.84667 
L 279.015646 306.705155 
L 303.223229 297.126351 
L 315.971326 291.322033 
L 352.927007 275.419052 
L 389.882687 260.184125 
L 426.838368 245.42882 
L 428.913309 244.625417 
L 463.794048 229.914264 
L 500.749729 214.899511 
L 533.212948 202.09913 
L 537.70541 200.195866 
L 574.66109 185.07888 
L 574.66109 192.754627 
L 574.66109 201.073668 
L 537.70541 215.189783 
L 519.572559 222.32814 
L 500.749729 229.257009 
L 463.794048 243.119848 
L 426.838368 257.324171 
L 389.882687 271.913157 
L 375.085975 277.979135 
L 352.927007 286.20112 
L 315.971326 300.244376 
L 279.015646 314.627857 
L 242.059965 329.519852 
L 205.104285 345.237769 
L 195.898732 349.509681 
L 168.148604 359.716582 
L 131.192924 373.447487 
L 94.237243 387.138143 
L 57.281563 400.520368 
L 57.281563 398.578609 
z
" clip-path="url(#p2b21ef8275)" style="fill: #f04f4a"/>
   </g>
   <g id="PathCollection_10">
    <path d="M 94.237243 382.294839 
L 127.577092 369.113686 
L 131.192924 366.806904 
L 168.148604 347.372408 
L 205.104285 330.210978 
L 242.059965 314.173488 
L 247.2037 312.052277 
L 279.015646 296.533903 
L 315.971326 279.745211 
L 352.927007 263.806339 
L 355.859653 262.59267 
L 389.882687 246.866562 
L 426.838368 230.653639 
L 450.23774 220.80593 
L 463.794048 214.569034 
L 500.749729 198.330869 
L 530.603702 185.759697 
L 537.70541 182.543084 
L 574.66109 166.473432 
L 574.66109 176.729916 
L 574.66109 185.07888 
L 537.70541 200.195866 
L 533.212948 202.09913 
L 500.749729 214.899511 
L 463.794048 229.914264 
L 428.913309 244.625417 
L 426.838368 245.42882 
L 389.882687 260.184125 
L 352.927007 275.419052 
L 315.971326 291.322033 
L 303.223229 297.126351 
L 279.015646 306.705155 
L 242.059965 321.84667 
L 205.104285 337.724374 
L 168.148604 354.877004 
L 157.354152 360.569547 
L 131.192924 370.525299 
L 94.237243 384.716491 
L 57.281563 398.578609 
L 57.281563 396.636849 
z
" clip-path="url(#p2b21ef8275)" style="fill: #f35943"/>
   </g>
   <g id="PathCollection_11">
    <path d="M 94.237243 379.873187 
L 105.241319 375.522645 
L 131.192924 358.966371 
L 168.148604 339.867811 
L 202.222458 324.037145 
L 205.104285 322.325844 
L 242.059965 302.71135 
L 279.015646 284.895029 
L 295.432358 277.45452 
L 315.971326 266.700379 
L 352.927007 248.75185 
L 378.88112 236.893314 
L 389.882687 231.284199 
L 426.838368 213.507239 
L 452.745622 201.717098 
L 463.794048 196.232365 
L 500.749729 178.84046 
L 517.787111 171.196151 
L 537.70541 161.613523 
L 574.66109 144.731965 
L 574.66109 160.705206 
L 574.66109 166.473432 
L 537.70541 182.543084 
L 530.603702 185.759697 
L 500.749729 198.330869 
L 463.794048 214.569034 
L 450.23774 220.80593 
L 426.838368 230.653639 
L 389.882687 246.866562 
L 355.859653 262.59267 
L 352.927007 263.806339 
L 315.971326 279.745211 
L 279.015646 296.533903 
L 247.2037 312.052277 
L 242.059965 314.173488 
L 205.104285 330.210978 
L 168.148604 347.372408 
L 131.192924 366.806904 
L 127.577092 369.113686 
L 94.237243 382.294839 
L 57.281563 396.636849 
L 57.281563 394.695089 
z
" clip-path="url(#p2b21ef8275)" style="fill: #f5653b"/>
   </g>
   <g id="PathCollection_12">
    <path d="M 86.064201 381.025269 
L 94.237243 374.05144 
L 131.192924 351.125838 
L 164.901759 333.980927 
L 168.148604 331.766226 
L 205.104285 309.92719 
L 242.059965 290.838319 
L 243.15716 290.311394 
L 279.015646 270.014704 
L 315.971326 251.110271 
L 316.103734 251.046506 
L 352.927007 231.033779 
L 382.870737 216.038304 
L 389.882687 212.149381 
L 426.838368 192.932219 
L 443.106264 184.971741 
L 463.794048 174.001676 
L 497.164611 157.387127 
L 500.749729 155.474243 
L 537.70541 136.770919 
L 546.036847 132.762462 
L 574.66109 118.210893 
L 574.66109 128.655785 
L 574.66109 144.680496 
L 574.66109 144.731965 
L 537.70541 161.613523 
L 517.787111 171.196151 
L 500.749729 178.84046 
L 463.794048 196.232365 
L 452.745622 201.717098 
L 426.838368 213.507239 
L 389.882687 231.284199 
L 378.88112 236.893314 
L 352.927007 248.75185 
L 315.971326 266.700379 
L 295.432358 277.45452 
L 279.015646 284.895029 
L 242.059965 302.71135 
L 205.104285 322.325844 
L 202.222458 324.037145 
L 168.148604 339.867811 
L 131.192924 358.966371 
L 105.241319 375.522645 
L 94.237243 379.873187 
L 57.281563 394.695089 
L 57.281563 392.753329 
z
" clip-path="url(#p2b21ef8275)" style="fill: #f77033"/>
   </g>
   <g id="PathCollection_13">
    <path d="M 69.954417 385.647762 
L 94.237243 364.927902 
L 131.192924 343.285305 
L 132.526439 342.607055 
L 168.148604 318.308861 
L 197.869151 301.449798 
L 205.104285 296.427167 
L 242.059965 273.760886 
L 260.648212 263.54898 
L 279.015646 251.909742 
L 315.971326 230.808331 
L 319.21116 229.085651 
L 352.927007 209.106876 
L 373.74747 197.765628 
L 389.882687 188.152219 
L 423.769708 169.421248 
L 426.838368 167.594231 
L 463.794048 146.893885 
L 469.857844 143.691748 
L 500.749729 126.37422 
L 512.169385 120.315866 
L 537.70541 106.08463 
L 551.006024 99.030476 
L 574.66109 85.948329 
L 574.66109 96.606364 
L 574.66109 112.631075 
L 574.66109 118.210893 
L 546.036847 132.762462 
L 537.70541 136.770919 
L 500.749729 155.474243 
L 497.164611 157.387127 
L 463.794048 174.001676 
L 443.106264 184.971741 
L 426.838368 192.932219 
L 389.882687 212.149381 
L 382.870737 216.038304 
L 352.927007 231.033779 
L 316.103734 251.046506 
L 315.971326 251.110271 
L 279.015646 270.014704 
L 243.15716 290.311394 
L 242.059965 290.838319 
L 205.104285 309.92719 
L 168.148604 331.766226 
L 164.901759 333.980927 
L 131.192924 351.125838 
L 94.237243 374.05144 
L 86.064201 381.025269 
L 57.281563 392.753329 
L 57.281563 390.811569 
z
" clip-path="url(#p2b21ef8275)" style="fill: #f87b2b"/>
   </g>
   <g id="PathCollection_14">
    <path d="M 57.281563 389.284072 
L 57.281563 386.315914 
L 94.237243 355.804364 
L 103.663953 350.297219 
L 131.192924 327.947043 
L 156.673746 311.581642 
L 168.148604 302.502223 
L 205.104285 277.652837 
L 209.345276 275.115251 
L 242.059965 252.333654 
L 260.155986 241.189303 
L 279.015646 228.132713 
L 308.258138 209.845756 
L 315.971326 204.545423 
L 352.927007 181.300595 
L 353.550561 180.934659 
L 389.882687 157.917889 
L 396.056099 154.279973 
L 426.838368 134.9035 
L 435.612637 129.730278 
L 463.794048 112.170407 
L 472.440963 107.081626 
L 500.749729 89.754255 
L 506.947889 86.132917 
L 537.70541 67.585719 
L 539.174928 66.738863 
L 569.025035 48.763261 
L 574.66109 45.323136 
L 574.66109 48.532233 
L 574.66109 64.556944 
L 574.66109 80.581654 
L 574.66109 85.948329 
L 551.006024 99.030476 
L 537.70541 106.08463 
L 512.169385 120.315866 
L 500.749729 126.37422 
L 469.857844 143.691748 
L 463.794048 146.893885 
L 426.838368 167.594231 
L 423.769708 169.421248 
L 389.882687 188.152219 
L 373.74747 197.765628 
L 352.927007 209.106876 
L 319.21116 229.085651 
L 315.971326 230.808331 
L 279.015646 251.909742 
L 260.648212 263.54898 
L 242.059965 273.760886 
L 205.104285 296.427167 
L 197.869151 301.449798 
L 168.148604 318.308861 
L 132.526439 342.607055 
L 131.192924 343.285305 
L 94.237243 364.927902 
L 69.954417 385.647762 
L 57.281563 390.811569 
z
" clip-path="url(#p2b21ef8275)" style="fill: #fa8921"/>
   </g>
   <g id="PathCollection_15">
    <path d="M 76.149681 357.628162 
L 94.237243 339.057285 
L 117.335119 321.256819 
L 131.192924 308.457186 
L 160.311564 286.169925 
L 168.148604 279.322543 
L 203.015672 252.900495 
L 205.104285 251.14684 
L 242.059965 223.274027 
L 244.52141 221.6026 
L 279.015646 195.920958 
L 284.38674 192.275034 
L 315.971326 169.221403 
L 322.46808 164.837534 
L 352.927007 142.992839 
L 358.602371 139.200461 
L 389.882687 117.211137 
L 392.857621 115.237128 
L 425.312957 92.825511 
L 426.838368 91.735302 
L 455.840597 71.862799 
L 463.794048 66.295321 
L 484.753218 52.217646 
L 500.749729 41.301785 
L 512.138966 33.788945 
L 537.70541 16.75109 
L 538.118542 16.482812 
L 574.66109 16.482812 
L 574.66109 32.507523 
L 574.66109 45.323136 
L 569.025035 48.763261 
L 539.174928 66.738863 
L 537.70541 67.585719 
L 506.947889 86.132917 
L 500.749729 89.754255 
L 472.440963 107.081626 
L 463.794048 112.170407 
L 435.612637 129.730278 
L 426.838368 134.9035 
L 396.056099 154.279973 
L 389.882687 157.917889 
L 353.550561 180.934659 
L 352.927007 181.300595 
L 315.971326 204.545423 
L 308.258138 209.845756 
L 279.015646 228.132713 
L 260.155986 241.189303 
L 242.059965 252.333654 
L 209.345276 275.115251 
L 205.104285 277.652837 
L 168.148604 302.502223 
L 156.673746 311.581642 
L 131.192924 327.947043 
L 103.663953 350.297219 
L 94.237243 355.804364 
L 57.281563 386.315914 
L 57.281563 372.403383 
z
" clip-path="url(#p2b21ef8275)" style="fill: #fc9518"/>
   </g>
   <g id="PathCollection_16">
    <path d="M 57.281563 362.655411 
L 57.281563 354.324841 
L 80.085429 330.41823 
L 94.237243 312.9828 
L 111.318206 297.215501 
L 131.192924 276.841627 
L 145.033046 264.784323 
L 168.148604 242.925591 
L 179.204934 233.650843 
L 205.104285 210.425186 
L 213.017622 203.976999 
L 242.059965 178.983573 
L 246.071122 175.79809 
L 278.081549 149.102347 
L 279.015646 148.29087 
L 308.80676 123.850449 
L 315.971326 117.836779 
L 338.356727 99.954356 
L 352.927007 88.124664 
L 366.763919 77.339812 
L 389.882687 59.131606 
L 394.087608 55.93412 
L 420.041876 35.676521 
L 426.838368 30.325505 
L 444.812356 16.482812 
L 463.794048 16.482812 
L 500.749729 16.482812 
L 537.70541 16.482812 
L 538.118542 16.482812 
L 537.70541 16.75109 
L 512.138966 33.788945 
L 500.749729 41.301785 
L 484.753218 52.217646 
L 463.794048 66.295321 
L 455.840597 71.862799 
L 426.838368 91.735302 
L 425.312957 92.825511 
L 392.857621 115.237128 
L 389.882687 117.211137 
L 358.602371 139.200461 
L 352.927007 142.992839 
L 322.46808 164.837534 
L 315.971326 169.221403 
L 284.38674 192.275034 
L 279.015646 195.920958 
L 244.52141 221.6026 
L 242.059965 223.274027 
L 205.104285 251.14684 
L 203.015672 252.900495 
L 168.148604 279.322543 
L 160.311564 286.169925 
L 131.192924 308.457186 
L 117.335119 321.256819 
L 94.237243 339.057285 
L 76.149681 357.628162 
L 57.281563 372.403383 
z
" clip-path="url(#p2b21ef8275)" style="fill: #fea30e"/>
   </g>
   <g id="PathCollection_17">
    <path d="M 57.281563 336.02675 
L 57.281563 323.175392 
L 70.601229 306.395163 
L 90.552881 275.950304 
L 94.237243 268.582433 
L 113.701956 245.733489 
L 131.192924 223.472448 
L 138.08246 216.263667 
L 164.071577 187.562441 
L 168.148604 182.774231 
L 190.196192 159.909872 
L 205.104285 144.117718 
L 216.113233 133.349449 
L 241.847697 107.866359 
L 242.059965 107.647186 
L 266.83864 83.483867 
L 279.015646 71.621309 
L 291.284321 60.148129 
L 315.258529 37.824108 
L 315.971326 37.141278 
L 338.147677 16.482812 
L 352.927007 16.482812 
L 389.882687 16.482812 
L 426.838368 16.482812 
L 444.812356 16.482812 
L 426.838368 30.325505 
L 420.041876 35.676521 
L 394.087608 55.93412 
L 389.882687 59.131606 
L 366.763919 77.339812 
L 352.927007 88.124664 
L 338.356727 99.954356 
L 315.971326 117.836779 
L 308.80676 123.850449 
L 279.015646 148.29087 
L 278.081549 149.102347 
L 246.071122 175.79809 
L 242.059965 178.983573 
L 213.017622 203.976999 
L 205.104285 210.425186 
L 179.204934 233.650843 
L 168.148604 242.925591 
L 145.033046 264.784323 
L 131.192924 276.841627 
L 111.318206 297.215501 
L 94.237243 312.9828 
L 80.085429 330.41823 
L 57.281563 354.324841 
z
" clip-path="url(#p2b21ef8275)" style="fill: #feb21a"/>
   </g>
   <g id="PathCollection_18">
    <path d="M 57.281563 309.398088 
L 57.281563 282.769427 
L 57.281563 282.531318 
L 74.980619 252.876007 
L 87.124906 224.61887 
L 94.237243 198.555179 
L 94.989806 197.473498 
L 112.687697 169.441323 
L 127.551569 142.425026 
L 131.192924 134.822567 
L 144.858541 115.817723 
L 162.323547 89.910133 
L 168.148604 80.559216 
L 180.504653 64.689098 
L 198.893819 40.20906 
L 205.104285 31.521095 
L 217.472521 16.482812 
L 242.059965 16.482812 
L 279.015646 16.482812 
L 315.971326 16.482812 
L 338.147677 16.482812 
L 315.971326 37.141278 
L 315.258529 37.824108 
L 291.284321 60.148129 
L 279.015646 71.621309 
L 266.83864 83.483867 
L 242.059965 107.647186 
L 241.847697 107.866359 
L 216.113233 133.349449 
L 205.104285 144.117718 
L 190.196192 159.909872 
L 168.148604 182.774231 
L 164.071577 187.562441 
L 138.08246 216.263667 
L 131.192924 223.472448 
L 113.701956 245.733489 
L 94.237243 268.582433 
L 90.552881 275.950304 
L 70.601229 306.395163 
L 57.281563 323.175392 
z
" clip-path="url(#p2b21ef8275)" style="fill: #fbc65a"/>
   </g>
   <g id="PathCollection_19">
    <path d="M 57.281563 256.140765 
L 57.281563 241.638001 
L 64.414275 228.342596 
L 66.197259 221.808718 
L 94.237243 197.581467 
L 94.237243 171.710231 
L 94.237243 145.838994 
L 94.237243 119.967758 
L 94.237243 107.154401 
L 100.799542 93.693029 
L 112.147524 67.491125 
L 121.399638 41.797342 
L 128.732523 16.482812 
L 131.192924 16.482812 
L 168.148604 16.482812 
L 205.104285 16.482812 
L 217.472521 16.482812 
L 205.104285 31.521095 
L 198.893819 40.20906 
L 180.504653 64.689098 
L 168.148604 80.559216 
L 162.323547 89.910133 
L 144.858541 115.817723 
L 131.192924 134.822567 
L 127.551569 142.425026 
L 112.687697 169.441323 
L 94.989806 197.473498 
L 94.237243 198.555179 
L 87.124906 224.61887 
L 74.980619 252.876007 
L 57.281563 282.531318 
z
" clip-path="url(#p2b21ef8275)" style="fill: #f8d995"/>
   </g>
   <g id="PathCollection_20">
    <path d="M 57.281563 229.512104 
L 66.197259 221.808718 
L 64.414275 228.342596 
L 57.281563 241.638001 
z
" clip-path="url(#p2b21ef8275)" style="fill: #f4edd5"/>
    <path d="M 94.237243 94.096522 
L 94.237243 68.225285 
L 94.237243 42.354049 
L 94.237243 16.482812 
L 128.732523 16.482812 
L 121.399638 41.797342 
L 112.147524 67.491125 
L 100.799542 93.693029 
L 94.237243 107.154401 
z
" clip-path="url(#p2b21ef8275)" style="fill: #f4edd5"/>
   </g>
   <g id="PathCollection_21">
    <defs>
     <path id="m6093f1da63" d="M 0 3 
C 0.795609 3 1.55874 2.683901 2.12132 2.12132 
C 2.683901 1.55874 3 0.795609 3 0 
C 3 -0.795609 2.683901 -1.55874 2.12132 -2.12132 
C 1.55874 -2.683901 0.795609 -3 0 -3 
C -0.795609 -3 -1.55874 -2.683901 -2.12132 -2.12132 
C -2.683901 -1.55874 -3 -0.795609 -3 0 
C -3 0.795609 -2.683901 1.55874 -2.12132 2.12132 
C -1.55874 2.683901 -0.795609 3 0 3 
z
" style="stroke: #342339"/>
    </defs>
    <g clip-path="url(#p2b21ef8275)">
     <use xlink:href="#m6093f1da63" x="195.249437" y="232.548585" style="fill: #342339; stroke: #342339"/>
    </g>
   </g>
   <g id="PathCollection_22">
    <defs>
     <path id="mf6fa1558f6" d="M 0 3 
C 0.795609 3 1.55874 2.683901 2.12132 2.12132 
C 2.683901 1.55874 3 0.795609 3 0 
C 3 -0.795609 2.683901 -1.55874 2.12132 -2.12132 
C 1.55874 -2.683901 0.795609 -3 0 -3 
C -0.795609 -3 -1.55874 -2.683901 -2.12132 -2.12132 
C -2.683901 -1.55874 -3 -0.795609 -3 0 
C -3 0.795609 -2.683901 1.55874 -2.12132 2.12132 
C -1.55874 2.683901 -0.795609 3 0 3 
z
" style="stroke: #cd4747"/>
    </defs>
    <g clip-path="url(#p2b21ef8275)">
     <use xlink:href="#mf6fa1558f6" x="149.977005" y="269.425876" style="fill: #cd4747; stroke: #cd4747"/>
    </g>
   </g>
   <g id="PathCollection_23">
    <defs>
     <path id="mf907fe7255" d="M 0 3 
C 0.795609 3 1.55874 2.683901 2.12132 2.12132 
C 2.683901 1.55874 3 0.795609 3 0 
C 3 -0.795609 2.683901 -1.55874 2.12132 -2.12132 
C 1.55874 -2.683901 0.795609 -3 0 -3 
C -0.795609 -3 -1.55874 -2.683901 -2.12132 -2.12132 
C -2.683901 -1.55874 -3 -0.795609 -3 0 
C -3 0.795609 -2.683901 1.55874 -2.12132 2.12132 
C -1.55874 2.683901 -0.795609 3 0 3 
z
" style="stroke: #fa8b20"/>
    </defs>
    <g clip-path="url(#p2b21ef8275)">
     <use xlink:href="#mf907fe7255" x="195.249437" y="185.404101" style="fill: #fa8b20; stroke: #fa8b20"/>
    </g>
   </g>
   <g id="PathCollection_24">
    <defs>
     <path id="m9669914406" d="M 0 3 
C 0.795609 3 1.55874 2.683901 2.12132 2.12132 
C 2.683901 1.55874 3 0.795609 3 0 
C 3 -0.795609 2.683901 -1.55874 2.12132 -2.12132 
C 1.55874 -2.683901 0.795609 -3 0 -3 
C -0.795609 -3 -1.55874 -2.683901 -2.12132 -2.12132 
C -2.683901 -1.55874 -3 -0.795609 -3 0 
C -3 0.795609 -2.683901 1.55874 -2.12132 2.12132 
C -1.55874 2.683901 -0.795609 3 0 3 
z
" style="stroke: #f3f6f0"/>
    </defs>
    <g clip-path="url(#p2b21ef8275)">
     <use xlink:href="#m9669914406" x="78.325598" y="227.783502" style="fill: #f3f6f0; stroke: #f3f6f0"/>
    </g>
   </g>
   <g id="PathCollection_25">
    <g clip-path="url(#p2b21ef8275)">
     <use xlink:href="#m6093f1da63" x="195.249437" y="108.874158" style="fill: #342339; stroke: #342339"/>
    </g>
   </g>
   <g id="PathCollection_26">
    <g clip-path="url(#p2b21ef8275)">
     <use xlink:href="#mf6fa1558f6" x="94.20169" y="172.856104" style="fill: #cd4747; stroke: #cd4747"/>
    </g>
   </g>
   <g id="matplotlib.axis_1">
    <g id="xtick_1">
     <g id="line2d_1">
      <defs>
       <path id="m81408a6e91" d="M 0 0 
L 0 4 
" style="stroke: #0d7685"/>
      </defs>
      <g>
       <use xlink:href="#m81408a6e91" x="160.757468" y="415.912734" style="fill: #0d7685; stroke: #0d7685"/>
      </g>
     </g>
     <g id="text_1">
      <!-- 2 -->
      <g style="fill: #f3f6f0" transform="translate(153.530281 441.978359)scale(0.26 -0.26)">
       <defs>
        <path id="HelveticaNeue-32" d="M 282 2931 
L 826 2931 
Q 819 3136 867 3337 
Q 915 3539 1024 3699 
Q 1133 3859 1302 3958 
Q 1472 4058 1709 4058 
Q 1888 4058 2048 4000 
Q 2208 3942 2326 3833 
Q 2445 3725 2515 3574 
Q 2586 3424 2586 3238 
Q 2586 3002 2512 2822 
Q 2438 2643 2294 2489 
Q 2150 2336 1932 2185 
Q 1715 2035 1427 1856 
Q 1190 1715 972 1555 
Q 755 1395 582 1184 
Q 410 973 298 688 
Q 186 403 154 0 
L 3117 0 
L 3117 480 
L 787 480 
Q 826 691 950 854 
Q 1075 1018 1251 1158 
Q 1427 1299 1638 1424 
Q 1850 1549 2061 1677 
Q 2272 1811 2470 1958 
Q 2669 2106 2822 2288 
Q 2976 2470 3069 2700 
Q 3162 2931 3162 3232 
Q 3162 3552 3050 3795 
Q 2938 4038 2746 4201 
Q 2554 4365 2294 4451 
Q 2035 4538 1741 4538 
Q 1382 4538 1100 4416 
Q 819 4294 630 4080 
Q 442 3866 352 3571 
Q 262 3277 282 2931 
z
" transform="scale(0.015625)"/>
       </defs>
       <use xlink:href="#HelveticaNeue-32"/>
      </g>
     </g>
    </g>
    <g id="xtick_2">
     <g id="line2d_2">
      <g>
       <use xlink:href="#m81408a6e91" x="298.725342" y="415.912734" style="fill: #0d7685; stroke: #0d7685"/>
      </g>
     </g>
     <g id="text_2">
      <!-- 4 -->
      <g style="fill: #f3f6f0" transform="translate(291.498155 441.978359)scale(0.26 -0.26)">
       <defs>
        <path id="HelveticaNeue-34" d="M 2170 1542 
L 646 1542 
L 2157 3763 
L 2170 3763 
L 2170 1542 
z
M 2682 1542 
L 2682 4538 
L 2246 4538 
L 179 1587 
L 179 1062 
L 2170 1062 
L 2170 0 
L 2682 0 
L 2682 1062 
L 3296 1062 
L 3296 1542 
L 2682 1542 
z
" transform="scale(0.015625)"/>
       </defs>
       <use xlink:href="#HelveticaNeue-34"/>
      </g>
     </g>
    </g>
    <g id="xtick_3">
     <g id="line2d_3">
      <g>
       <use xlink:href="#m81408a6e91" x="436.693216" y="415.912734" style="fill: #0d7685; stroke: #0d7685"/>
      </g>
     </g>
     <g id="text_3">
      <!-- 6 -->
      <g style="fill: #f3f6f0" transform="translate(429.466029 441.978359)scale(0.26 -0.26)">
       <defs>
        <path id="HelveticaNeue-36" d="M 2650 3379 
L 3194 3379 
Q 3142 3942 2809 4240 
Q 2477 4538 1914 4538 
Q 1427 4538 1107 4333 
Q 787 4128 595 3789 
Q 403 3450 323 3011 
Q 243 2573 243 2106 
Q 243 1747 297 1363 
Q 352 979 518 659 
Q 685 339 992 134 
Q 1299 -70 1805 -70 
Q 2234 -70 2525 74 
Q 2816 218 2992 438 
Q 3168 659 3245 928 
Q 3322 1197 3322 1446 
Q 3322 1760 3226 2029 
Q 3130 2298 2954 2496 
Q 2778 2694 2518 2806 
Q 2259 2918 1933 2918 
Q 1562 2918 1277 2777 
Q 992 2637 800 2323 
L 787 2336 
Q 794 2598 838 2899 
Q 883 3200 1001 3459 
Q 1120 3718 1331 3888 
Q 1542 4058 1888 4058 
Q 2214 4058 2412 3872 
Q 2611 3686 2650 3379 
z
M 1830 2438 
Q 2061 2438 2233 2355 
Q 2406 2272 2521 2134 
Q 2637 1997 2691 1808 
Q 2746 1619 2746 1408 
Q 2746 1210 2685 1027 
Q 2624 845 2509 704 
Q 2394 563 2224 483 
Q 2054 403 1830 403 
Q 1606 403 1430 483 
Q 1254 563 1136 697 
Q 1018 832 954 1017 
Q 890 1203 890 1414 
Q 890 1626 950 1814 
Q 1011 2003 1132 2140 
Q 1254 2278 1427 2358 
Q 1600 2438 1830 2438 
z
" transform="scale(0.015625)"/>
       </defs>
       <use xlink:href="#HelveticaNeue-36"/>
      </g>
     </g>
    </g>
    <g id="xtick_4">
     <g id="line2d_4">
      <g>
       <use xlink:href="#m81408a6e91" x="574.66109" y="415.912734" style="fill: #0d7685; stroke: #0d7685"/>
      </g>
     </g>
     <g id="text_4">
      <!-- 8 -->
      <g style="fill: #f3f6f0" transform="translate(567.433903 441.978359)scale(0.26 -0.26)">
       <defs>
        <path id="HelveticaNeue-38" d="M 992 3360 
Q 992 3533 1056 3661 
Q 1120 3789 1225 3878 
Q 1331 3968 1478 4013 
Q 1626 4058 1786 4058 
Q 2118 4058 2332 3882 
Q 2547 3706 2547 3360 
Q 2547 3014 2336 2822 
Q 2125 2630 1798 2630 
Q 1632 2630 1485 2675 
Q 1338 2720 1229 2809 
Q 1120 2899 1056 3036 
Q 992 3174 992 3360 
z
M 416 3379 
Q 416 3072 589 2813 
Q 762 2554 1050 2438 
Q 666 2304 461 2006 
Q 256 1709 256 1306 
Q 256 960 374 701 
Q 493 442 701 269 
Q 909 96 1190 13 
Q 1472 -70 1798 -70 
Q 2112 -70 2387 19 
Q 2662 109 2864 285 
Q 3066 461 3184 717 
Q 3302 973 3302 1306 
Q 3302 1728 3104 2019 
Q 2906 2310 2496 2438 
Q 2784 2566 2953 2819 
Q 3123 3072 3123 3379 
Q 3123 3597 3046 3805 
Q 2970 4013 2806 4176 
Q 2643 4339 2380 4438 
Q 2118 4538 1747 4538 
Q 1485 4538 1245 4461 
Q 1005 4384 819 4237 
Q 634 4090 525 3875 
Q 416 3661 416 3379 
z
M 832 1280 
Q 832 1478 905 1638 
Q 979 1798 1110 1913 
Q 1242 2029 1418 2089 
Q 1594 2150 1792 2150 
Q 1984 2150 2153 2083 
Q 2323 2016 2451 1901 
Q 2579 1786 2652 1629 
Q 2726 1472 2726 1286 
Q 2726 1094 2659 934 
Q 2592 774 2467 656 
Q 2342 538 2172 470 
Q 2003 403 1798 403 
Q 1376 403 1104 636 
Q 832 870 832 1280 
z
" transform="scale(0.015625)"/>
       </defs>
       <use xlink:href="#HelveticaNeue-38"/>
      </g>
     </g>
    </g>
    <g id="text_5">
     <!-- Mass $[M_{\odot}$] -->
     <g style="fill: #f3f6f0" transform="translate(253.311326 470.861171)scale(0.26 -0.26)">
      <defs>
       <path id="HelveticaNeue-4d" d="M 512 4570 
L 512 0 
L 1088 0 
L 1088 3802 
L 1101 3802 
L 2528 0 
L 3046 0 
L 4474 3802 
L 4486 3802 
L 4486 0 
L 5062 0 
L 5062 4570 
L 4230 4570 
L 2784 730 
L 1344 4570 
L 512 4570 
z
" transform="scale(0.015625)"/>
       <path id="HelveticaNeue-61" d="M 3341 13 
Q 3200 -70 2950 -70 
Q 2739 -70 2614 48 
Q 2490 166 2490 435 
Q 2266 166 1968 48 
Q 1670 -70 1325 -70 
Q 1101 -70 899 -19 
Q 698 32 550 141 
Q 403 250 316 426 
Q 230 602 230 851 
Q 230 1133 326 1312 
Q 422 1491 579 1603 
Q 736 1715 937 1772 
Q 1139 1830 1350 1869 
Q 1574 1914 1776 1936 
Q 1978 1958 2131 2000 
Q 2285 2042 2374 2122 
Q 2464 2202 2464 2355 
Q 2464 2534 2397 2643 
Q 2330 2752 2224 2809 
Q 2118 2867 1987 2886 
Q 1856 2906 1728 2906 
Q 1382 2906 1152 2774 
Q 922 2643 902 2278 
L 358 2278 
Q 371 2586 486 2797 
Q 602 3008 794 3139 
Q 986 3270 1232 3328 
Q 1478 3386 1760 3386 
Q 1984 3386 2205 3354 
Q 2426 3322 2605 3222 
Q 2784 3123 2893 2944 
Q 3002 2765 3002 2477 
L 3002 774 
Q 3002 582 3024 492 
Q 3046 403 3174 403 
Q 3245 403 3341 435 
L 3341 13 
z
M 2458 1709 
Q 2355 1632 2188 1597 
Q 2022 1562 1840 1539 
Q 1658 1517 1472 1488 
Q 1286 1459 1139 1395 
Q 992 1331 899 1212 
Q 806 1094 806 890 
Q 806 755 860 662 
Q 915 570 1001 512 
Q 1088 454 1203 428 
Q 1318 403 1446 403 
Q 1715 403 1907 476 
Q 2099 550 2220 662 
Q 2342 774 2400 905 
Q 2458 1037 2458 1152 
L 2458 1709 
z
" transform="scale(0.015625)"/>
       <path id="HelveticaNeue-73" d="M 742 1043 
L 198 1043 
Q 211 736 326 521 
Q 442 307 634 176 
Q 826 45 1075 -12 
Q 1325 -70 1600 -70 
Q 1850 -70 2102 -22 
Q 2355 26 2556 147 
Q 2758 269 2883 467 
Q 3008 666 3008 966 
Q 3008 1203 2915 1363 
Q 2822 1523 2672 1628 
Q 2522 1734 2326 1798 
Q 2131 1862 1926 1907 
Q 1734 1952 1542 1993 
Q 1350 2035 1196 2096 
Q 1043 2157 944 2249 
Q 845 2342 845 2483 
Q 845 2611 909 2691 
Q 973 2771 1075 2819 
Q 1178 2867 1302 2886 
Q 1427 2906 1549 2906 
Q 1683 2906 1814 2877 
Q 1946 2848 2054 2784 
Q 2163 2720 2233 2614 
Q 2304 2509 2317 2349 
L 2861 2349 
Q 2842 2650 2733 2851 
Q 2624 3053 2441 3171 
Q 2259 3290 2022 3338 
Q 1786 3386 1504 3386 
Q 1286 3386 1065 3331 
Q 845 3277 669 3165 
Q 493 3053 381 2873 
Q 269 2694 269 2445 
Q 269 2125 429 1945 
Q 589 1766 829 1667 
Q 1069 1568 1350 1513 
Q 1632 1459 1872 1392 
Q 2112 1325 2272 1216 
Q 2432 1107 2432 896 
Q 2432 742 2355 643 
Q 2278 544 2160 493 
Q 2042 442 1901 422 
Q 1760 403 1632 403 
Q 1466 403 1309 435 
Q 1152 467 1027 540 
Q 902 614 825 739 
Q 749 864 742 1043 
z
" transform="scale(0.015625)"/>
       <path id="HelveticaNeue-20" transform="scale(0.015625)"/>
       <path id="DejaVuSans-5b" d="M 550 4863 
L 1875 4863 
L 1875 4416 
L 1125 4416 
L 1125 -397 
L 1875 -397 
L 1875 -844 
L 550 -844 
L 550 4863 
z
" transform="scale(0.015625)"/>
       <path id="DejaVuSans-Oblique-4d" d="M 1081 4666 
L 2028 4666 
L 2572 1522 
L 4378 4666 
L 5350 4666 
L 4441 0 
L 3828 0 
L 4622 4091 
L 2791 897 
L 2175 897 
L 1581 4103 
L 788 0 
L 172 0 
L 1081 4666 
z
" transform="scale(0.015625)"/>
       <path id="DejaVuSans-2299" d="M 2350 2403 
L 3013 2403 
L 3013 1609 
L 2350 1609 
L 2350 2403 
z
M 3306 3522 
Q 3016 3644 2681 3644 
Q 2347 3644 2056 3522 
Q 1769 3400 1531 3163 
Q 1291 2922 1172 2634 
Q 1053 2347 1053 2006 
Q 1053 1675 1172 1387 
Q 1291 1100 1531 859 
Q 1769 622 2056 500 
Q 2347 378 2681 378 
Q 3016 378 3306 500 
Q 3594 622 3831 859 
Q 4072 1100 4190 1387 
Q 4309 1675 4309 2006 
Q 4309 2347 4190 2634 
Q 4072 2922 3831 3163 
Q 3594 3400 3306 3522 
z
M 1878 3956 
Q 2250 4113 2681 4113 
Q 3113 4113 3484 3956 
Q 3856 3800 4163 3494 
Q 4472 3184 4625 2813 
Q 4778 2444 4778 2006 
Q 4778 1578 4625 1206 
Q 4472 838 4163 528 
Q 3856 222 3484 65 
Q 3113 -91 2681 -91 
Q 2250 -91 1878 65 
Q 1506 222 1200 528 
Q 891 838 738 1206 
Q 584 1578 584 2006 
Q 584 2444 738 2813 
Q 891 3184 1200 3494 
Q 1506 3800 1878 3956 
z
" transform="scale(0.015625)"/>
       <path id="HelveticaNeue-5d" d="M 0 -826 
L 0 -1261 
L 1197 -1261 
L 1197 4678 
L 0 4678 
L 0 4243 
L 685 4243 
L 685 -826 
L 0 -826 
z
" transform="scale(0.015625)"/>
      </defs>
      <use xlink:href="#HelveticaNeue-4d" transform="translate(0 0.015625)"/>
      <use xlink:href="#HelveticaNeue-61" transform="translate(87.099991 0.015625)"/>
      <use xlink:href="#HelveticaNeue-73" transform="translate(140.799988 0.015625)"/>
      <use xlink:href="#HelveticaNeue-73" transform="translate(190.799973 0.015625)"/>
      <use xlink:href="#HelveticaNeue-20" transform="translate(240.799957 0.015625)"/>
      <use xlink:href="#DejaVuSans-5b" transform="translate(268.599945 0.015625)"/>
      <use xlink:href="#DejaVuSans-Oblique-4d" transform="translate(307.613617 0.015625)"/>
      <use xlink:href="#DejaVuSans-2299" transform="translate(393.892914 -16.390625)scale(0.7)"/>
      <use xlink:href="#HelveticaNeue-5d" transform="translate(455.279633 0.015625)"/>
     </g>
    </g>
   </g>
   <g id="matplotlib.axis_2">
    <g id="ytick_1">
     <g id="line2d_5">
      <defs>
       <path id="m0af9fa2a89" d="M 0 0 
L -4 0 
" style="stroke: #0d7685"/>
      </defs>
      <g>
       <use xlink:href="#m0af9fa2a89" x="57.281563" y="324.008217" style="fill: #0d7685; stroke: #0d7685"/>
      </g>
     </g>
     <g id="text_6">
      <!-- 1 -->
      <g style="fill: #f3f6f0" transform="translate(35.327188 333.291029)scale(0.26 -0.26)">
       <defs>
        <path id="HelveticaNeue-31" d="M 2278 0 
L 2278 4538 
L 1862 4538 
Q 1818 4282 1696 4115 
Q 1574 3949 1398 3853 
Q 1222 3757 1004 3721 
Q 787 3686 557 3686 
L 557 3251 
L 1734 3251 
L 1734 0 
L 2278 0 
z
" transform="scale(0.015625)"/>
       </defs>
       <use xlink:href="#HelveticaNeue-31"/>
      </g>
     </g>
    </g>
    <g id="ytick_2">
     <g id="line2d_6">
      <g>
       <use xlink:href="#m0af9fa2a89" x="57.281563" y="221.499749" style="fill: #0d7685; stroke: #0d7685"/>
      </g>
     </g>
     <g id="text_7">
      <!-- 2 -->
      <g style="fill: #f3f6f0" transform="translate(35.327188 230.782561)scale(0.26 -0.26)">
       <use xlink:href="#HelveticaNeue-32"/>
      </g>
     </g>
    </g>
    <g id="ytick_3">
     <g id="line2d_7">
      <g>
       <use xlink:href="#m0af9fa2a89" x="57.281563" y="118.991281" style="fill: #0d7685; stroke: #0d7685"/>
      </g>
     </g>
     <g id="text_8">
      <!-- 3 -->
      <g style="fill: #f3f6f0" transform="translate(35.327188 128.274093)scale(0.26 -0.26)">
       <defs>
        <path id="HelveticaNeue-33" d="M 1395 2592 
L 1395 2131 
Q 1549 2150 1722 2150 
Q 1926 2150 2102 2096 
Q 2278 2042 2406 1930 
Q 2534 1818 2611 1654 
Q 2688 1491 2688 1280 
Q 2688 1075 2608 912 
Q 2528 749 2393 637 
Q 2259 525 2080 464 
Q 1901 403 1702 403 
Q 1235 403 992 681 
Q 749 960 736 1402 
L 192 1402 
Q 186 1050 291 774 
Q 397 499 595 310 
Q 794 122 1075 26 
Q 1357 -70 1702 -70 
Q 2022 -70 2307 16 
Q 2592 102 2803 275 
Q 3014 448 3139 707 
Q 3264 966 3264 1306 
Q 3264 1715 3062 2016 
Q 2861 2317 2445 2406 
L 2445 2419 
Q 2714 2541 2893 2777 
Q 3072 3014 3072 3322 
Q 3072 3635 2966 3865 
Q 2861 4096 2675 4243 
Q 2490 4390 2237 4464 
Q 1984 4538 1690 4538 
Q 1350 4538 1091 4429 
Q 832 4320 659 4128 
Q 486 3936 393 3667 
Q 301 3398 288 3072 
L 832 3072 
Q 832 3270 883 3449 
Q 934 3629 1040 3763 
Q 1146 3898 1309 3978 
Q 1472 4058 1690 4058 
Q 2035 4058 2265 3875 
Q 2496 3693 2496 3328 
Q 2496 3149 2425 3008 
Q 2355 2867 2236 2774 
Q 2118 2682 1961 2634 
Q 1805 2586 1632 2586 
L 1517 2586 
Q 1485 2586 1453 2586 
Q 1427 2586 1395 2592 
z
" transform="scale(0.015625)"/>
       </defs>
       <use xlink:href="#HelveticaNeue-33"/>
      </g>
     </g>
    </g>
    <g id="ytick_4">
     <g id="line2d_8">
      <g>
       <use xlink:href="#m0af9fa2a89" x="57.281563" y="16.482812" style="fill: #0d7685; stroke: #0d7685"/>
      </g>
     </g>
     <g id="text_9">
      <!-- 4 -->
      <g style="fill: #f3f6f0" transform="translate(35.327188 25.765625)scale(0.26 -0.26)">
       <use xlink:href="#HelveticaNeue-34"/>
      </g>
     </g>
    </g>
    <g id="text_10">
     <!-- Radius [AU] -->
     <g style="fill: #f3f6f0" transform="translate(26.204375 284.565586)rotate(-90)scale(0.26 -0.26)">
      <defs>
       <path id="HelveticaNeue-52" d="M 499 4570 
L 499 0 
L 1107 0 
L 1107 1952 
L 2592 1952 
Q 2816 1952 2950 1885 
Q 3085 1818 3168 1706 
Q 3251 1594 3289 1443 
Q 3328 1293 3354 1126 
Q 3386 960 3392 787 
Q 3398 614 3404 464 
Q 3411 314 3433 192 
Q 3456 70 3520 0 
L 4198 0 
Q 4102 115 4054 265 
Q 4006 416 3980 582 
Q 3955 749 3948 921 
Q 3942 1094 3930 1261 
Q 3910 1427 3875 1580 
Q 3840 1734 3766 1859 
Q 3693 1984 3568 2073 
Q 3443 2163 3245 2202 
L 3245 2214 
Q 3661 2330 3849 2643 
Q 4038 2957 4038 3373 
Q 4038 3930 3670 4250 
Q 3302 4570 2650 4570 
L 499 4570 
z
M 2374 2464 
L 1107 2464 
L 1107 4058 
L 2618 4058 
Q 3046 4058 3238 3840 
Q 3430 3622 3430 3277 
Q 3430 3027 3344 2870 
Q 3258 2714 3114 2621 
Q 2970 2528 2778 2496 
Q 2586 2464 2374 2464 
z
" transform="scale(0.015625)"/>
       <path id="HelveticaNeue-64" d="M 806 1626 
Q 806 1869 857 2099 
Q 909 2330 1024 2509 
Q 1139 2688 1331 2797 
Q 1523 2906 1798 2906 
Q 2080 2906 2278 2800 
Q 2477 2694 2601 2521 
Q 2726 2349 2784 2121 
Q 2842 1894 2842 1651 
Q 2842 1421 2787 1197 
Q 2733 973 2611 797 
Q 2490 621 2298 512 
Q 2106 403 1830 403 
Q 1568 403 1373 505 
Q 1178 608 1053 781 
Q 928 954 867 1174 
Q 806 1395 806 1626 
z
M 3366 0 
L 3366 4570 
L 2822 4570 
L 2822 2867 
L 2810 2867 
Q 2720 3014 2589 3113 
Q 2458 3213 2310 3273 
Q 2163 3334 2016 3360 
Q 1869 3386 1741 3386 
Q 1363 3386 1078 3248 
Q 794 3110 605 2876 
Q 416 2643 323 2329 
Q 230 2016 230 1664 
Q 230 1312 326 998 
Q 422 685 611 448 
Q 800 211 1085 70 
Q 1370 -70 1754 -70 
Q 2099 -70 2387 51 
Q 2675 173 2810 448 
L 2822 448 
L 2822 0 
L 3366 0 
z
" transform="scale(0.015625)"/>
       <path id="HelveticaNeue-69" d="M 986 3904 
L 986 4570 
L 442 4570 
L 442 3904 
L 986 3904 
z
M 442 3309 
L 442 0 
L 986 0 
L 986 3309 
L 442 3309 
z
" transform="scale(0.015625)"/>
       <path id="HelveticaNeue-75" d="M 3149 0 
L 3149 3309 
L 2605 3309 
L 2605 1440 
Q 2605 1216 2544 1027 
Q 2483 838 2361 697 
Q 2240 557 2057 480 
Q 1875 403 1626 403 
Q 1312 403 1133 582 
Q 954 762 954 1069 
L 954 3309 
L 410 3309 
L 410 1133 
Q 410 864 464 643 
Q 518 422 652 262 
Q 787 102 1004 16 
Q 1222 -70 1549 -70 
Q 1914 -70 2182 74 
Q 2451 218 2624 525 
L 2637 525 
L 2637 0 
L 3149 0 
z
" transform="scale(0.015625)"/>
       <path id="HelveticaNeue-5b" d="M 1658 4243 
L 1658 4678 
L 461 4678 
L 461 -1261 
L 1658 -1261 
L 1658 -826 
L 973 -826 
L 973 4243 
L 1658 4243 
z
" transform="scale(0.015625)"/>
       <path id="HelveticaNeue-41" d="M 1286 1888 
L 2061 4019 
L 2074 4019 
L 2835 1888 
L 1286 1888 
z
M 1741 4570 
L -38 0 
L 582 0 
L 1094 1376 
L 3027 1376 
L 3526 0 
L 4198 0 
L 2413 4570 
L 1741 4570 
z
" transform="scale(0.015625)"/>
       <path id="HelveticaNeue-55" d="M 4147 1651 
L 4147 4570 
L 3539 4570 
L 3539 1651 
Q 3539 1037 3235 720 
Q 2931 403 2349 403 
Q 1734 403 1408 720 
Q 1082 1037 1082 1651 
L 1082 4570 
L 474 4570 
L 474 1651 
Q 474 736 970 317 
Q 1466 -102 2349 -102 
Q 3213 -102 3680 336 
Q 4147 774 4147 1651 
z
" transform="scale(0.015625)"/>
      </defs>
      <use xlink:href="#HelveticaNeue-52"/>
      <use xlink:href="#HelveticaNeue-61" x="68.499985"/>
      <use xlink:href="#HelveticaNeue-64" x="122.199982"/>
      <use xlink:href="#HelveticaNeue-69" x="181.499969"/>
      <use xlink:href="#HelveticaNeue-75" x="203.699966"/>
      <use xlink:href="#HelveticaNeue-73" x="259.299957"/>
      <use xlink:href="#HelveticaNeue-20" x="309.299942"/>
      <use xlink:href="#HelveticaNeue-5b" x="337.09993"/>
      <use xlink:href="#HelveticaNeue-41" x="362.999924"/>
      <use xlink:href="#HelveticaNeue-55" x="427.799911"/>
      <use xlink:href="#HelveticaNeue-5d" x="499.999893"/>
     </g>
    </g>
   </g>
   <g id="PathCollection_27">
    <path d="M 62.428458 372.126949 
L 58.832228 366.341841 
L 55.870626 361.289006 
L 55.69773 360.679499 
L 54.314565 355.738493 
L 52.9314 350.684301 
L 51.548234 345.516527 
L 50.165069 340.234774 
L 48.954799 334.910382 
L 48.845398 334.158256 
L 47.970195 322.18747 
L 47.094991 310.430981 
L 46.219787 298.888278 
L 45.344583 276.740735 
L 44.469379 247.772164 
L 43.594176 213.270164 
L 43.484775 208.690839 
" clip-path="url(#p2b21ef8275)" style="fill: none; stroke: #342339; stroke-width: 1.5"/>
    <path d="M 574.66109 137.788033 
L 534.724388 160.119507 
L 459.288394 196.525302 
L 368.035188 240.976431 
L 362.337077 244.277437 
L 295.859119 275.69847 
L 289.468767 279.132908 
L 247.691842 300.556477 
L 238.771976 304.155285 
L 216.195642 314.332891 
L 193.619309 326.796984 
L 191.387235 328.134482 
L 170.461545 338.130532 
L 157.906131 342.209337 
L 153.982926 343.494263 
L 140.251705 348.571622 
L 129.65905 353.260756 
L 128.897396 353.580581 
L 117.789954 358.686791 
L 108.391349 363.778367 
L 107.317223 364.413756 
L 99.954262 367.743927 
L 92.5913 371.729522 
" clip-path="url(#p2b21ef8275)" style="fill: none; stroke: #342339; stroke-width: 1.5"/>
   </g>
   <g id="PathCollection_28">
    <path d="M 574.66109 72.858043 
L 520.065082 108.15056 
L 459.288394 140.926329 
L 368.035188 199.432021 
L 360.704806 205.170276 
L 295.859119 241.907109 
L 278.019387 253.807599 
L 238.771976 275.315104 
L 230.02918 280.790368 
L 195.97101 301.502328 
L 193.619309 302.638862 
L 167.671453 316.494058 
L 157.906131 322.730881 
L 146.556857 330.1343 
L 130.321091 338.418129 
L 129.65905 338.656869 
L 115.462681 343.559518 
L 107.317223 346.921086 
L 103.267594 348.033155 
L 92.92598 351.514447 
L 89.646116 352.844968 
L 75.66928 354.39335 
L 70.36003 351.553489 
L 64.614402 348.027348 
L 63.833708 346.638988 
L 60.697919 340.867169 
L 57.731632 334.382549 
L 55.870626 325.742671 
L 55.395163 321.540558 
L 54.011998 309.32164 
L 52.628832 297.116012 
L 51.245667 272.620064 
L 49.862501 240.913441 
L 48.954799 213.435782 
L 48.653948 200.142284 
L 47.778744 146.929504 
L 46.90354 57.819673 
" clip-path="url(#p2b21ef8275)" style="fill: none; stroke: #b34144; stroke-width: 1.5"/>
   </g>
   <g id="PathCollection_29">
    <path d="M 574.66109 30.741844 
L 459.288394 103.42142 
L 431.993908 125.504957 
L 368.035188 165.691087 
L 308.546319 212.25924 
L 295.859119 219.446881 
L 241.348826 255.809488 
L 238.771976 257.221597 
L 199.318726 281.929594 
L 193.619309 285.429066 
L 165.43938 303.747254 
L 157.906131 307.934865 
L 140.987306 317.738878 
L 129.65905 325.543978 
L 122.028917 330.533619 
L 107.317223 337.941399 
L 106.16676 338.373273 
L 93.20488 341.40707 
L 89.646116 342.478105 
L 75.66928 342.235558 
L 74.386125 341.410455 
L 67.409528 336.477443 
L 64.614402 331.793345 
L 62.903038 324.741013 
L 60.032327 311.021689 
L 57.305152 297.476398 
L 55.870626 284.072911 
L 55.243879 273.347194 
L 53.860714 243.595818 
L 52.477548 201.911791 
L 51.094383 140.959161 
L 49.711218 34.38157 
" clip-path="url(#p2b21ef8275)" style="fill: none; stroke: #f35546; stroke-width: 1.5"/>
   </g>
   <g id="PathCollection_30">
    <path d="M 507.360351 26.305435 
L 459.288394 56.056641 
L 368.035188 128.230086 
L 358.319179 138.056413 
L 295.859119 183.576605 
L 259.309424 217.144656 
L 238.771976 230.54177 
L 204.101178 257.207391 
L 193.619309 263.887403 
L 162.091269 287.383091 
L 157.906131 290.110901 
L 133.189935 305.644218 
L 129.65905 307.754988 
L 110.808134 318.185978 
L 107.317223 320.539321 
L 93.643152 325.285873 
L 89.646116 327.073118 
L 82.269453 324.835744 
L 75.66928 322.141548 
L 71.178236 313.386876 
L 65.167146 300.559143 
L 64.614402 298.659729 
L 62.108564 279.001353 
L 59.46182 250.082439 
L 56.93818 206.344583 
L 55.870626 178.210283 
L 55.092596 143.989279 
L 53.70943 37.714744 
" clip-path="url(#p2b21ef8275)" style="fill: none; stroke: #f77430; stroke-width: 1.5"/>
   </g>
   <g id="PathCollection_31">
    <path d="M 426.96955 27.122558 
L 368.035188 69.910133 
L 295.859119 142.562294 
L 293.947719 144.863811 
L 238.771976 192.182104 
L 211.49224 220.356733 
L 193.619309 233.772159 
L 157.906131 263.247695 
L 156.434929 264.468654 
L 129.65905 285.022317 
L 119.971773 291.456703 
L 107.317223 297.706214 
L 94.432041 300.41966 
L 89.646116 301.483145 
L 85.860723 299.264393 
L 75.66928 287.95565 
L 74.367143 283.839246 
L 68.683212 259.250615 
L 64.614402 229.249309 
L 63.991662 219.404105 
L 61.422427 158.857649 
L 58.96738 51.756911 
" clip-path="url(#p2b21ef8275)" style="fill: none; stroke: #fc9618; stroke-width: 1.5"/>
   </g>
   <g id="PathCollection_32">
    <path d="M 354.502175 21.155938 
L 295.859119 71.536195 
L 238.771976 138.256662 
L 224.426597 157.500599 
L 193.619309 186.963069 
L 157.906131 223.341786 
L 144.665312 235.790596 
L 129.65905 247.380258 
L 107.317223 259.500869 
L 96.272781 258.719059 
L 89.646116 258.103115 
L 87.399839 254.737678 
L 77.780365 228.893817 
L 75.66928 219.215472 
L 71.714302 178.81175 
L 66.687192 81.222732 
" clip-path="url(#p2b21ef8275)" style="fill: none; stroke: #fbc24c; stroke-width: 1.5"/>
   </g>
   <g id="PathCollection_33">
    <path d="M 256.611708 39.215484 
L 238.771976 58.049523 
L 193.619309 110.701863 
L 157.906131 155.983545 
L 129.65905 184.519328 
L 107.317223 193.86279 
L 105.476483 190.931053 
L 89.646116 165.55293 
L 88.254903 158.859925 
L 80.473817 92.405586 
" clip-path="url(#p2b21ef8275)" style="fill: none; stroke: #f3f6f0; stroke-width: 1.5"/>
   </g>
   <g id="PathCollection_34">
    <path d="M 57.281563 366.230428 
L 62.01815 361.393388 
L 83.697867 329.529766 
L 94.237243 310.375471 
L 103.251093 299.034235 
L 123.809879 269.134117 
L 131.192924 256.917481 
L 143.816778 240.178524 
L 163.46885 212.101213 
L 168.148604 204.751281 
L 182.935205 184.856105 
L 201.747731 158.489345 
L 205.104285 153.423245 
L 220.354411 132.914823 
L 238.338047 108.154087 
L 242.059965 102.730371 
L 255.992229 84.150775 
L 273.143768 60.891729 
L 279.015646 52.610455 
L 289.852558 38.344816 
L 306.165875 16.482812 
" clip-path="url(#p2b21ef8275)" style="fill: none; stroke: #f3f6f0; stroke-width: 1.5"/>
   </g>
   <g id="patch_3">
    <path d="M 57.281563 415.912734 
L 57.281563 16.482812 
" style="fill: none; stroke: #0d7685; stroke-width: 2; stroke-linejoin: miter; stroke-linecap: square"/>
   </g>
   <g id="patch_4">
    <path d="M 574.66109 415.912734 
L 574.66109 16.482812 
" style="fill: none; stroke: #0d7685; stroke-width: 2; stroke-linejoin: miter; stroke-linecap: square"/>
   </g>
   <g id="patch_5">
    <path d="M 57.281563 415.912734 
L 574.66109 415.912734 
" style="fill: none; stroke: #0d7685; stroke-width: 2; stroke-linejoin: miter; stroke-linecap: square"/>
   </g>
   <g id="patch_6">
    <path d="M 57.281563 16.482812 
L 574.66109 16.482812 
" style="fill: none; stroke: #0d7685; stroke-width: 2; stroke-linejoin: miter; stroke-linecap: square"/>
   </g>
  </g>
  <g id="axes_2">
   <g id="patch_7">
    <path d="M 606.997311 396.892261 
L 626.968807 396.892261 
L 626.968807 16.482812 
L 606.997311 16.482812 
L 606.997311 396.892261 
z
" style="fill: none"/>
   </g>
   <g id="patch_8">
    <path clip-path="url(#p075c0c6db4)" style="fill: none"/>
   </g>
   <g id="patch_9">
    <path d="M 606.997311 396.892261 
L 616.983059 415.912734 
L 626.968807 396.892261 
" style="fill: #342339"/>
   </g>
   <g id="QuadMesh_1">
    <path d="M 606.997311 396.892261 
L 626.968807 396.892261 
L 626.968807 376.870711 
L 606.997311 376.870711 
L 606.997311 396.892261 
" clip-path="url(#p075c0c6db4)" style="fill: #3d253a"/>
    <path d="M 606.997311 376.870711 
L 626.968807 376.870711 
L 626.968807 356.849161 
L 606.997311 356.849161 
L 606.997311 376.870711 
" clip-path="url(#p075c0c6db4)" style="fill: #532a3c"/>
    <path d="M 606.997311 356.849161 
L 626.968807 356.849161 
L 626.968807 336.827612 
L 606.997311 336.827612 
L 606.997311 356.849161 
" clip-path="url(#p075c0c6db4)" style="fill: #672f3e"/>
    <path d="M 606.997311 336.827612 
L 626.968807 336.827612 
L 626.968807 316.806062 
L 606.997311 316.806062 
L 606.997311 336.827612 
" clip-path="url(#p075c0c6db4)" style="fill: #7d353f"/>
    <path d="M 606.997311 316.806062 
L 626.968807 316.806062 
L 626.968807 296.784512 
L 606.997311 296.784512 
L 606.997311 316.806062 
" clip-path="url(#p075c0c6db4)" style="fill: #973a42"/>
    <path d="M 606.997311 296.784512 
L 626.968807 296.784512 
L 626.968807 276.762962 
L 606.997311 276.762962 
L 606.997311 296.784512 
" clip-path="url(#p075c0c6db4)" style="fill: #b54145"/>
    <path d="M 606.997311 276.762962 
L 626.968807 276.762962 
L 626.968807 256.741412 
L 606.997311 256.741412 
L 606.997311 276.762962 
" clip-path="url(#p075c0c6db4)" style="fill: #d14847"/>
    <path d="M 606.997311 256.741412 
L 626.968807 256.741412 
L 626.968807 236.719862 
L 606.997311 236.719862 
L 606.997311 256.741412 
" clip-path="url(#p075c0c6db4)" style="fill: #f04f4a"/>
    <path d="M 606.997311 236.719862 
L 626.968807 236.719862 
L 626.968807 216.698312 
L 606.997311 216.698312 
L 606.997311 236.719862 
" clip-path="url(#p075c0c6db4)" style="fill: #f35943"/>
    <path d="M 606.997311 216.698312 
L 626.968807 216.698312 
L 626.968807 196.676762 
L 606.997311 196.676762 
L 606.997311 216.698312 
" clip-path="url(#p075c0c6db4)" style="fill: #f5653b"/>
    <path d="M 606.997311 196.676762 
L 626.968807 196.676762 
L 626.968807 176.655212 
L 606.997311 176.655212 
L 606.997311 196.676762 
" clip-path="url(#p075c0c6db4)" style="fill: #f77033"/>
    <path d="M 606.997311 176.655212 
L 626.968807 176.655212 
L 626.968807 156.633662 
L 606.997311 156.633662 
L 606.997311 176.655212 
" clip-path="url(#p075c0c6db4)" style="fill: #f87b2b"/>
    <path d="M 606.997311 156.633662 
L 626.968807 156.633662 
L 626.968807 136.612112 
L 606.997311 136.612112 
L 606.997311 156.633662 
" clip-path="url(#p075c0c6db4)" style="fill: #fa8921"/>
    <path d="M 606.997311 136.612112 
L 626.968807 136.612112 
L 626.968807 116.590562 
L 606.997311 116.590562 
L 606.997311 136.612112 
" clip-path="url(#p075c0c6db4)" style="fill: #fc9518"/>
    <path d="M 606.997311 116.590562 
L 626.968807 116.590562 
L 626.968807 96.569012 
L 606.997311 96.569012 
L 606.997311 116.590562 
" clip-path="url(#p075c0c6db4)" style="fill: #fea30e"/>
    <path d="M 606.997311 96.569012 
L 626.968807 96.569012 
L 626.968807 76.547462 
L 606.997311 76.547462 
L 606.997311 96.569012 
" clip-path="url(#p075c0c6db4)" style="fill: #feb21a"/>
    <path d="M 606.997311 76.547462 
L 626.968807 76.547462 
L 626.968807 56.525912 
L 606.997311 56.525912 
L 606.997311 76.547462 
" clip-path="url(#p075c0c6db4)" style="fill: #fbc65a"/>
    <path d="M 606.997311 56.525912 
L 626.968807 56.525912 
L 626.968807 36.504362 
L 606.997311 36.504362 
L 606.997311 56.525912 
" clip-path="url(#p075c0c6db4)" style="fill: #f8d995"/>
    <path d="M 606.997311 36.504362 
L 626.968807 36.504362 
L 626.968807 16.482812 
L 606.997311 16.482812 
L 606.997311 36.504362 
" clip-path="url(#p075c0c6db4)" style="fill: #f4edd5"/>
   </g>
   <g id="matplotlib.axis_3">
    <g id="ytick_5">
     <g id="line2d_9">
      <defs>
       <path id="m002b391591" d="M 0 0 
L 6 0 
"/>
      </defs>
      <g>
       <use xlink:href="#m002b391591" x="626.968807" y="36.504362" style="fill: #0d7685"/>
      </g>
     </g>
     <g id="text_11">
      <!-- 5 -->
      <g style="fill: #f3f6f0" transform="translate(636.468807 45.787175)scale(0.26 -0.26)">
       <defs>
        <path id="HelveticaNeue-2212" d="M 307 1837 
L 307 1402 
L 3533 1402 
L 3533 1837 
L 307 1837 
z
" transform="scale(0.015625)"/>
        <path id="HelveticaNeue-35" d="M 3008 3981 
L 3008 4461 
L 768 4461 
L 346 2106 
L 813 2080 
Q 973 2272 1181 2390 
Q 1389 2509 1658 2509 
Q 1888 2509 2077 2432 
Q 2266 2355 2400 2217 
Q 2534 2080 2608 1891 
Q 2682 1702 2682 1478 
Q 2682 1210 2605 1008 
Q 2528 806 2397 672 
Q 2266 538 2090 470 
Q 1914 403 1722 403 
Q 1517 403 1347 464 
Q 1178 525 1053 637 
Q 928 749 854 899 
Q 781 1050 768 1222 
L 224 1222 
Q 230 915 345 672 
Q 461 429 659 265 
Q 858 102 1117 16 
Q 1376 -70 1670 -70 
Q 2067 -70 2364 54 
Q 2662 179 2860 390 
Q 3059 602 3158 874 
Q 3258 1146 3258 1434 
Q 3258 1824 3142 2115 
Q 3027 2406 2828 2601 
Q 2630 2797 2361 2893 
Q 2093 2989 1792 2989 
Q 1562 2989 1328 2909 
Q 1094 2829 947 2662 
L 934 2675 
L 1178 3981 
L 3008 3981 
z
" transform="scale(0.015625)"/>
       </defs>
       <use xlink:href="#HelveticaNeue-2212"/>
       <use xlink:href="#HelveticaNeue-35" x="59.999985"/>
      </g>
     </g>
    </g>
    <g id="ytick_6">
     <g id="line2d_10">
      <g>
       <use xlink:href="#m002b391591" x="626.968807" y="76.547462" style="fill: #0d7685"/>
      </g>
     </g>
     <g id="text_12">
      <!-- 6 -->
      <g style="fill: #f3f6f0" transform="translate(636.468807 85.830275)scale(0.26 -0.26)">
       <use xlink:href="#HelveticaNeue-2212"/>
       <use xlink:href="#HelveticaNeue-36" x="59.999985"/>
      </g>
     </g>
    </g>
    <g id="ytick_7">
     <g id="line2d_11">
      <g>
       <use xlink:href="#m002b391591" x="626.968807" y="116.590562" style="fill: #0d7685"/>
      </g>
     </g>
     <g id="text_13">
      <!-- 7 -->
      <g style="fill: #f3f6f0" transform="translate(636.468807 125.873375)scale(0.26 -0.26)">
       <defs>
        <path id="HelveticaNeue-37" d="M 3258 3994 
L 3258 4461 
L 320 4461 
L 320 3949 
L 2701 3949 
Q 2342 3571 2032 3123 
Q 1722 2675 1485 2172 
Q 1248 1670 1097 1123 
Q 947 576 909 0 
L 1517 0 
Q 1549 531 1696 1094 
Q 1843 1658 2076 2189 
Q 2310 2720 2611 3187 
Q 2912 3654 3258 3994 
z
" transform="scale(0.015625)"/>
       </defs>
       <use xlink:href="#HelveticaNeue-2212"/>
       <use xlink:href="#HelveticaNeue-37" x="59.999985"/>
      </g>
     </g>
    </g>
    <g id="ytick_8">
     <g id="line2d_12">
      <g>
       <use xlink:href="#m002b391591" x="626.968807" y="156.633662" style="fill: #0d7685"/>
      </g>
     </g>
     <g id="text_14">
      <!-- 8 -->
      <g style="fill: #f3f6f0" transform="translate(636.468807 165.916475)scale(0.26 -0.26)">
       <use xlink:href="#HelveticaNeue-2212"/>
       <use xlink:href="#HelveticaNeue-38" x="59.999985"/>
      </g>
     </g>
    </g>
    <g id="ytick_9">
     <g id="line2d_13">
      <g>
       <use xlink:href="#m002b391591" x="626.968807" y="196.676762" style="fill: #0d7685"/>
      </g>
     </g>
     <g id="text_15">
      <!-- 9 -->
      <g style="fill: #f3f6f0" transform="translate(636.468807 205.959574)scale(0.26 -0.26)">
       <defs>
        <path id="HelveticaNeue-39" d="M 858 1094 
L 314 1094 
Q 365 506 742 218 
Q 1120 -70 1690 -70 
Q 2515 -70 2889 560 
Q 3264 1190 3264 2368 
Q 3264 3014 3139 3433 
Q 3014 3853 2803 4096 
Q 2592 4339 2310 4438 
Q 2029 4538 1709 4538 
Q 1382 4538 1107 4429 
Q 832 4320 633 4125 
Q 435 3930 326 3658 
Q 218 3386 218 3059 
Q 218 2726 310 2444 
Q 403 2163 585 1964 
Q 768 1766 1037 1654 
Q 1306 1542 1651 1542 
Q 1984 1542 2265 1712 
Q 2547 1882 2701 2170 
L 2714 2157 
Q 2688 1267 2438 835 
Q 2189 403 1690 403 
Q 1363 403 1126 582 
Q 890 762 858 1094 
z
M 2618 3021 
Q 2618 2822 2554 2640 
Q 2490 2458 2368 2320 
Q 2246 2182 2073 2102 
Q 1901 2022 1690 2022 
Q 1491 2022 1328 2102 
Q 1165 2182 1046 2316 
Q 928 2451 861 2624 
Q 794 2797 794 2982 
Q 794 3194 842 3386 
Q 890 3578 995 3728 
Q 1101 3878 1270 3968 
Q 1440 4058 1683 4058 
Q 1914 4058 2086 3974 
Q 2259 3891 2377 3747 
Q 2496 3603 2557 3417 
Q 2618 3232 2618 3021 
z
" transform="scale(0.015625)"/>
       </defs>
       <use xlink:href="#HelveticaNeue-2212"/>
       <use xlink:href="#HelveticaNeue-39" x="59.999985"/>
      </g>
     </g>
    </g>
    <g id="ytick_10">
     <g id="line2d_14">
      <g>
       <use xlink:href="#m002b391591" x="626.968807" y="236.719862" style="fill: #0d7685"/>
      </g>
     </g>
     <g id="text_16">
      <!-- 10 -->
      <g style="fill: #f3f6f0" transform="translate(636.468807 246.002674)scale(0.26 -0.26)">
       <defs>
        <path id="HelveticaNeue-30" d="M 845 2234 
Q 845 2400 848 2601 
Q 851 2803 880 3004 
Q 909 3206 963 3398 
Q 1018 3590 1123 3734 
Q 1229 3878 1389 3968 
Q 1549 4058 1779 4058 
Q 2010 4058 2170 3968 
Q 2330 3878 2435 3734 
Q 2541 3590 2595 3398 
Q 2650 3206 2678 3004 
Q 2707 2803 2710 2601 
Q 2714 2400 2714 2234 
Q 2714 1978 2698 1661 
Q 2682 1344 2595 1065 
Q 2509 787 2317 595 
Q 2125 403 1779 403 
Q 1434 403 1242 595 
Q 1050 787 963 1065 
Q 877 1344 861 1661 
Q 845 1978 845 2234 
z
M 269 2227 
Q 269 1978 281 1709 
Q 294 1440 345 1184 
Q 397 928 493 701 
Q 589 474 755 301 
Q 922 128 1174 29 
Q 1427 -70 1779 -70 
Q 2138 -70 2387 29 
Q 2637 128 2803 301 
Q 2970 474 3066 701 
Q 3162 928 3213 1184 
Q 3264 1440 3277 1709 
Q 3290 1978 3290 2227 
Q 3290 2477 3277 2745 
Q 3264 3014 3213 3270 
Q 3162 3526 3066 3756 
Q 2970 3987 2803 4160 
Q 2637 4333 2384 4435 
Q 2131 4538 1779 4538 
Q 1427 4538 1174 4435 
Q 922 4333 755 4160 
Q 589 3987 493 3756 
Q 397 3526 345 3270 
Q 294 3014 281 2745 
Q 269 2477 269 2227 
z
" transform="scale(0.015625)"/>
       </defs>
       <use xlink:href="#HelveticaNeue-2212"/>
       <use xlink:href="#HelveticaNeue-31" x="59.999985"/>
       <use xlink:href="#HelveticaNeue-30" x="115.599976"/>
      </g>
     </g>
    </g>
    <g id="ytick_11">
     <g id="line2d_15">
      <g>
       <use xlink:href="#m002b391591" x="626.968807" y="276.762962" style="fill: #0d7685"/>
      </g>
     </g>
     <g id="text_17">
      <!-- 11 -->
      <g style="fill: #f3f6f0" transform="translate(636.468807 286.045774)scale(0.26 -0.26)">
       <use xlink:href="#HelveticaNeue-2212"/>
       <use xlink:href="#HelveticaNeue-31" x="59.999985"/>
       <use xlink:href="#HelveticaNeue-31" x="115.599976"/>
      </g>
     </g>
    </g>
    <g id="ytick_12">
     <g id="line2d_16">
      <g>
       <use xlink:href="#m002b391591" x="626.968807" y="316.806062" style="fill: #0d7685"/>
      </g>
     </g>
     <g id="text_18">
      <!-- 12 -->
      <g style="fill: #f3f6f0" transform="translate(636.468807 326.088874)scale(0.26 -0.26)">
       <use xlink:href="#HelveticaNeue-2212"/>
       <use xlink:href="#HelveticaNeue-31" x="59.999985"/>
       <use xlink:href="#HelveticaNeue-32" x="115.599976"/>
      </g>
     </g>
    </g>
    <g id="ytick_13">
     <g id="line2d_17">
      <g>
       <use xlink:href="#m002b391591" x="626.968807" y="356.849161" style="fill: #0d7685"/>
      </g>
     </g>
     <g id="text_19">
      <!-- 13 -->
      <g style="fill: #f3f6f0" transform="translate(636.468807 366.131974)scale(0.26 -0.26)">
       <use xlink:href="#HelveticaNeue-2212"/>
       <use xlink:href="#HelveticaNeue-31" x="59.999985"/>
       <use xlink:href="#HelveticaNeue-33" x="115.599976"/>
      </g>
     </g>
    </g>
    <g id="ytick_14">
     <g id="line2d_18">
      <g>
       <use xlink:href="#m002b391591" x="626.968807" y="396.892261" style="fill: #0d7685"/>
      </g>
     </g>
     <g id="text_20">
      <!-- 14 -->
      <g style="fill: #f3f6f0" transform="translate(636.468807 406.175074)scale(0.26 -0.26)">
       <use xlink:href="#HelveticaNeue-2212"/>
       <use xlink:href="#HelveticaNeue-31" x="59.999985"/>
       <use xlink:href="#HelveticaNeue-34" x="115.599976"/>
      </g>
     </g>
    </g>
    <g id="text_21">
     <!-- $log(\dotM)$ $[M_{\odot}/yr]$ -->
     <g style="fill: #f3f6f0" transform="translate(712.537557 298.337537)rotate(-90)scale(0.26 -0.26)">
      <defs>
       <path id="DejaVuSans-Oblique-6c" d="M 1172 4863 
L 1747 4863 
L 800 0 
L 225 0 
L 1172 4863 
z
" transform="scale(0.015625)"/>
       <path id="DejaVuSans-Oblique-6f" d="M 1625 -91 
Q 1009 -91 651 289 
Q 294 669 294 1325 
Q 294 1706 417 2101 
Q 541 2497 738 2766 
Q 1047 3184 1428 3384 
Q 1809 3584 2291 3584 
Q 2888 3584 3255 3212 
Q 3622 2841 3622 2241 
Q 3622 1825 3500 1412 
Q 3378 1000 3181 728 
Q 2875 309 2494 109 
Q 2113 -91 1625 -91 
z
M 891 1344 
Q 891 869 1089 633 
Q 1288 397 1691 397 
Q 2269 397 2648 901 
Q 3028 1406 3028 2181 
Q 3028 2634 2825 2865 
Q 2622 3097 2228 3097 
Q 1903 3097 1650 2945 
Q 1397 2794 1197 2484 
Q 1050 2253 970 1956 
Q 891 1659 891 1344 
z
" transform="scale(0.015625)"/>
       <path id="DejaVuSans-Oblique-67" d="M 3816 3500 
L 3219 434 
Q 3047 -456 2561 -893 
Q 2075 -1331 1253 -1331 
Q 950 -1331 690 -1286 
Q 431 -1241 206 -1147 
L 313 -588 
Q 525 -725 762 -790 
Q 1000 -856 1269 -856 
Q 1816 -856 2167 -557 
Q 2519 -259 2631 300 
L 2681 563 
Q 2441 288 2122 144 
Q 1803 0 1434 0 
Q 903 0 598 351 
Q 294 703 294 1319 
Q 294 1803 478 2267 
Q 663 2731 997 3091 
Q 1219 3328 1514 3456 
Q 1809 3584 2131 3584 
Q 2484 3584 2746 3420 
Q 3009 3256 3138 2956 
L 3238 3500 
L 3816 3500 
z
M 2950 2216 
Q 2950 2641 2750 2872 
Q 2550 3103 2181 3103 
Q 1953 3103 1747 3012 
Q 1541 2922 1394 2759 
Q 1156 2491 1023 2127 
Q 891 1763 891 1375 
Q 891 944 1092 712 
Q 1294 481 1672 481 
Q 2219 481 2584 976 
Q 2950 1472 2950 2216 
z
" transform="scale(0.015625)"/>
       <path id="DejaVuSans-28" d="M 1984 4856 
Q 1566 4138 1362 3434 
Q 1159 2731 1159 2009 
Q 1159 1288 1364 580 
Q 1569 -128 1984 -844 
L 1484 -844 
Q 1016 -109 783 600 
Q 550 1309 550 2009 
Q 550 2706 781 3412 
Q 1013 4119 1484 4856 
L 1984 4856 
z
" transform="scale(0.015625)"/>
       <path id="DejaVuSans-307" d="M -1894 4863 
L -1319 4863 
L -1319 4134 
L -1894 4134 
L -1894 4863 
z
M -1600 3584 
L -1600 3584 
z
" transform="scale(0.015625)"/>
       <path id="DejaVuSans-29" d="M 513 4856 
L 1013 4856 
Q 1481 4119 1714 3412 
Q 1947 2706 1947 2009 
Q 1947 1309 1714 600 
Q 1481 -109 1013 -844 
L 513 -844 
Q 928 -128 1133 580 
Q 1338 1288 1338 2009 
Q 1338 2731 1133 3434 
Q 928 4138 513 4856 
z
" transform="scale(0.015625)"/>
       <path id="DejaVuSans-2f" d="M 1625 4666 
L 2156 4666 
L 531 -594 
L 0 -594 
L 1625 4666 
z
" transform="scale(0.015625)"/>
       <path id="DejaVuSans-Oblique-79" d="M 1588 -325 
Q 1188 -997 936 -1164 
Q 684 -1331 294 -1331 
L -159 -1331 
L -63 -850 
L 269 -850 
Q 509 -850 678 -719 
Q 847 -588 1056 -206 
L 1234 128 
L 459 3500 
L 1069 3500 
L 1650 819 
L 3256 3500 
L 3859 3500 
L 1588 -325 
z
" transform="scale(0.015625)"/>
       <path id="DejaVuSans-Oblique-72" d="M 2853 2969 
Q 2766 3016 2653 3041 
Q 2541 3066 2413 3066 
Q 1953 3066 1609 2717 
Q 1266 2369 1153 1784 
L 800 0 
L 225 0 
L 909 3500 
L 1484 3500 
L 1375 2956 
Q 1603 3259 1920 3421 
Q 2238 3584 2597 3584 
Q 2691 3584 2781 3573 
Q 2872 3563 2963 3538 
L 2853 2969 
z
" transform="scale(0.015625)"/>
       <path id="DejaVuSans-5d" d="M 1947 4863 
L 1947 -844 
L 622 -844 
L 622 -397 
L 1369 -397 
L 1369 4416 
L 622 4416 
L 622 4863 
L 1947 4863 
z
" transform="scale(0.015625)"/>
      </defs>
      <use xlink:href="#DejaVuSans-Oblique-6c" transform="translate(0 0.609375)"/>
      <use xlink:href="#DejaVuSans-Oblique-6f" transform="translate(27.783203 0.609375)"/>
      <use xlink:href="#DejaVuSans-Oblique-67" transform="translate(88.964844 0.609375)"/>
      <use xlink:href="#DejaVuSans-28" transform="translate(152.441406 0.609375)"/>
      <use xlink:href="#DejaVuSans-307" transform="translate(267.275391 30.015625)"/>
      <use xlink:href="#DejaVuSans-Oblique-4d" transform="translate(191.455078 0.609375)"/>
      <use xlink:href="#DejaVuSans-29" transform="translate(277.734375 0.609375)"/>
      <use xlink:href="#HelveticaNeue-20" transform="translate(316.748047 0.609375)"/>
      <use xlink:href="#DejaVuSans-5b" transform="translate(344.548035 0.609375)"/>
      <use xlink:href="#DejaVuSans-Oblique-4d" transform="translate(383.561707 0.609375)"/>
      <use xlink:href="#DejaVuSans-2299" transform="translate(469.841003 -15.796875)scale(0.7)"/>
      <use xlink:href="#DejaVuSans-2f" transform="translate(531.227722 0.609375)"/>
      <use xlink:href="#DejaVuSans-Oblique-79" transform="translate(564.919128 0.609375)"/>
      <use xlink:href="#DejaVuSans-Oblique-72" transform="translate(624.098816 0.609375)"/>
      <use xlink:href="#DejaVuSans-5d" transform="translate(665.212097 0.609375)"/>
     </g>
    </g>
   </g>
   <g id="LineCollection_1"/>
   <g id="patch_10">
    <path d="M 606.997311 396.892261 
L 616.983059 415.912734 
L 626.968807 396.892261 
L 626.968807 16.482812 
L 616.983059 16.482812 
L 606.997311 16.482812 
L 606.997311 396.892261 
z
" style="fill: none"/>
   </g>
  </g>
 </g>
 <defs>
  <clipPath id="p2b21ef8275">
   <rect x="57.281563" y="16.482812" width="517.379528" height="399.429921"/>
  </clipPath>
  <clipPath id="p075c0c6db4">
   <rect x="606.997311" y="16.482812" width="19.971496" height="380.409449"/>
  </clipPath>
 </defs>
</svg>
