<?xml version="1.0" encoding="utf-8" standalone="no"?>
<!DOCTYPE svg PUBLIC "-//W3C//DTD SVG 1.1//EN"
  "http://www.w3.org/Graphics/SVG/1.1/DTD/svg11.dtd">
<svg xmlns:xlink="http://www.w3.org/1999/xlink" width="610.704882pt" height="499.130286pt" viewBox="0 0 610.704882 499.130286" xmlns="http://www.w3.org/2000/svg" version="1.1">
 <metadata>
  <rdf:RDF xmlns:dc="http://purl.org/dc/elements/1.1/" xmlns:cc="http://creativecommons.org/ns#" xmlns:rdf="http://www.w3.org/1999/02/22-rdf-syntax-ns#">
   <cc:Work>
    <dc:type rdf:resource="http://purl.org/dc/dcmitype/StillImage"/>
    <dc:date>2023-02-26T21:12:04.871353</dc:date>
    <dc:format>image/svg+xml</dc:format>
    <dc:creator>
     <cc:Agent>
      <dc:title>Matplotlib v3.5.2, https://matplotlib.org/</dc:title>
     </cc:Agent>
    </dc:creator>
   </cc:Work>
  </rdf:RDF>
 </metadata>
 <defs>
  <style type="text/css">*{stroke-linejoin: round; stroke-linecap: butt}</style>
 </defs>
 <g id="figure_1">
  <g id="patch_1">
   <path d="M 0 499.130286 
L 610.704882 499.130286 
L 610.704882 0 
L 0 0 
L 0 499.130286 
z
" style="fill: none"/>
  </g>
  <g id="axes_1">
   <g id="patch_2">
    <path d="M 93.06 433.053411 
L 583.484882 433.053411 
L 583.484882 7.2 
L 93.06 7.2 
L 93.06 433.053411 
z
" style="fill: none"/>
   </g>
   <g id="matplotlib.axis_1">
    <g id="xtick_1">
     <g id="line2d_1">
      <path d="M 93.06 433.053411 
L 93.06 7.2 
" clip-path="url(#p7f68b80dad)" style="fill: none; stroke: #0d7685; stroke-width: 0.8; stroke-linecap: square"/>
     </g>
     <g id="line2d_2">
      <defs>
       <path id="m34f3fff48d" d="M 0 0 
L 0 4 
" style="stroke: #0d7685"/>
      </defs>
      <g>
       <use xlink:href="#m34f3fff48d" x="93.06" y="433.053411" style="fill: #0d7685; stroke: #0d7685"/>
      </g>
     </g>
     <g id="text_1">
      <!-- $\mathdefault{10^{-3}}$ -->
      <g style="fill: #f3f6f0" transform="translate(67.58 459.119036)scale(0.26 -0.26)">
       <defs>
        <path id="HelveticaNeue-31" d="M 2278 0 
L 2278 4538 
L 1862 4538 
Q 1818 4282 1696 4115 
Q 1574 3949 1398 3853 
Q 1222 3757 1004 3721 
Q 787 3686 557 3686 
L 557 3251 
L 1734 3251 
L 1734 0 
L 2278 0 
z
" transform="scale(0.015625)"/>
        <path id="HelveticaNeue-30" d="M 845 2234 
Q 845 2400 848 2601 
Q 851 2803 880 3004 
Q 909 3206 963 3398 
Q 1018 3590 1123 3734 
Q 1229 3878 1389 3968 
Q 1549 4058 1779 4058 
Q 2010 4058 2170 3968 
Q 2330 3878 2435 3734 
Q 2541 3590 2595 3398 
Q 2650 3206 2678 3004 
Q 2707 2803 2710 2601 
Q 2714 2400 2714 2234 
Q 2714 1978 2698 1661 
Q 2682 1344 2595 1065 
Q 2509 787 2317 595 
Q 2125 403 1779 403 
Q 1434 403 1242 595 
Q 1050 787 963 1065 
Q 877 1344 861 1661 
Q 845 1978 845 2234 
z
M 269 2227 
Q 269 1978 281 1709 
Q 294 1440 345 1184 
Q 397 928 493 701 
Q 589 474 755 301 
Q 922 128 1174 29 
Q 1427 -70 1779 -70 
Q 2138 -70 2387 29 
Q 2637 128 2803 301 
Q 2970 474 3066 701 
Q 3162 928 3213 1184 
Q 3264 1440 3277 1709 
Q 3290 1978 3290 2227 
Q 3290 2477 3277 2745 
Q 3264 3014 3213 3270 
Q 3162 3526 3066 3756 
Q 2970 3987 2803 4160 
Q 2637 4333 2384 4435 
Q 2131 4538 1779 4538 
Q 1427 4538 1174 4435 
Q 922 4333 755 4160 
Q 589 3987 493 3756 
Q 397 3526 345 3270 
Q 294 3014 281 2745 
Q 269 2477 269 2227 
z
" transform="scale(0.015625)"/>
        <path id="HelveticaNeue-2212" d="M 307 1837 
L 307 1402 
L 3533 1402 
L 3533 1837 
L 307 1837 
z
" transform="scale(0.015625)"/>
        <path id="HelveticaNeue-33" d="M 1395 2592 
L 1395 2131 
Q 1549 2150 1722 2150 
Q 1926 2150 2102 2096 
Q 2278 2042 2406 1930 
Q 2534 1818 2611 1654 
Q 2688 1491 2688 1280 
Q 2688 1075 2608 912 
Q 2528 749 2393 637 
Q 2259 525 2080 464 
Q 1901 403 1702 403 
Q 1235 403 992 681 
Q 749 960 736 1402 
L 192 1402 
Q 186 1050 291 774 
Q 397 499 595 310 
Q 794 122 1075 26 
Q 1357 -70 1702 -70 
Q 2022 -70 2307 16 
Q 2592 102 2803 275 
Q 3014 448 3139 707 
Q 3264 966 3264 1306 
Q 3264 1715 3062 2016 
Q 2861 2317 2445 2406 
L 2445 2419 
Q 2714 2541 2893 2777 
Q 3072 3014 3072 3322 
Q 3072 3635 2966 3865 
Q 2861 4096 2675 4243 
Q 2490 4390 2237 4464 
Q 1984 4538 1690 4538 
Q 1350 4538 1091 4429 
Q 832 4320 659 4128 
Q 486 3936 393 3667 
Q 301 3398 288 3072 
L 832 3072 
Q 832 3270 883 3449 
Q 934 3629 1040 3763 
Q 1146 3898 1309 3978 
Q 1472 4058 1690 4058 
Q 2035 4058 2265 3875 
Q 2496 3693 2496 3328 
Q 2496 3149 2425 3008 
Q 2355 2867 2236 2774 
Q 2118 2682 1961 2634 
Q 1805 2586 1632 2586 
L 1517 2586 
Q 1485 2586 1453 2586 
Q 1427 2586 1395 2592 
z
" transform="scale(0.015625)"/>
       </defs>
       <use xlink:href="#HelveticaNeue-31" transform="translate(0 0.173438)"/>
       <use xlink:href="#HelveticaNeue-30" transform="translate(55.599991 0.173438)"/>
       <use xlink:href="#HelveticaNeue-2212" transform="translate(112.104786 36.365625)scale(0.7)"/>
       <use xlink:href="#HelveticaNeue-33" transform="translate(154.104776 36.365625)scale(0.7)"/>
      </g>
     </g>
    </g>
    <g id="xtick_2">
     <g id="line2d_3">
      <path d="M 174.79748 433.053411 
L 174.79748 7.2 
" clip-path="url(#p7f68b80dad)" style="fill: none; stroke: #0d7685; stroke-width: 0.8; stroke-linecap: square"/>
     </g>
     <g id="line2d_4">
      <g>
       <use xlink:href="#m34f3fff48d" x="174.79748" y="433.053411" style="fill: #0d7685; stroke: #0d7685"/>
      </g>
     </g>
     <g id="text_2">
      <!-- $\mathdefault{10^{-2}}$ -->
      <g style="fill: #f3f6f0" transform="translate(149.31748 459.119036)scale(0.26 -0.26)">
       <defs>
        <path id="HelveticaNeue-32" d="M 282 2931 
L 826 2931 
Q 819 3136 867 3337 
Q 915 3539 1024 3699 
Q 1133 3859 1302 3958 
Q 1472 4058 1709 4058 
Q 1888 4058 2048 4000 
Q 2208 3942 2326 3833 
Q 2445 3725 2515 3574 
Q 2586 3424 2586 3238 
Q 2586 3002 2512 2822 
Q 2438 2643 2294 2489 
Q 2150 2336 1932 2185 
Q 1715 2035 1427 1856 
Q 1190 1715 972 1555 
Q 755 1395 582 1184 
Q 410 973 298 688 
Q 186 403 154 0 
L 3117 0 
L 3117 480 
L 787 480 
Q 826 691 950 854 
Q 1075 1018 1251 1158 
Q 1427 1299 1638 1424 
Q 1850 1549 2061 1677 
Q 2272 1811 2470 1958 
Q 2669 2106 2822 2288 
Q 2976 2470 3069 2700 
Q 3162 2931 3162 3232 
Q 3162 3552 3050 3795 
Q 2938 4038 2746 4201 
Q 2554 4365 2294 4451 
Q 2035 4538 1741 4538 
Q 1382 4538 1100 4416 
Q 819 4294 630 4080 
Q 442 3866 352 3571 
Q 262 3277 282 2931 
z
" transform="scale(0.015625)"/>
       </defs>
       <use xlink:href="#HelveticaNeue-31" transform="translate(0 0.173438)"/>
       <use xlink:href="#HelveticaNeue-30" transform="translate(55.599991 0.173438)"/>
       <use xlink:href="#HelveticaNeue-2212" transform="translate(112.104786 36.365625)scale(0.7)"/>
       <use xlink:href="#HelveticaNeue-32" transform="translate(154.104776 36.365625)scale(0.7)"/>
      </g>
     </g>
    </g>
    <g id="xtick_3">
     <g id="line2d_5">
      <path d="M 256.534961 433.053411 
L 256.534961 7.2 
" clip-path="url(#p7f68b80dad)" style="fill: none; stroke: #0d7685; stroke-width: 0.8; stroke-linecap: square"/>
     </g>
     <g id="line2d_6">
      <g>
       <use xlink:href="#m34f3fff48d" x="256.534961" y="433.053411" style="fill: #0d7685; stroke: #0d7685"/>
      </g>
     </g>
     <g id="text_3">
      <!-- $\mathdefault{10^{-1}}$ -->
      <g style="fill: #f3f6f0" transform="translate(231.054961 459.119036)scale(0.26 -0.26)">
       <use xlink:href="#HelveticaNeue-31" transform="translate(0 0.173438)"/>
       <use xlink:href="#HelveticaNeue-30" transform="translate(55.599991 0.173438)"/>
       <use xlink:href="#HelveticaNeue-2212" transform="translate(112.104786 36.365625)scale(0.7)"/>
       <use xlink:href="#HelveticaNeue-31" transform="translate(154.104776 36.365625)scale(0.7)"/>
      </g>
     </g>
    </g>
    <g id="xtick_4">
     <g id="line2d_7">
      <path d="M 338.272441 433.053411 
L 338.272441 7.2 
" clip-path="url(#p7f68b80dad)" style="fill: none; stroke: #0d7685; stroke-width: 0.8; stroke-linecap: square"/>
     </g>
     <g id="line2d_8">
      <g>
       <use xlink:href="#m34f3fff48d" x="338.272441" y="433.053411" style="fill: #0d7685; stroke: #0d7685"/>
      </g>
     </g>
     <g id="text_4">
      <!-- $\mathdefault{10^{0}}$ -->
      <g style="fill: #f3f6f0" transform="translate(318.252441 459.119036)scale(0.26 -0.26)">
       <use xlink:href="#HelveticaNeue-31" transform="translate(0 0.173438)"/>
       <use xlink:href="#HelveticaNeue-30" transform="translate(55.599991 0.173438)"/>
       <use xlink:href="#HelveticaNeue-30" transform="translate(112.104786 36.365625)scale(0.7)"/>
      </g>
     </g>
    </g>
    <g id="xtick_5">
     <g id="line2d_9">
      <path d="M 420.009921 433.053411 
L 420.009921 7.2 
" clip-path="url(#p7f68b80dad)" style="fill: none; stroke: #0d7685; stroke-width: 0.8; stroke-linecap: square"/>
     </g>
     <g id="line2d_10">
      <g>
       <use xlink:href="#m34f3fff48d" x="420.009921" y="433.053411" style="fill: #0d7685; stroke: #0d7685"/>
      </g>
     </g>
     <g id="text_5">
      <!-- $\mathdefault{10^{1}}$ -->
      <g style="fill: #f3f6f0" transform="translate(399.989921 459.119036)scale(0.26 -0.26)">
       <use xlink:href="#HelveticaNeue-31" transform="translate(0 0.173438)"/>
       <use xlink:href="#HelveticaNeue-30" transform="translate(55.599991 0.173438)"/>
       <use xlink:href="#HelveticaNeue-31" transform="translate(112.104786 36.365625)scale(0.7)"/>
      </g>
     </g>
    </g>
    <g id="xtick_6">
     <g id="line2d_11">
      <path d="M 501.747402 433.053411 
L 501.747402 7.2 
" clip-path="url(#p7f68b80dad)" style="fill: none; stroke: #0d7685; stroke-width: 0.8; stroke-linecap: square"/>
     </g>
     <g id="line2d_12">
      <g>
       <use xlink:href="#m34f3fff48d" x="501.747402" y="433.053411" style="fill: #0d7685; stroke: #0d7685"/>
      </g>
     </g>
     <g id="text_6">
      <!-- $\mathdefault{10^{2}}$ -->
      <g style="fill: #f3f6f0" transform="translate(481.727402 459.119036)scale(0.26 -0.26)">
       <use xlink:href="#HelveticaNeue-31" transform="translate(0 0.173438)"/>
       <use xlink:href="#HelveticaNeue-30" transform="translate(55.599991 0.173438)"/>
       <use xlink:href="#HelveticaNeue-32" transform="translate(112.104786 36.365625)scale(0.7)"/>
      </g>
     </g>
    </g>
    <g id="xtick_7">
     <g id="line2d_13">
      <path d="M 583.484882 433.053411 
L 583.484882 7.2 
" clip-path="url(#p7f68b80dad)" style="fill: none; stroke: #0d7685; stroke-width: 0.8; stroke-linecap: square"/>
     </g>
     <g id="line2d_14">
      <g>
       <use xlink:href="#m34f3fff48d" x="583.484882" y="433.053411" style="fill: #0d7685; stroke: #0d7685"/>
      </g>
     </g>
     <g id="text_7">
      <!-- $\mathdefault{10^{3}}$ -->
      <g style="fill: #f3f6f0" transform="translate(563.464882 459.119036)scale(0.26 -0.26)">
       <use xlink:href="#HelveticaNeue-31" transform="translate(0 0.173438)"/>
       <use xlink:href="#HelveticaNeue-30" transform="translate(55.599991 0.173438)"/>
       <use xlink:href="#HelveticaNeue-33" transform="translate(112.104786 36.365625)scale(0.7)"/>
      </g>
     </g>
    </g>
    <g id="xtick_8">
     <g id="line2d_15">
      <path d="M 117.665433 433.053411 
L 117.665433 7.2 
" clip-path="url(#p7f68b80dad)" style="fill: none; stroke: #0d7685; stroke-width: 0.8; stroke-linecap: square"/>
     </g>
     <g id="line2d_16">
      <defs>
       <path id="m7f4beb9d12" d="M 0 0 
L 0 2 
" style="stroke: #0d7685"/>
      </defs>
      <g>
       <use xlink:href="#m7f4beb9d12" x="117.665433" y="433.053411" style="fill: #0d7685; stroke: #0d7685"/>
      </g>
     </g>
    </g>
    <g id="xtick_9">
     <g id="line2d_17">
      <path d="M 132.058689 433.053411 
L 132.058689 7.2 
" clip-path="url(#p7f68b80dad)" style="fill: none; stroke: #0d7685; stroke-width: 0.8; stroke-linecap: square"/>
     </g>
     <g id="line2d_18">
      <g>
       <use xlink:href="#m7f4beb9d12" x="132.058689" y="433.053411" style="fill: #0d7685; stroke: #0d7685"/>
      </g>
     </g>
    </g>
    <g id="xtick_10">
     <g id="line2d_19">
      <path d="M 142.270867 433.053411 
L 142.270867 7.2 
" clip-path="url(#p7f68b80dad)" style="fill: none; stroke: #0d7685; stroke-width: 0.8; stroke-linecap: square"/>
     </g>
     <g id="line2d_20">
      <g>
       <use xlink:href="#m7f4beb9d12" x="142.270867" y="433.053411" style="fill: #0d7685; stroke: #0d7685"/>
      </g>
     </g>
    </g>
    <g id="xtick_11">
     <g id="line2d_21">
      <path d="M 150.192047 433.053411 
L 150.192047 7.2 
" clip-path="url(#p7f68b80dad)" style="fill: none; stroke: #0d7685; stroke-width: 0.8; stroke-linecap: square"/>
     </g>
     <g id="line2d_22">
      <g>
       <use xlink:href="#m7f4beb9d12" x="150.192047" y="433.053411" style="fill: #0d7685; stroke: #0d7685"/>
      </g>
     </g>
    </g>
    <g id="xtick_12">
     <g id="line2d_23">
      <path d="M 156.664123 433.053411 
L 156.664123 7.2 
" clip-path="url(#p7f68b80dad)" style="fill: none; stroke: #0d7685; stroke-width: 0.8; stroke-linecap: square"/>
     </g>
     <g id="line2d_24">
      <g>
       <use xlink:href="#m7f4beb9d12" x="156.664123" y="433.053411" style="fill: #0d7685; stroke: #0d7685"/>
      </g>
     </g>
    </g>
    <g id="xtick_13">
     <g id="line2d_25">
      <path d="M 162.136184 433.053411 
L 162.136184 7.2 
" clip-path="url(#p7f68b80dad)" style="fill: none; stroke: #0d7685; stroke-width: 0.8; stroke-linecap: square"/>
     </g>
     <g id="line2d_26">
      <g>
       <use xlink:href="#m7f4beb9d12" x="162.136184" y="433.053411" style="fill: #0d7685; stroke: #0d7685"/>
      </g>
     </g>
    </g>
    <g id="xtick_14">
     <g id="line2d_27">
      <path d="M 166.8763 433.053411 
L 166.8763 7.2 
" clip-path="url(#p7f68b80dad)" style="fill: none; stroke: #0d7685; stroke-width: 0.8; stroke-linecap: square"/>
     </g>
     <g id="line2d_28">
      <g>
       <use xlink:href="#m7f4beb9d12" x="166.8763" y="433.053411" style="fill: #0d7685; stroke: #0d7685"/>
      </g>
     </g>
    </g>
    <g id="xtick_15">
     <g id="line2d_29">
      <path d="M 171.057378 433.053411 
L 171.057378 7.2 
" clip-path="url(#p7f68b80dad)" style="fill: none; stroke: #0d7685; stroke-width: 0.8; stroke-linecap: square"/>
     </g>
     <g id="line2d_30">
      <g>
       <use xlink:href="#m7f4beb9d12" x="171.057378" y="433.053411" style="fill: #0d7685; stroke: #0d7685"/>
      </g>
     </g>
    </g>
    <g id="xtick_16">
     <g id="line2d_31">
      <path d="M 199.402914 433.053411 
L 199.402914 7.2 
" clip-path="url(#p7f68b80dad)" style="fill: none; stroke: #0d7685; stroke-width: 0.8; stroke-linecap: square"/>
     </g>
     <g id="line2d_32">
      <g>
       <use xlink:href="#m7f4beb9d12" x="199.402914" y="433.053411" style="fill: #0d7685; stroke: #0d7685"/>
      </g>
     </g>
    </g>
    <g id="xtick_17">
     <g id="line2d_33">
      <path d="M 213.796169 433.053411 
L 213.796169 7.2 
" clip-path="url(#p7f68b80dad)" style="fill: none; stroke: #0d7685; stroke-width: 0.8; stroke-linecap: square"/>
     </g>
     <g id="line2d_34">
      <g>
       <use xlink:href="#m7f4beb9d12" x="213.796169" y="433.053411" style="fill: #0d7685; stroke: #0d7685"/>
      </g>
     </g>
    </g>
    <g id="xtick_18">
     <g id="line2d_35">
      <path d="M 224.008347 433.053411 
L 224.008347 7.2 
" clip-path="url(#p7f68b80dad)" style="fill: none; stroke: #0d7685; stroke-width: 0.8; stroke-linecap: square"/>
     </g>
     <g id="line2d_36">
      <g>
       <use xlink:href="#m7f4beb9d12" x="224.008347" y="433.053411" style="fill: #0d7685; stroke: #0d7685"/>
      </g>
     </g>
    </g>
    <g id="xtick_19">
     <g id="line2d_37">
      <path d="M 231.929527 433.053411 
L 231.929527 7.2 
" clip-path="url(#p7f68b80dad)" style="fill: none; stroke: #0d7685; stroke-width: 0.8; stroke-linecap: square"/>
     </g>
     <g id="line2d_38">
      <g>
       <use xlink:href="#m7f4beb9d12" x="231.929527" y="433.053411" style="fill: #0d7685; stroke: #0d7685"/>
      </g>
     </g>
    </g>
    <g id="xtick_20">
     <g id="line2d_39">
      <path d="M 238.401603 433.053411 
L 238.401603 7.2 
" clip-path="url(#p7f68b80dad)" style="fill: none; stroke: #0d7685; stroke-width: 0.8; stroke-linecap: square"/>
     </g>
     <g id="line2d_40">
      <g>
       <use xlink:href="#m7f4beb9d12" x="238.401603" y="433.053411" style="fill: #0d7685; stroke: #0d7685"/>
      </g>
     </g>
    </g>
    <g id="xtick_21">
     <g id="line2d_41">
      <path d="M 243.873665 433.053411 
L 243.873665 7.2 
" clip-path="url(#p7f68b80dad)" style="fill: none; stroke: #0d7685; stroke-width: 0.8; stroke-linecap: square"/>
     </g>
     <g id="line2d_42">
      <g>
       <use xlink:href="#m7f4beb9d12" x="243.873665" y="433.053411" style="fill: #0d7685; stroke: #0d7685"/>
      </g>
     </g>
    </g>
    <g id="xtick_22">
     <g id="line2d_43">
      <path d="M 248.61378 433.053411 
L 248.61378 7.2 
" clip-path="url(#p7f68b80dad)" style="fill: none; stroke: #0d7685; stroke-width: 0.8; stroke-linecap: square"/>
     </g>
     <g id="line2d_44">
      <g>
       <use xlink:href="#m7f4beb9d12" x="248.61378" y="433.053411" style="fill: #0d7685; stroke: #0d7685"/>
      </g>
     </g>
    </g>
    <g id="xtick_23">
     <g id="line2d_45">
      <path d="M 252.794859 433.053411 
L 252.794859 7.2 
" clip-path="url(#p7f68b80dad)" style="fill: none; stroke: #0d7685; stroke-width: 0.8; stroke-linecap: square"/>
     </g>
     <g id="line2d_46">
      <g>
       <use xlink:href="#m7f4beb9d12" x="252.794859" y="433.053411" style="fill: #0d7685; stroke: #0d7685"/>
      </g>
     </g>
    </g>
    <g id="xtick_24">
     <g id="line2d_47">
      <path d="M 281.140394 433.053411 
L 281.140394 7.2 
" clip-path="url(#p7f68b80dad)" style="fill: none; stroke: #0d7685; stroke-width: 0.8; stroke-linecap: square"/>
     </g>
     <g id="line2d_48">
      <g>
       <use xlink:href="#m7f4beb9d12" x="281.140394" y="433.053411" style="fill: #0d7685; stroke: #0d7685"/>
      </g>
     </g>
    </g>
    <g id="xtick_25">
     <g id="line2d_49">
      <path d="M 295.53365 433.053411 
L 295.53365 7.2 
" clip-path="url(#p7f68b80dad)" style="fill: none; stroke: #0d7685; stroke-width: 0.8; stroke-linecap: square"/>
     </g>
     <g id="line2d_50">
      <g>
       <use xlink:href="#m7f4beb9d12" x="295.53365" y="433.053411" style="fill: #0d7685; stroke: #0d7685"/>
      </g>
     </g>
    </g>
    <g id="xtick_26">
     <g id="line2d_51">
      <path d="M 305.745827 433.053411 
L 305.745827 7.2 
" clip-path="url(#p7f68b80dad)" style="fill: none; stroke: #0d7685; stroke-width: 0.8; stroke-linecap: square"/>
     </g>
     <g id="line2d_52">
      <g>
       <use xlink:href="#m7f4beb9d12" x="305.745827" y="433.053411" style="fill: #0d7685; stroke: #0d7685"/>
      </g>
     </g>
    </g>
    <g id="xtick_27">
     <g id="line2d_53">
      <path d="M 313.667008 433.053411 
L 313.667008 7.2 
" clip-path="url(#p7f68b80dad)" style="fill: none; stroke: #0d7685; stroke-width: 0.8; stroke-linecap: square"/>
     </g>
     <g id="line2d_54">
      <g>
       <use xlink:href="#m7f4beb9d12" x="313.667008" y="433.053411" style="fill: #0d7685; stroke: #0d7685"/>
      </g>
     </g>
    </g>
    <g id="xtick_28">
     <g id="line2d_55">
      <path d="M 320.139083 433.053411 
L 320.139083 7.2 
" clip-path="url(#p7f68b80dad)" style="fill: none; stroke: #0d7685; stroke-width: 0.8; stroke-linecap: square"/>
     </g>
     <g id="line2d_56">
      <g>
       <use xlink:href="#m7f4beb9d12" x="320.139083" y="433.053411" style="fill: #0d7685; stroke: #0d7685"/>
      </g>
     </g>
    </g>
    <g id="xtick_29">
     <g id="line2d_57">
      <path d="M 325.611145 433.053411 
L 325.611145 7.2 
" clip-path="url(#p7f68b80dad)" style="fill: none; stroke: #0d7685; stroke-width: 0.8; stroke-linecap: square"/>
     </g>
     <g id="line2d_58">
      <g>
       <use xlink:href="#m7f4beb9d12" x="325.611145" y="433.053411" style="fill: #0d7685; stroke: #0d7685"/>
      </g>
     </g>
    </g>
    <g id="xtick_30">
     <g id="line2d_59">
      <path d="M 330.351261 433.053411 
L 330.351261 7.2 
" clip-path="url(#p7f68b80dad)" style="fill: none; stroke: #0d7685; stroke-width: 0.8; stroke-linecap: square"/>
     </g>
     <g id="line2d_60">
      <g>
       <use xlink:href="#m7f4beb9d12" x="330.351261" y="433.053411" style="fill: #0d7685; stroke: #0d7685"/>
      </g>
     </g>
    </g>
    <g id="xtick_31">
     <g id="line2d_61">
      <path d="M 334.532339 433.053411 
L 334.532339 7.2 
" clip-path="url(#p7f68b80dad)" style="fill: none; stroke: #0d7685; stroke-width: 0.8; stroke-linecap: square"/>
     </g>
     <g id="line2d_62">
      <g>
       <use xlink:href="#m7f4beb9d12" x="334.532339" y="433.053411" style="fill: #0d7685; stroke: #0d7685"/>
      </g>
     </g>
    </g>
    <g id="xtick_32">
     <g id="line2d_63">
      <path d="M 362.877874 433.053411 
L 362.877874 7.2 
" clip-path="url(#p7f68b80dad)" style="fill: none; stroke: #0d7685; stroke-width: 0.8; stroke-linecap: square"/>
     </g>
     <g id="line2d_64">
      <g>
       <use xlink:href="#m7f4beb9d12" x="362.877874" y="433.053411" style="fill: #0d7685; stroke: #0d7685"/>
      </g>
     </g>
    </g>
    <g id="xtick_33">
     <g id="line2d_65">
      <path d="M 377.27113 433.053411 
L 377.27113 7.2 
" clip-path="url(#p7f68b80dad)" style="fill: none; stroke: #0d7685; stroke-width: 0.8; stroke-linecap: square"/>
     </g>
     <g id="line2d_66">
      <g>
       <use xlink:href="#m7f4beb9d12" x="377.27113" y="433.053411" style="fill: #0d7685; stroke: #0d7685"/>
      </g>
     </g>
    </g>
    <g id="xtick_34">
     <g id="line2d_67">
      <path d="M 387.483308 433.053411 
L 387.483308 7.2 
" clip-path="url(#p7f68b80dad)" style="fill: none; stroke: #0d7685; stroke-width: 0.8; stroke-linecap: square"/>
     </g>
     <g id="line2d_68">
      <g>
       <use xlink:href="#m7f4beb9d12" x="387.483308" y="433.053411" style="fill: #0d7685; stroke: #0d7685"/>
      </g>
     </g>
    </g>
    <g id="xtick_35">
     <g id="line2d_69">
      <path d="M 395.404488 433.053411 
L 395.404488 7.2 
" clip-path="url(#p7f68b80dad)" style="fill: none; stroke: #0d7685; stroke-width: 0.8; stroke-linecap: square"/>
     </g>
     <g id="line2d_70">
      <g>
       <use xlink:href="#m7f4beb9d12" x="395.404488" y="433.053411" style="fill: #0d7685; stroke: #0d7685"/>
      </g>
     </g>
    </g>
    <g id="xtick_36">
     <g id="line2d_71">
      <path d="M 401.876563 433.053411 
L 401.876563 7.2 
" clip-path="url(#p7f68b80dad)" style="fill: none; stroke: #0d7685; stroke-width: 0.8; stroke-linecap: square"/>
     </g>
     <g id="line2d_72">
      <g>
       <use xlink:href="#m7f4beb9d12" x="401.876563" y="433.053411" style="fill: #0d7685; stroke: #0d7685"/>
      </g>
     </g>
    </g>
    <g id="xtick_37">
     <g id="line2d_73">
      <path d="M 407.348625 433.053411 
L 407.348625 7.2 
" clip-path="url(#p7f68b80dad)" style="fill: none; stroke: #0d7685; stroke-width: 0.8; stroke-linecap: square"/>
     </g>
     <g id="line2d_74">
      <g>
       <use xlink:href="#m7f4beb9d12" x="407.348625" y="433.053411" style="fill: #0d7685; stroke: #0d7685"/>
      </g>
     </g>
    </g>
    <g id="xtick_38">
     <g id="line2d_75">
      <path d="M 412.088741 433.053411 
L 412.088741 7.2 
" clip-path="url(#p7f68b80dad)" style="fill: none; stroke: #0d7685; stroke-width: 0.8; stroke-linecap: square"/>
     </g>
     <g id="line2d_76">
      <g>
       <use xlink:href="#m7f4beb9d12" x="412.088741" y="433.053411" style="fill: #0d7685; stroke: #0d7685"/>
      </g>
     </g>
    </g>
    <g id="xtick_39">
     <g id="line2d_77">
      <path d="M 416.269819 433.053411 
L 416.269819 7.2 
" clip-path="url(#p7f68b80dad)" style="fill: none; stroke: #0d7685; stroke-width: 0.8; stroke-linecap: square"/>
     </g>
     <g id="line2d_78">
      <g>
       <use xlink:href="#m7f4beb9d12" x="416.269819" y="433.053411" style="fill: #0d7685; stroke: #0d7685"/>
      </g>
     </g>
    </g>
    <g id="xtick_40">
     <g id="line2d_79">
      <path d="M 444.615355 433.053411 
L 444.615355 7.2 
" clip-path="url(#p7f68b80dad)" style="fill: none; stroke: #0d7685; stroke-width: 0.8; stroke-linecap: square"/>
     </g>
     <g id="line2d_80">
      <g>
       <use xlink:href="#m7f4beb9d12" x="444.615355" y="433.053411" style="fill: #0d7685; stroke: #0d7685"/>
      </g>
     </g>
    </g>
    <g id="xtick_41">
     <g id="line2d_81">
      <path d="M 459.00861 433.053411 
L 459.00861 7.2 
" clip-path="url(#p7f68b80dad)" style="fill: none; stroke: #0d7685; stroke-width: 0.8; stroke-linecap: square"/>
     </g>
     <g id="line2d_82">
      <g>
       <use xlink:href="#m7f4beb9d12" x="459.00861" y="433.053411" style="fill: #0d7685; stroke: #0d7685"/>
      </g>
     </g>
    </g>
    <g id="xtick_42">
     <g id="line2d_83">
      <path d="M 469.220788 433.053411 
L 469.220788 7.2 
" clip-path="url(#p7f68b80dad)" style="fill: none; stroke: #0d7685; stroke-width: 0.8; stroke-linecap: square"/>
     </g>
     <g id="line2d_84">
      <g>
       <use xlink:href="#m7f4beb9d12" x="469.220788" y="433.053411" style="fill: #0d7685; stroke: #0d7685"/>
      </g>
     </g>
    </g>
    <g id="xtick_43">
     <g id="line2d_85">
      <path d="M 477.141968 433.053411 
L 477.141968 7.2 
" clip-path="url(#p7f68b80dad)" style="fill: none; stroke: #0d7685; stroke-width: 0.8; stroke-linecap: square"/>
     </g>
     <g id="line2d_86">
      <g>
       <use xlink:href="#m7f4beb9d12" x="477.141968" y="433.053411" style="fill: #0d7685; stroke: #0d7685"/>
      </g>
     </g>
    </g>
    <g id="xtick_44">
     <g id="line2d_87">
      <path d="M 483.614044 433.053411 
L 483.614044 7.2 
" clip-path="url(#p7f68b80dad)" style="fill: none; stroke: #0d7685; stroke-width: 0.8; stroke-linecap: square"/>
     </g>
     <g id="line2d_88">
      <g>
       <use xlink:href="#m7f4beb9d12" x="483.614044" y="433.053411" style="fill: #0d7685; stroke: #0d7685"/>
      </g>
     </g>
    </g>
    <g id="xtick_45">
     <g id="line2d_89">
      <path d="M 489.086106 433.053411 
L 489.086106 7.2 
" clip-path="url(#p7f68b80dad)" style="fill: none; stroke: #0d7685; stroke-width: 0.8; stroke-linecap: square"/>
     </g>
     <g id="line2d_90">
      <g>
       <use xlink:href="#m7f4beb9d12" x="489.086106" y="433.053411" style="fill: #0d7685; stroke: #0d7685"/>
      </g>
     </g>
    </g>
    <g id="xtick_46">
     <g id="line2d_91">
      <path d="M 493.826221 433.053411 
L 493.826221 7.2 
" clip-path="url(#p7f68b80dad)" style="fill: none; stroke: #0d7685; stroke-width: 0.8; stroke-linecap: square"/>
     </g>
     <g id="line2d_92">
      <g>
       <use xlink:href="#m7f4beb9d12" x="493.826221" y="433.053411" style="fill: #0d7685; stroke: #0d7685"/>
      </g>
     </g>
    </g>
    <g id="xtick_47">
     <g id="line2d_93">
      <path d="M 498.0073 433.053411 
L 498.0073 7.2 
" clip-path="url(#p7f68b80dad)" style="fill: none; stroke: #0d7685; stroke-width: 0.8; stroke-linecap: square"/>
     </g>
     <g id="line2d_94">
      <g>
       <use xlink:href="#m7f4beb9d12" x="498.0073" y="433.053411" style="fill: #0d7685; stroke: #0d7685"/>
      </g>
     </g>
    </g>
    <g id="xtick_48">
     <g id="line2d_95">
      <path d="M 526.352835 433.053411 
L 526.352835 7.2 
" clip-path="url(#p7f68b80dad)" style="fill: none; stroke: #0d7685; stroke-width: 0.8; stroke-linecap: square"/>
     </g>
     <g id="line2d_96">
      <g>
       <use xlink:href="#m7f4beb9d12" x="526.352835" y="433.053411" style="fill: #0d7685; stroke: #0d7685"/>
      </g>
     </g>
    </g>
    <g id="xtick_49">
     <g id="line2d_97">
      <path d="M 540.746091 433.053411 
L 540.746091 7.2 
" clip-path="url(#p7f68b80dad)" style="fill: none; stroke: #0d7685; stroke-width: 0.8; stroke-linecap: square"/>
     </g>
     <g id="line2d_98">
      <g>
       <use xlink:href="#m7f4beb9d12" x="540.746091" y="433.053411" style="fill: #0d7685; stroke: #0d7685"/>
      </g>
     </g>
    </g>
    <g id="xtick_50">
     <g id="line2d_99">
      <path d="M 550.958268 433.053411 
L 550.958268 7.2 
" clip-path="url(#p7f68b80dad)" style="fill: none; stroke: #0d7685; stroke-width: 0.8; stroke-linecap: square"/>
     </g>
     <g id="line2d_100">
      <g>
       <use xlink:href="#m7f4beb9d12" x="550.958268" y="433.053411" style="fill: #0d7685; stroke: #0d7685"/>
      </g>
     </g>
    </g>
    <g id="xtick_51">
     <g id="line2d_101">
      <path d="M 558.879449 433.053411 
L 558.879449 7.2 
" clip-path="url(#p7f68b80dad)" style="fill: none; stroke: #0d7685; stroke-width: 0.8; stroke-linecap: square"/>
     </g>
     <g id="line2d_102">
      <g>
       <use xlink:href="#m7f4beb9d12" x="558.879449" y="433.053411" style="fill: #0d7685; stroke: #0d7685"/>
      </g>
     </g>
    </g>
    <g id="xtick_52">
     <g id="line2d_103">
      <path d="M 565.351524 433.053411 
L 565.351524 7.2 
" clip-path="url(#p7f68b80dad)" style="fill: none; stroke: #0d7685; stroke-width: 0.8; stroke-linecap: square"/>
     </g>
     <g id="line2d_104">
      <g>
       <use xlink:href="#m7f4beb9d12" x="565.351524" y="433.053411" style="fill: #0d7685; stroke: #0d7685"/>
      </g>
     </g>
    </g>
    <g id="xtick_53">
     <g id="line2d_105">
      <path d="M 570.823586 433.053411 
L 570.823586 7.2 
" clip-path="url(#p7f68b80dad)" style="fill: none; stroke: #0d7685; stroke-width: 0.8; stroke-linecap: square"/>
     </g>
     <g id="line2d_106">
      <g>
       <use xlink:href="#m7f4beb9d12" x="570.823586" y="433.053411" style="fill: #0d7685; stroke: #0d7685"/>
      </g>
     </g>
    </g>
    <g id="xtick_54">
     <g id="line2d_107">
      <path d="M 575.563702 433.053411 
L 575.563702 7.2 
" clip-path="url(#p7f68b80dad)" style="fill: none; stroke: #0d7685; stroke-width: 0.8; stroke-linecap: square"/>
     </g>
     <g id="line2d_108">
      <g>
       <use xlink:href="#m7f4beb9d12" x="575.563702" y="433.053411" style="fill: #0d7685; stroke: #0d7685"/>
      </g>
     </g>
    </g>
    <g id="xtick_55">
     <g id="line2d_109">
      <path d="M 579.74478 433.053411 
L 579.74478 7.2 
" clip-path="url(#p7f68b80dad)" style="fill: none; stroke: #0d7685; stroke-width: 0.8; stroke-linecap: square"/>
     </g>
     <g id="line2d_110">
      <g>
       <use xlink:href="#m7f4beb9d12" x="579.74478" y="433.053411" style="fill: #0d7685; stroke: #0d7685"/>
      </g>
     </g>
    </g>
    <g id="text_8">
     <!-- $h\nu \quad [eV]$ -->
     <g style="fill: #f3f6f0" transform="translate(283.022441 486.807474)scale(0.26 -0.26)">
      <defs>
       <path id="DejaVuSans-Oblique-68" d="M 3566 2113 
L 3156 0 
L 2578 0 
L 2988 2091 
Q 3016 2238 3031 2350 
Q 3047 2463 3047 2528 
Q 3047 2791 2881 2937 
Q 2716 3084 2419 3084 
Q 1956 3084 1617 2771 
Q 1278 2459 1178 1941 
L 800 0 
L 225 0 
L 1172 4863 
L 1747 4863 
L 1375 2950 
Q 1594 3244 1934 3414 
Q 2275 3584 2650 3584 
Q 3113 3584 3367 3334 
Q 3622 3084 3622 2631 
Q 3622 2519 3608 2391 
Q 3594 2263 3566 2113 
z
" transform="scale(0.015625)"/>
       <path id="DejaVuSans-Oblique-3bd" d="M 959 0 
L 572 3500 
L 1191 3500 
L 1522 563 
Q 1972 950 2391 1488 
Q 2706 1891 2788 2241 
Q 2825 2406 2809 2719 
Q 2794 3091 2544 3500 
L 3125 3500 
L 3125 3500 
Q 3288 3222 3353 2834 
Q 3416 2478 3369 2234 
Q 3250 1622 2719 1075 
Q 2025 363 1572 0 
L 959 0 
z
" transform="scale(0.015625)"/>
       <path id="DejaVuSans-5b" d="M 550 4863 
L 1875 4863 
L 1875 4416 
L 1125 4416 
L 1125 -397 
L 1875 -397 
L 1875 -844 
L 550 -844 
L 550 4863 
z
" transform="scale(0.015625)"/>
       <path id="DejaVuSans-Oblique-65" d="M 3078 2063 
Q 3088 2113 3092 2166 
Q 3097 2219 3097 2272 
Q 3097 2653 2873 2875 
Q 2650 3097 2266 3097 
Q 1838 3097 1509 2826 
Q 1181 2556 1013 2059 
L 3078 2063 
z
M 3578 1613 
L 903 1613 
Q 884 1494 878 1425 
Q 872 1356 872 1306 
Q 872 872 1139 634 
Q 1406 397 1894 397 
Q 2269 397 2603 481 
Q 2938 566 3225 728 
L 3116 159 
Q 2806 34 2476 -28 
Q 2147 -91 1806 -91 
Q 1078 -91 686 257 
Q 294 606 294 1247 
Q 294 1794 489 2264 
Q 684 2734 1063 3103 
Q 1306 3334 1642 3459 
Q 1978 3584 2356 3584 
Q 2950 3584 3301 3228 
Q 3653 2872 3653 2272 
Q 3653 2128 3634 1964 
Q 3616 1800 3578 1613 
z
" transform="scale(0.015625)"/>
       <path id="DejaVuSans-Oblique-56" d="M 1319 0 
L 500 4666 
L 1119 4666 
L 1797 653 
L 4063 4666 
L 4750 4666 
L 2053 0 
L 1319 0 
z
" transform="scale(0.015625)"/>
       <path id="DejaVuSans-5d" d="M 1947 4863 
L 1947 -844 
L 622 -844 
L 622 -397 
L 1369 -397 
L 1369 4416 
L 622 4416 
L 622 4863 
L 1947 4863 
z
" transform="scale(0.015625)"/>
      </defs>
      <use xlink:href="#DejaVuSans-Oblique-68" transform="translate(0 0.015625)"/>
      <use xlink:href="#DejaVuSans-Oblique-3bd" transform="translate(63.378906 0.015625)"/>
      <use xlink:href="#DejaVuSans-5b" transform="translate(216.650391 0.015625)"/>
      <use xlink:href="#DejaVuSans-Oblique-65" transform="translate(255.664062 0.015625)"/>
      <use xlink:href="#DejaVuSans-Oblique-56" transform="translate(317.1875 0.015625)"/>
      <use xlink:href="#DejaVuSans-5d" transform="translate(385.595703 0.015625)"/>
     </g>
    </g>
   </g>
   <g id="matplotlib.axis_2">
    <g id="ytick_1">
     <g id="line2d_111">
      <path d="M 93.06 376.153381 
L 583.484882 376.153381 
" clip-path="url(#p7f68b80dad)" style="fill: none; stroke: #0d7685; stroke-width: 0.8; stroke-linecap: square"/>
     </g>
     <g id="line2d_112">
      <defs>
       <path id="m590b6fe2d5" d="M 0 0 
L -4 0 
" style="stroke: #0d7685"/>
      </defs>
      <g>
       <use xlink:href="#m590b6fe2d5" x="93.06" y="376.153381" style="fill: #0d7685; stroke: #0d7685"/>
      </g>
     </g>
     <g id="text_9">
      <!-- $\mathdefault{10^{11}}$ -->
      <g style="fill: #f3f6f0" transform="translate(35.38 385.436194)scale(0.26 -0.26)">
       <use xlink:href="#HelveticaNeue-31" transform="translate(0 0.173438)"/>
       <use xlink:href="#HelveticaNeue-30" transform="translate(55.599991 0.173438)"/>
       <use xlink:href="#HelveticaNeue-31" transform="translate(112.104786 36.365625)scale(0.7)"/>
       <use xlink:href="#HelveticaNeue-31" transform="translate(151.02478 36.365625)scale(0.7)"/>
      </g>
     </g>
    </g>
    <g id="ytick_2">
     <g id="line2d_113">
      <path d="M 93.06 312.90423 
L 583.484882 312.90423 
" clip-path="url(#p7f68b80dad)" style="fill: none; stroke: #0d7685; stroke-width: 0.8; stroke-linecap: square"/>
     </g>
     <g id="line2d_114">
      <g>
       <use xlink:href="#m590b6fe2d5" x="93.06" y="312.90423" style="fill: #0d7685; stroke: #0d7685"/>
      </g>
     </g>
     <g id="text_10">
      <!-- $\mathdefault{10^{14}}$ -->
      <g style="fill: #f3f6f0" transform="translate(35.38 322.187043)scale(0.26 -0.26)">
       <defs>
        <path id="HelveticaNeue-34" d="M 2170 1542 
L 646 1542 
L 2157 3763 
L 2170 3763 
L 2170 1542 
z
M 2682 1542 
L 2682 4538 
L 2246 4538 
L 179 1587 
L 179 1062 
L 2170 1062 
L 2170 0 
L 2682 0 
L 2682 1062 
L 3296 1062 
L 3296 1542 
L 2682 1542 
z
" transform="scale(0.015625)"/>
       </defs>
       <use xlink:href="#HelveticaNeue-31" transform="translate(0 0.173438)"/>
       <use xlink:href="#HelveticaNeue-30" transform="translate(55.599991 0.173438)"/>
       <use xlink:href="#HelveticaNeue-31" transform="translate(112.104786 36.365625)scale(0.7)"/>
       <use xlink:href="#HelveticaNeue-34" transform="translate(151.02478 36.365625)scale(0.7)"/>
      </g>
     </g>
    </g>
    <g id="ytick_3">
     <g id="line2d_115">
      <path d="M 93.06 249.655079 
L 583.484882 249.655079 
" clip-path="url(#p7f68b80dad)" style="fill: none; stroke: #0d7685; stroke-width: 0.8; stroke-linecap: square"/>
     </g>
     <g id="line2d_116">
      <g>
       <use xlink:href="#m590b6fe2d5" x="93.06" y="249.655079" style="fill: #0d7685; stroke: #0d7685"/>
      </g>
     </g>
     <g id="text_11">
      <!-- $\mathdefault{10^{17}}$ -->
      <g style="fill: #f3f6f0" transform="translate(35.38 258.937892)scale(0.26 -0.26)">
       <defs>
        <path id="HelveticaNeue-37" d="M 3258 3994 
L 3258 4461 
L 320 4461 
L 320 3949 
L 2701 3949 
Q 2342 3571 2032 3123 
Q 1722 2675 1485 2172 
Q 1248 1670 1097 1123 
Q 947 576 909 0 
L 1517 0 
Q 1549 531 1696 1094 
Q 1843 1658 2076 2189 
Q 2310 2720 2611 3187 
Q 2912 3654 3258 3994 
z
" transform="scale(0.015625)"/>
       </defs>
       <use xlink:href="#HelveticaNeue-31" transform="translate(0 0.173438)"/>
       <use xlink:href="#HelveticaNeue-30" transform="translate(55.599991 0.173438)"/>
       <use xlink:href="#HelveticaNeue-31" transform="translate(112.104786 36.365625)scale(0.7)"/>
       <use xlink:href="#HelveticaNeue-37" transform="translate(151.02478 36.365625)scale(0.7)"/>
      </g>
     </g>
    </g>
    <g id="ytick_4">
     <g id="line2d_117">
      <path d="M 93.06 186.405928 
L 583.484882 186.405928 
" clip-path="url(#p7f68b80dad)" style="fill: none; stroke: #0d7685; stroke-width: 0.8; stroke-linecap: square"/>
     </g>
     <g id="line2d_118">
      <g>
       <use xlink:href="#m590b6fe2d5" x="93.06" y="186.405928" style="fill: #0d7685; stroke: #0d7685"/>
      </g>
     </g>
     <g id="text_12">
      <!-- $\mathdefault{10^{20}}$ -->
      <g style="fill: #f3f6f0" transform="translate(35.38 195.688741)scale(0.26 -0.26)">
       <use xlink:href="#HelveticaNeue-31" transform="translate(0 0.173438)"/>
       <use xlink:href="#HelveticaNeue-30" transform="translate(55.599991 0.173438)"/>
       <use xlink:href="#HelveticaNeue-32" transform="translate(112.104786 36.365625)scale(0.7)"/>
       <use xlink:href="#HelveticaNeue-30" transform="translate(151.02478 36.365625)scale(0.7)"/>
      </g>
     </g>
    </g>
    <g id="ytick_5">
     <g id="line2d_119">
      <path d="M 93.06 123.156777 
L 583.484882 123.156777 
" clip-path="url(#p7f68b80dad)" style="fill: none; stroke: #0d7685; stroke-width: 0.8; stroke-linecap: square"/>
     </g>
     <g id="line2d_120">
      <g>
       <use xlink:href="#m590b6fe2d5" x="93.06" y="123.156777" style="fill: #0d7685; stroke: #0d7685"/>
      </g>
     </g>
     <g id="text_13">
      <!-- $\mathdefault{10^{23}}$ -->
      <g style="fill: #f3f6f0" transform="translate(35.38 132.43959)scale(0.26 -0.26)">
       <use xlink:href="#HelveticaNeue-31" transform="translate(0 0.173438)"/>
       <use xlink:href="#HelveticaNeue-30" transform="translate(55.599991 0.173438)"/>
       <use xlink:href="#HelveticaNeue-32" transform="translate(112.104786 36.365625)scale(0.7)"/>
       <use xlink:href="#HelveticaNeue-33" transform="translate(151.02478 36.365625)scale(0.7)"/>
      </g>
     </g>
    </g>
    <g id="ytick_6">
     <g id="line2d_121">
      <path d="M 93.06 59.907626 
L 583.484882 59.907626 
" clip-path="url(#p7f68b80dad)" style="fill: none; stroke: #0d7685; stroke-width: 0.8; stroke-linecap: square"/>
     </g>
     <g id="line2d_122">
      <g>
       <use xlink:href="#m590b6fe2d5" x="93.06" y="59.907626" style="fill: #0d7685; stroke: #0d7685"/>
      </g>
     </g>
     <g id="text_14">
      <!-- $\mathdefault{10^{26}}$ -->
      <g style="fill: #f3f6f0" transform="translate(35.38 69.190438)scale(0.26 -0.26)">
       <defs>
        <path id="HelveticaNeue-36" d="M 2650 3379 
L 3194 3379 
Q 3142 3942 2809 4240 
Q 2477 4538 1914 4538 
Q 1427 4538 1107 4333 
Q 787 4128 595 3789 
Q 403 3450 323 3011 
Q 243 2573 243 2106 
Q 243 1747 297 1363 
Q 352 979 518 659 
Q 685 339 992 134 
Q 1299 -70 1805 -70 
Q 2234 -70 2525 74 
Q 2816 218 2992 438 
Q 3168 659 3245 928 
Q 3322 1197 3322 1446 
Q 3322 1760 3226 2029 
Q 3130 2298 2954 2496 
Q 2778 2694 2518 2806 
Q 2259 2918 1933 2918 
Q 1562 2918 1277 2777 
Q 992 2637 800 2323 
L 787 2336 
Q 794 2598 838 2899 
Q 883 3200 1001 3459 
Q 1120 3718 1331 3888 
Q 1542 4058 1888 4058 
Q 2214 4058 2412 3872 
Q 2611 3686 2650 3379 
z
M 1830 2438 
Q 2061 2438 2233 2355 
Q 2406 2272 2521 2134 
Q 2637 1997 2691 1808 
Q 2746 1619 2746 1408 
Q 2746 1210 2685 1027 
Q 2624 845 2509 704 
Q 2394 563 2224 483 
Q 2054 403 1830 403 
Q 1606 403 1430 483 
Q 1254 563 1136 697 
Q 1018 832 954 1017 
Q 890 1203 890 1414 
Q 890 1626 950 1814 
Q 1011 2003 1132 2140 
Q 1254 2278 1427 2358 
Q 1600 2438 1830 2438 
z
" transform="scale(0.015625)"/>
       </defs>
       <use xlink:href="#HelveticaNeue-31" transform="translate(0 0.173438)"/>
       <use xlink:href="#HelveticaNeue-30" transform="translate(55.599991 0.173438)"/>
       <use xlink:href="#HelveticaNeue-32" transform="translate(112.104786 36.365625)scale(0.7)"/>
       <use xlink:href="#HelveticaNeue-36" transform="translate(151.02478 36.365625)scale(0.7)"/>
      </g>
     </g>
    </g>
    <g id="text_15">
     <!-- $L_{h\nu}\quad [Ws]$ -->
     <g style="fill: #f3f6f0" transform="translate(26.257187 281.096706)rotate(-90)scale(0.26 -0.26)">
      <defs>
       <path id="DejaVuSans-Oblique-4c" d="M 1075 4666 
L 1709 4666 
L 909 525 
L 3181 525 
L 3078 0 
L 172 0 
L 1075 4666 
z
" transform="scale(0.015625)"/>
       <path id="DejaVuSans-Oblique-57" d="M 616 4666 
L 1228 4666 
L 1453 697 
L 3213 4666 
L 3916 4666 
L 4147 697 
L 5888 4666 
L 6528 4666 
L 4453 0 
L 3659 0 
L 3444 3891 
L 1697 0 
L 903 0 
L 616 4666 
z
" transform="scale(0.015625)"/>
       <path id="DejaVuSans-Oblique-73" d="M 3200 3397 
L 3091 2853 
Q 2863 2978 2609 3040 
Q 2356 3103 2088 3103 
Q 1634 3103 1373 2948 
Q 1113 2794 1113 2528 
Q 1113 2219 1719 2053 
Q 1766 2041 1788 2034 
L 1972 1978 
Q 2547 1819 2739 1644 
Q 2931 1469 2931 1166 
Q 2931 609 2489 259 
Q 2047 -91 1331 -91 
Q 1053 -91 747 -37 
Q 441 16 72 128 
L 184 722 
Q 500 559 806 475 
Q 1113 391 1394 391 
Q 1816 391 2080 572 
Q 2344 753 2344 1031 
Q 2344 1331 1650 1516 
L 1591 1531 
L 1394 1581 
Q 956 1697 753 1886 
Q 550 2075 550 2369 
Q 550 2928 970 3256 
Q 1391 3584 2113 3584 
Q 2397 3584 2667 3537 
Q 2938 3491 3200 3397 
z
" transform="scale(0.015625)"/>
      </defs>
      <use xlink:href="#DejaVuSans-Oblique-4c" transform="translate(0 0.015625)"/>
      <use xlink:href="#DejaVuSans-Oblique-68" transform="translate(55.712891 -16.390625)scale(0.7)"/>
      <use xlink:href="#DejaVuSans-Oblique-3bd" transform="translate(100.078125 -16.390625)scale(0.7)"/>
      <use xlink:href="#DejaVuSans-5b" transform="translate(239.326172 0.015625)"/>
      <use xlink:href="#DejaVuSans-Oblique-57" transform="translate(278.339844 0.015625)"/>
      <use xlink:href="#DejaVuSans-Oblique-73" transform="translate(377.216797 0.015625)"/>
      <use xlink:href="#DejaVuSans-5d" transform="translate(429.316406 0.015625)"/>
     </g>
    </g>
   </g>
   <g id="line2d_123">
    <path d="M 93.06 263.271666 
L 150.006233 234.102266 
L 179.46118 219.245281 
L 199.588728 209.323339 
L 215.298034 201.81872 
L 227.570929 196.187095 
L 237.88016 191.683334 
L 247.20756 187.850586 
L 255.062213 184.852954 
L 262.42595 182.278665 
L 269.298771 180.119943 
L 275.680677 178.354845 
L 281.571666 176.946647 
L 287.462656 175.755246 
L 293.844561 174.697076 
L 300.717382 173.788371 
L 309.553867 172.866141 
L 324.281341 171.596003 
L 364.04552 168.435419 
L 392.027721 166.410105 
L 412.155268 165.165662 
L 427.373658 164.441259 
L 439.155637 164.091013 
L 448.973953 164.012268 
L 457.319522 164.163238 
L 464.683259 164.524736 
L 471.065164 165.067471 
L 476.465238 165.739976 
L 481.374396 166.562449 
L 485.792638 167.511321 
L 490.21088 168.696975 
L 494.138207 169.985642 
L 497.574617 171.324107 
L 501.011028 172.888268 
L 504.447438 174.709066 
L 507.392933 176.499991 
L 510.338428 178.528469 
L 513.283923 180.820339 
L 516.229418 183.403586 
L 519.174912 186.308449 
L 522.120407 189.567549 
L 525.065902 193.216052 
L 527.520481 196.581188 
L 529.97506 200.266507 
L 532.429639 204.297043 
L 534.884218 208.699483 
L 537.338797 213.502293 
L 539.793376 218.735864 
L 542.247955 224.432652 
L 544.702534 230.627341 
L 547.157113 237.357009 
L 549.611692 244.661304 
L 552.066271 252.582639 
L 554.52085 261.166389 
L 556.975429 270.461109 
L 559.430008 280.518765 
L 561.884587 291.394983 
L 564.339166 303.149309 
L 566.793745 315.845499 
L 569.248324 329.551818 
L 571.702903 344.341368 
L 574.157482 360.292436 
L 576.612061 377.488869 
L 579.06664 396.020474 
L 581.521219 415.983446 
L 583.484882 433.053411 
L 583.484882 433.053411 
" clip-path="url(#p7f68b80dad)" style="fill: none; stroke: #f3f6f0; stroke-width: 1.5; stroke-linecap: square"/>
   </g>
   <g id="line2d_124">
    <path d="M 93.06 260.196604 
L 583.484882 7.2 
L 583.484882 7.2 
" clip-path="url(#p7f68b80dad)" style="fill: none; stroke: #f24f4a; stroke-width: 1.5; stroke-linecap: square"/>
   </g>
   <g id="line2d_125">
    <path d="M 93.06 190.622538 
L 583.484882 148.456437 
L 583.484882 148.456437 
" clip-path="url(#p7f68b80dad)" style="fill: none; stroke: #f87a2c; stroke-width: 1.5; stroke-linecap: square"/>
   </g>
   <g id="line2d_126">
    <path d="M 430.925055 433.053411 
L 430.925055 7.2 
" clip-path="url(#p7f68b80dad)" style="fill: none; stroke: #f3f6f0; stroke-width: 1.5; stroke-linecap: square"/>
   </g>
   <g id="patch_3">
    <path d="M 93.06 433.053411 
L 583.484882 433.053411 
" style="fill: none; stroke: #0d7685; stroke-width: 2; stroke-linejoin: miter; stroke-linecap: square"/>
   </g>
   <g id="legend_1">
    <g id="line2d_127">
     <path d="M 295.193685 279.468382 
L 321.193685 279.468382 
L 347.193685 279.468382 
" style="fill: none; stroke: #f3f6f0; stroke-width: 1.5; stroke-linecap: square"/>
    </g>
    <g id="text_16">
     <!-- $L_{h\nu}$ -->
     <g style="fill: #f3f6f0" transform="translate(367.993685 288.568382)scale(0.26 -0.26)">
      <use xlink:href="#DejaVuSans-Oblique-4c" transform="translate(0 0.09375)"/>
      <use xlink:href="#DejaVuSans-Oblique-68" transform="translate(55.712891 -16.3125)scale(0.7)"/>
      <use xlink:href="#DejaVuSans-Oblique-3bd" transform="translate(100.078125 -16.3125)scale(0.7)"/>
     </g>
    </g>
    <g id="line2d_128">
     <path d="M 295.193685 316.15682 
L 321.193685 316.15682 
L 347.193685 316.15682 
" style="fill: none; stroke: #f24f4a; stroke-width: 1.5; stroke-linecap: square"/>
    </g>
    <g id="text_17">
     <!-- $h\nu^{2}$ -->
     <g style="fill: #f3f6f0" transform="translate(367.993685 325.25682)scale(0.26 -0.26)">
      <defs>
       <path id="DejaVuSans-32" d="M 1228 531 
L 3431 531 
L 3431 0 
L 469 0 
L 469 531 
Q 828 903 1448 1529 
Q 2069 2156 2228 2338 
Q 2531 2678 2651 2914 
Q 2772 3150 2772 3378 
Q 2772 3750 2511 3984 
Q 2250 4219 1831 4219 
Q 1534 4219 1204 4116 
Q 875 4013 500 3803 
L 500 4441 
Q 881 4594 1212 4672 
Q 1544 4750 1819 4750 
Q 2544 4750 2975 4387 
Q 3406 4025 3406 3419 
Q 3406 3131 3298 2873 
Q 3191 2616 2906 2266 
Q 2828 2175 2409 1742 
Q 1991 1309 1228 531 
z
" transform="scale(0.015625)"/>
      </defs>
      <use xlink:href="#DejaVuSans-Oblique-68" transform="translate(0 0.765625)"/>
      <use xlink:href="#DejaVuSans-Oblique-3bd" transform="translate(63.378906 0.765625)"/>
      <use xlink:href="#DejaVuSans-32" transform="translate(123.704427 39.046875)scale(0.7)"/>
     </g>
    </g>
    <g id="line2d_129">
     <path d="M 295.193685 352.845257 
L 321.193685 352.845257 
L 347.193685 352.845257 
" style="fill: none; stroke: #f87a2c; stroke-width: 1.5; stroke-linecap: square"/>
    </g>
    <g id="text_18">
     <!-- $h\nu^{1/3}$ -->
     <g style="fill: #f3f6f0" transform="translate(367.993685 361.945257)scale(0.26 -0.26)">
      <defs>
       <path id="DejaVuSans-31" d="M 794 531 
L 1825 531 
L 1825 4091 
L 703 3866 
L 703 4441 
L 1819 4666 
L 2450 4666 
L 2450 531 
L 3481 531 
L 3481 0 
L 794 0 
L 794 531 
z
" transform="scale(0.015625)"/>
       <path id="DejaVuSans-2f" d="M 1625 4666 
L 2156 4666 
L 531 -594 
L 0 -594 
L 1625 4666 
z
" transform="scale(0.015625)"/>
       <path id="DejaVuSans-33" d="M 2597 2516 
Q 3050 2419 3304 2112 
Q 3559 1806 3559 1356 
Q 3559 666 3084 287 
Q 2609 -91 1734 -91 
Q 1441 -91 1130 -33 
Q 819 25 488 141 
L 488 750 
Q 750 597 1062 519 
Q 1375 441 1716 441 
Q 2309 441 2620 675 
Q 2931 909 2931 1356 
Q 2931 1769 2642 2001 
Q 2353 2234 1838 2234 
L 1294 2234 
L 1294 2753 
L 1863 2753 
Q 2328 2753 2575 2939 
Q 2822 3125 2822 3475 
Q 2822 3834 2567 4026 
Q 2313 4219 1838 4219 
Q 1578 4219 1281 4162 
Q 984 4106 628 3988 
L 628 4550 
Q 988 4650 1302 4700 
Q 1616 4750 1894 4750 
Q 2613 4750 3031 4423 
Q 3450 4097 3450 3541 
Q 3450 3153 3228 2886 
Q 3006 2619 2597 2516 
z
" transform="scale(0.015625)"/>
      </defs>
      <use xlink:href="#DejaVuSans-Oblique-68" transform="translate(0 0.765625)"/>
      <use xlink:href="#DejaVuSans-Oblique-3bd" transform="translate(63.378906 0.765625)"/>
      <use xlink:href="#DejaVuSans-31" transform="translate(123.704427 39.046875)scale(0.7)"/>
      <use xlink:href="#DejaVuSans-2f" transform="translate(168.24056 39.046875)scale(0.7)"/>
      <use xlink:href="#DejaVuSans-33" transform="translate(191.824544 39.046875)scale(0.7)"/>
     </g>
    </g>
   </g>
  </g>
 </g>
 <defs>
  <clipPath id="p7f68b80dad">
   <rect x="93.06" y="7.2" width="490.424882" height="425.853411"/>
  </clipPath>
 </defs>
</svg>
